<svg xmlns="http://www.w3.org/2000/svg" width="951" height="428.015" viewBox="0 0 951 428.015">
  <g id="Group_1" data-name="Group 1" transform="translate(0 0.015)">
    <path id="Path_461" data-name="Path 461" d="M202.747,626.969a22.728,22.728,0,0,0,21.947-3.866c7.687-6.452,10.1-17.081,12.058-26.924l5.8-29.112-12.143,8.362c-8.733,6.013-17.662,12.219-23.709,20.929s-8.686,20.6-3.828,30.024" transform="translate(-124.5 -236)" fill="#e6e6e6"/>
    <path id="Path_462" data-name="Path 462" d="M203.785,662.215c-1.229-8.953-2.493-18.02-1.631-27.069.766-8.036,3.217-15.885,8.209-22.321a37.132,37.132,0,0,1,9.527-8.633c.953-.6,1.829.909.881,1.507a35.3,35.3,0,0,0-13.963,16.847c-3.04,7.732-3.528,16.161-3,24.374.317,4.967.988,9.9,1.665,14.83a.9.9,0,0,1-.61,1.074.878.878,0,0,1-1.074-.61Z" transform="translate(-124.5 -236)" fill="#f2f2f2"/>
    <path id="Path_438" data-name="Path 438" d="M1026.82,615.577a24.215,24.215,0,0,1-23.383-4.119c-8.19-6.874-10.758-18.2-12.847-28.682l-6.18-31.017,12.938,8.908c9.3,6.406,18.818,13.019,25.26,22.3s9.252,21.947,4.078,31.988" transform="translate(-124.5 -236)" fill="#e6e6e6"/>
    <path id="Path_439" data-name="Path 439" d="M1024.83,655.288c1.628-11.864,3.3-23.881,2.159-35.872-1.015-10.649-4.264-21.049-10.878-29.579a49.207,49.207,0,0,0-12.625-11.44c-1.262-.8-2.424,1.2-1.167,2a46.78,46.78,0,0,1,18.5,22.326c4.029,10.246,4.676,21.416,3.982,32.3-.419,6.582-1.311,13.121-2.206,19.653a1.2,1.2,0,0,0,.808,1.422,1.163,1.163,0,0,0,1.423-.808Z" transform="translate(-124.5 -236)" fill="#f2f2f2"/>
    <path id="Path_442" data-name="Path 442" d="M1013.11,636.252a17.825,17.825,0,0,1-15.531,8.019c-7.864-.373-14.418-5.86-20.317-11.07L959.81,617.792l11.55-.553c8.306-.4,16.827-.771,24.738,1.793s15.208,8.726,16.654,16.915" transform="translate(-124.5 -236)" fill="#e6e6e6"/>
    <path id="Path_443" data-name="Path 443" d="M1029.43,662.108c-7.84-13.871-16.932-29.288-33.181-34.216a37.025,37.025,0,0,0-13.956-1.441c-1.482.128-1.112,2.412.367,2.285a34.4,34.4,0,0,1,22.272,5.892c6.28,4.274,11.17,10.218,15.308,16.519,2.535,3.861,4.806,7.884,7.076,11.9C1028.04,664.334,1030.16,663.407,1029.43,662.108Z" transform="translate(-124.5 -236)" fill="#f2f2f2"/>
    <path id="Path_1" data-name="Path 1" d="M806.9,494.268h-393v-84h393Z" transform="translate(-124.5 -236)" fill="#fff"/>
    <circle id="Ellipse_1" data-name="Ellipse 1" cx="21.338" cy="21.338" r="21.338" transform="translate(318.987 194.93)" fill="#6c63ff"/>
    <path id="Path_2" data-name="Path 2" d="M514.107,438.042a3.556,3.556,0,0,0,0,7.113h259.66a3.556,3.556,0,0,0,0-7.113Z" transform="translate(-124.5 -236)" fill="#6c63ff"/>
    <path id="Path_3" data-name="Path 3" d="M514.107,459.38a3.556,3.556,0,0,0-.015,7.113h164.16a3.556,3.556,0,0,0,0-7.113Z" transform="translate(-124.5 -236)" fill="#6c63ff"/>
    <path id="Path_4" data-name="Path 4" d="M806.9,494.268h-393v-84h393Zm-387-6h381v-72h-381Z" transform="translate(-124.5 -236)" fill="#ccc"/>
    <path id="Path_5" data-name="Path 5" d="M917.573,473.4a8.114,8.114,0,0,1,6.462-10.632l4.448-18,11.6.035-6.639,25.331a8.158,8.158,0,0,1-15.87,3.265Z" transform="translate(-124.5 -236)" fill="#ffb7b7"/>
    <path id="Path_6" data-name="Path 6" d="M937.155,461.754l-17.763-1.231,8.6-51.268L922.52,352.8l17.956-7.362,11.974,62.69-.033.114Z" transform="translate(-124.5 -236)" fill="#3f3d56"/>
    <path id="Path_7" data-name="Path 7" d="M799.808,455.746a8.114,8.114,0,0,1,9.4-8.152l9.729-15.784,11.034,3.573-14.053,22.1a8.158,8.158,0,0,1-16.109-1.734Z" transform="translate(-124.5 -236)" fill="#ffb7b7"/>
    <path id="Path_8" data-name="Path 8" d="M730.086,417.1h-9.449l-4.495-36.447h13.946Z" fill="#ffb7b7"/>
    <path id="Path_9" data-name="Path 9" d="M857,662.263H826.528v-.385a11.86,11.86,0,0,1,11.858-11.859H857Z" transform="translate(-124.5 -236)" fill="#2f2e41"/>
    <path id="Path_10" data-name="Path 10" d="M796.006,417.1h-9.449l-4.495-36.447h13.946Z" fill="#ffb7b7"/>
    <path id="Path_11" data-name="Path 11" d="M922.916,662.263H892.448v-.385a11.859,11.859,0,0,1,11.858-11.859h18.61Z" transform="translate(-124.5 -236)" fill="#2f2e41"/>
    <circle id="Ellipse_2" data-name="Ellipse 2" cx="22.448" cy="22.448" r="22.448" transform="translate(764.572 29.957)" fill="#ffb8b8"/>
    <path id="Path_12" data-name="Path 12" d="M903.938,287.174a14.632,14.632,0,0,1-13.784-25.659c5.975-4,14.9-2.675,20.69,1.962a20.211,20.211,0,0,1,23.366,4.849c5.592,6.468,6.2,16.736,2.128,24.276a26.391,26.391,0,0,0,1.548,24.708c-1.753-.071-5.612-.4-10.441-.813-1.4-.121-2-4.225-3.534-4.357-1.351-.116-3.618,3.74-5.034,3.621-10.487-.886-22.227-1.786-27.547-1.61C895.339,304.765,899.348,295.38,903.938,287.174Z" transform="translate(-124.5 -236)" fill="#2f2e41"/>
    <path id="Path_13" data-name="Path 13" d="M928.736,446.55s7.3,7.522,2.841,46.362L928.5,575.386l-5.445,73.027-17.519-1.165-15.39-168.081L868.6,540.673,857,642.355l-16.809-1.165L837.32,540.072l7.369-78.146Z" transform="translate(-124.5 -236)" fill="#2f2e41"/>
    <path id="Path_14" data-name="Path 14" d="M856.528,466.631c-8.963,0-12.573-1.077-12.837-1.16l-.416-.131.073-.43c.06-.353,6.082-35.464,14.345-53.9l5.81-74.755a9.857,9.857,0,0,1,8.327-9.005l.078.494-.078-.494,14.78-2.32,9.041-7.961,21.658,1.2,1.91,9.162c2.59.724,19.684,5.963,21.376,18.508l.021.157-.073.14-31.316,60.244c2.646,2.612,23.56,24.1,24.98,51.561l.034.661-.645-.147c-.06-.012-6.753-1.284-41.947,4.666C875.372,465.87,864.06,466.631,856.528,466.631Z" transform="translate(-124.5 -236)" fill="#3f3d56"/>
    <path id="Path_15" data-name="Path 15" d="M821.811,455.382l-12.765-9.83,28.49-57,26.5-55.866a4.234,4.234,0,0,1,7.907.689l6.559,23.794L857.99,410.53Z" transform="translate(-124.5 -236)" fill="#3f3d56"/>
    <path id="Path_16" data-name="Path 16" d="M1074.5,664h-381a1,1,0,0,1,0-2h381a1,1,0,0,1,0,2Z" transform="translate(-124.5 -236)" fill="#cbcbcb"/>
    <path id="Path_17" data-name="Path 17" d="M510.842,126h-54V72h27v2h-25v50h50V99h2Z" fill="#3f3d56"/>
    <path id="Path_18" data-name="Path 18" d="M482.829,110.048,469.711,94.985l2.262-1.97,10.882,12.5L512.722,72l2.239,2Z" fill="#6c63ff"/>
    <path id="Path_19" data-name="Path 19" d="M300.2,303.24l1.263-6.313s18.57-6.313,20.648,6.313Z" transform="translate(-124.5 -236)" fill="#e6e6e6"/>
    <path id="Path_20" data-name="Path 20" d="M211.342,414.822h12.174l5.792-46.958H211.34Z" fill="#9f616a"/>
    <path id="Path_21" data-name="Path 21" d="M332.736,646.847h23.977a15.28,15.28,0,0,1,15.279,15.278v.5H332.737Z" transform="translate(-124.5 -236)" fill="#2f2e41"/>
    <path id="Path_22" data-name="Path 22" d="M152.654,414.822h12.174l5.792-46.958H152.652Z" fill="#9f616a"/>
    <path id="Path_23" data-name="Path 23" d="M274.048,646.847h23.977A15.28,15.28,0,0,1,313.3,662.124v.5H274.049Z" transform="translate(-124.5 -236)" fill="#2f2e41"/>
    <path id="Path_24" data-name="Path 24" d="M158.027,93.753,144.139,92.49,135.3,134.153l1.262,37.876,13.888,50.5,18.938-11.363L159.29,159.4Z" fill="#3f3d56"/>
    <path id="Path_25" data-name="Path 25" d="M149.237,218.111l3.109,26.513,2.919,61.864-6.707,92.188,23.988-1.287L184.3,301.437l7.181-44.188,10.1,50.5,6.313,94.689,24.619-1.973V307.417l.631-67.843-8.837-26.513Z" fill="#2f2e41"/>
    <path id="Path_26" data-name="Path 26" d="M325.453,304.5s-8.838-12.625-25.25-3.788l-7.575,10.1L268.64,328.49l5.05,59.339-6.313,74.489,89.639-1.263-15.15-74.489V307.027Z" transform="translate(-124.5 -236)" fill="#3f3d56"/>
    <path id="Path_27" data-name="Path 27" d="M152.346,113.446,145.107,200l9.133-46.91Z" opacity="0.25"/>
    <path id="Path_28" data-name="Path 28" d="M427.528,422.017a9.312,9.312,0,0,1-12.2-7.416L394.67,409.5l.041-13.31,29.07,7.619a9.362,9.362,0,0,1,3.747,18.212Z" transform="translate(-124.5 -236)" fill="#9f616a"/>
    <rect id="Rectangle_1" data-name="Rectangle 1" width="20.2" height="8.838" transform="matrix(0.172, -0.985, 0.985, 0.172, 277.953, 179.93)" fill="#e6e6e6"/>
    <circle id="Ellipse_3" data-name="Ellipse 3" cx="25.353" cy="25.353" r="25.353" transform="translate(161.551 3.214)" fill="#9f616a"/>
    <path id="Path_29" data-name="Path 29" d="M313.3,286.931A25.717,25.717,0,0,1,296.472,238.6a30.072,30.072,0,0,1,14.2-2.548c7.582.4,14.952,3.2,22.542,2.995l1.1,1.768,4.146-1.005.888,3.292,1.092-.038c1.956,3.635-1.191,8.84-5.319,8.8a24.564,24.564,0,0,1-4.778-1.041c-1.6-.342-3.48-.257-4.582.95-1.432,1.569-.809,4.016-.51,6.119s-.447,4.936-2.57,5c-1.084.035-2.116-.743-3.181-.538-1.241.238-1.869,1.737-1.687,2.988A11.888,11.888,0,0,0,319.3,268.8a13.965,13.965,0,0,1-5.54,17.814" transform="translate(-124.5 -236)" fill="#2f2e41"/>
    <path id="Path_30" data-name="Path 30" d="M335.84,311.9l6.026-4.878s12.162-.846,11.942,12.047l19.46,60.871L410.6,393.17l-5.031,25.991L352.75,399.039l-26.829-44.468Z" transform="translate(-124.5 -236)" fill="#3f3d56"/>
    <path id="Path_31" data-name="Path 31" d="M506.5,664h-381a1,1,0,0,1,0-2h381a1,1,0,0,1,0,2Z" transform="translate(-124.5 -236)" fill="#cbcbcb"/>
  </g>
</svg>
