<svg xmlns="http://www.w3.org/2000/svg" width="862.701" height="644.814" viewBox="0 0 862.701 644.814">
  <g id="Group_1" data-name="Group 1" transform="translate(0 0.028)">
    <path d="M629.943,612.644H612.777l-8.169-66.209h25.335Z" fill="#9e616a"/>
    <path id="Path_2" data-name="Path 2" d="M807.651,769.992h-12.31l-2.2-11.622-5.628,11.622H754.867a7.339,7.339,0,0,1-4.17-13.378l26.073-18.007v-11.75l27.424,1.637Z" transform="translate(-168.648 -127.607)" fill="#2f2e41"/>
    <path id="Path_3" data-name="Path 3" d="M731.923,590.981l-13.775,10.243-46.063-48.255,20.33-15.118Z" fill="#9e616a"/>
    <path id="Path_4" data-name="Path 4" d="M925.588,737.048l-9.878,7.345-8.7-8.015,2.419,12.684-26.2,19.482A7.339,7.339,0,0,1,871.9,760.3l10.177-30.007-7.011-9.428,22.983-15.051Z" transform="translate(-168.648 -127.607)" fill="#2f2e41"/>
    <path id="Path_5" data-name="Path 5" d="M818.576,398.647S851.145,426.785,836.118,507l-18.345,78.6L877.6,684.852l-19.077,23.208-77.78-107.433L752.56,534.513l-7.909-117.67Z" transform="translate(-168.648 -127.607)" fill="#2f2e41"/>
    <path id="Path_6" data-name="Path 6" d="M599.447,425.746l-1.959,30.338,5.995,129.281,28.209-4.913,5.391-92.046Z" fill="#2f2e41"/>
    <path id="Path_7" data-name="Path 7" d="M237.445,628.211H252.8L260.1,569H237.443Z" fill="#ffb6b6"/>
    <path id="Path_8" data-name="Path 8" d="M402.178,750.806H406.5l16.869-6.86,9.041,6.859h0a19.266,19.266,0,0,1,19.265,19.264v.628l-49.5,0Z" transform="translate(-168.648 -127.607)" fill="#2f2e41"/>
    <path id="Path_9" data-name="Path 9" d="M296.932,618.538l14.973,3.38,20.166-56.146-22.1-4.99Z" fill="#ffb6b6"/>
    <path id="Path_10" data-name="Path 10" d="M462.865,740.393l4.215.952,17.966-2.976,7.308,8.682h0A19.266,19.266,0,0,1,506.9,770.087l-.138.611-48.281-10.9Z" transform="translate(-168.648 -127.607)" fill="#2f2e41"/>
    <path id="Path_11" data-name="Path 11" d="M386.652,393.843c-7.2,21.706-6.436,45.268,1.73,70.556l3.491,142.378s-5.2,93.369,11.581,126.225h24.34l12.051-134.751,1.513-90.446,52.182,76.306L460.3,730.8l29.957,2.678L544.2,574.286,477.652,419.843Z" transform="translate(-168.648 -127.607)" fill="#2f2e41"/>
    <path id="Path_12" data-name="Path 12" d="M667.346,332.015c18.617-16.777,46.309-25.212,69.537-15.8A115.466,115.466,0,0,0,685,376.145c-3.7,9.838-6.786,21.166-15.882,26.434-5.659,3.278-12.7,3.438-19.046,1.856s-12.162-4.754-17.9-7.894l-1.632-.037C637.864,372.537,648.729,348.791,667.346,332.015Z" transform="translate(-168.648 -127.607)" fill="#e6e6e6"/>
    <path id="Path_13" data-name="Path 13" d="M736.753,316.719a98.693,98.693,0,0,0-54.906,25.931,42.5,42.5,0,0,0-8.345,10.377,24.376,24.376,0,0,0-2.818,12.516c.1,4.058.673,8.2-.214,12.21a14.925,14.925,0,0,1-7.424,9.689c-4.546,2.613-9.76,3.437-14.886,4.065-5.692.7-11.615,1.332-16.542,4.525-.6.387-1.162-.562-.566-.948,8.572-5.555,19.42-3.534,28.637-7.241,4.3-1.73,8.107-4.766,9.454-9.357,1.178-4.015.591-8.284.454-12.392a26.011,26.011,0,0,1,2.3-12.34,39.291,39.291,0,0,1,7.916-10.659,95.75,95.75,0,0,1,24.333-17.42,100.441,100.441,0,0,1,32.6-10.058c.7-.091.709,1.015.01,1.1Z" transform="translate(-168.648 -127.607)" fill="#fff"/>
    <path id="Path_14" data-name="Path 14" d="M686.447,337.791a14.807,14.807,0,0,1,1.632-19.1c.506-.5,1.305.265.8.764a13.711,13.711,0,0,0-1.482,17.774c.415.577-.536,1.14-.948.566Z" transform="translate(-168.648 -127.607)" fill="#fff"/>
    <path id="Path_15" data-name="Path 15" d="M670.362,363.491a28.539,28.539,0,0,0,20.394-4.083c.6-.385,1.164.564.566.948a29.685,29.685,0,0,1-21.23,4.206c-.7-.126-.427-1.2.27-1.071Z" transform="translate(-168.648 -127.607)" fill="#fff"/>
    <path id="Path_16" data-name="Path 16" d="M714.447,321.948a8.382,8.382,0,0,0,6.269,4.894c.7.117.427,1.188-.27,1.071a9.392,9.392,0,0,1-6.947-5.4.571.571,0,0,1,.191-.757.555.555,0,0,1,.757.191Z" transform="translate(-168.648 -127.607)" fill="#fff"/>
    <path id="Path_17" data-name="Path 17" d="M762.461,397.115c-.44-.061-.881-.122-1.328-.176a110.379,110.379,0,0,0-17.882-.908c-.462.007-.931.02-1.392.04a116.365,116.365,0,0,0-41.75,9.61,113.007,113.007,0,0,0-15.163,8.056c-6.688,4.234-13.6,9.358-21.078,11.085a19.4,19.4,0,0,1-2.362.421L630.618,398.5c-.04-.1-.086-.185-.126-.282L629.21,397.2c.239-.176.49-.353.729-.528.138-.1.283-.2.421-.3.094-.066.189-.133.27-.2.031-.022.063-.044.088-.059.081-.065.164-.117.239-.176q2.1-1.49,4.235-2.955c.006-.007.006-.007.019-.008a166.155,166.155,0,0,1,34.6-18.6c.367-.139.739-.285,1.12-.411a107.833,107.833,0,0,1,16.939-4.767,95.329,95.329,0,0,1,9.553-1.334,79.272,79.272,0,0,1,24.723,1.752c16.143,3.743,30.91,12.608,39.656,26.432C762.027,396.406,762.244,396.754,762.461,397.115Z" transform="translate(-168.648 -127.607)" fill="#e6e6e6"/>
    <path id="Path_18" data-name="Path 18" d="M762.052,397.446A98.692,98.692,0,0,0,702.6,385.093a42.5,42.5,0,0,0-12.91,3.261,24.376,24.376,0,0,0-9.785,8.3c-2.363,3.3-4.4,6.951-7.523,9.62a14.925,14.925,0,0,1-11.761,3.266c-5.2-.651-9.862-3.132-14.333-5.717-4.965-2.87-10.076-5.93-15.932-6.347-.71-.051-.59-1.149.119-1.1,10.189.726,17.633,8.871,27.225,11.46,4.476,1.208,9.343,1.075,13.182-1.779,3.358-2.5,5.459-6.258,7.823-9.621a26.011,26.011,0,0,1,9.265-8.469,39.291,39.291,0,0,1,12.738-3.745,95.75,95.75,0,0,1,29.917.742,100.444,100.444,0,0,1,32.085,11.6c.616.351-.045,1.237-.657.888Z" transform="translate(-168.648 -127.607)" fill="#fff"/>
    <path id="Path_19" data-name="Path 19" d="M709.2,383.983A14.807,14.807,0,0,1,722,369.712c.7-.093.883,1,.177,1.09A13.711,13.711,0,0,0,710.3,384.1c-.016.711-1.114.588-1.1-.119Z" transform="translate(-168.648 -127.607)" fill="#fff"/>
    <path id="Path_20" data-name="Path 20" d="M680.883,394.819a28.539,28.539,0,0,0,18.742,9.018c.709.053.59,1.151-.119,1.1a29.685,29.685,0,0,1-19.483-9.424c-.484-.523.38-1.212.86-.692Z" transform="translate(-168.648 -127.607)" fill="#fff"/>
    <path id="Path_21" data-name="Path 21" d="M741.094,388.191a8.382,8.382,0,0,0,2.058,7.682c.49.516-.374,1.205-.861.692a9.392,9.392,0,0,1-2.3-8.493.571.571,0,0,1,.609-.49A.555.555,0,0,1,741.094,388.191Z" transform="translate(-168.648 -127.607)" fill="#fff"/>
    <path id="Path_22" data-name="Path 22" d="M219.922,754.743c-1.45,5.44-5.26,9.97-9.86,13.27-.75.54-1.52,1.04-2.3,1.51-.24.14-.48.29-.73.42q-.405.24-.81.45h-21.63c-.39-.79-.77-1.59-1.15-2.38-9.27-19.48-15.78-40.5-14.67-61.91a79.254,79.254,0,0,1,5.17-24.25c5.94-15.47,16.78-28.86,31.69-35.6.37-.17.76-.34,1.14-.5-.12.43-.24.85-.36,1.28a110.784,110.784,0,0,0-3.38,17.59c-.06.46-.11.92-.15,1.39a116.053,116.053,0,0,0,3.72,42.69c.01.03.02.07.03.1q1.275,4.605,2.96,9.07c.88,2.35,1.83,4.67,2.87,6.95C216.8,734.393,222.622,744.593,219.922,754.743Z" transform="translate(-168.648 -127.607)" fill="#e6e6e6"/>
    <path id="Path_23" data-name="Path 23" d="M207.042,646.2c-.21.28-.42.55-.63.83a98.129,98.129,0,0,0-11.12,18.76c-.16.33-.31.66-.44,1a97.814,97.814,0,0,0-7.82,29.24,1.487,1.487,0,0,0-.02.21c-.25,2.36-.4,4.74-.46,7.12a42.48,42.48,0,0,0,1.43,13.24,23.769,23.769,0,0,0,5.46,9.42c.25.27.5.54.77.8.2.21.42.42.63.62,2.02,1.93,4.23,3.72,6.13,5.79a21.429,21.429,0,0,1,2.35,3,14.9,14.9,0,0,1,1.6,12.1c-1.36,5.06-4.47,9.33-7.65,13.4-1.59,2.04-3.23,4.1-4.65,6.28-.52.78-1,1.57-1.44,2.38h-1.26c.42-.81.88-1.6,1.38-2.38,3.65-5.75,8.84-10.69,11.53-17.02,1.82-4.27,2.37-9.11.07-13.3a17.68,17.68,0,0,0-2.43-3.38c-1.83-2.07-4.02-3.84-6.01-5.71-.5-.47-.99-.95-1.46-1.45a24.965,24.965,0,0,1-5.64-8.9,39.23,39.23,0,0,1-1.94-13.13c0-2.84.15-5.7.43-8.54.03-.36.07-.73.11-1.1a100.767,100.767,0,0,1,19.67-49.23c.2-.28.41-.55.62-.82C206.682,644.873,207.472,645.653,207.042,646.2Z" transform="translate(-168.648 -127.607)" fill="#fff"/>
    <path id="Path_24" data-name="Path 24" d="M186.365,696.678a14.807,14.807,0,0,1-12.354-14.663.553.553,0,0,1,1.1-.024,13.711,13.711,0,0,0,11.52,13.616c.7.114.427,1.185-.27,1.071Z" transform="translate(-168.648 -127.607)" fill="#fff"/>
    <path id="Path_25" data-name="Path 25" d="M193.164,726.224A28.539,28.539,0,0,0,204.7,708.916c.151-.7,1.222-.424,1.071.27a29.685,29.685,0,0,1-12.038,17.986c-.585.406-1.148-.544-.566-.948Z" transform="translate(-168.648 -127.607)" fill="#fff"/>
    <path id="Path_26" data-name="Path 26" d="M194.961,665.676a8.382,8.382,0,0,0,7.893-.972c.579-.413,1.142.538.566.948a9.392,9.392,0,0,1-8.73,1.094.571.571,0,0,1-.4-.671.555.555,0,0,1,.671-.4Z" transform="translate(-168.648 -127.607)" fill="#fff"/>
    <path id="Path_27" data-name="Path 27" d="M282.062,684.873c-.35.27-.71.54-1.06.82a110.367,110.367,0,0,0-13.29,12c-.32.33-.64.67-.95,1.01l-.01.01a116.348,116.348,0,0,0-22.66,36.14l-.03.09c-.01.03-.02.05-.03.08a114.44,114.44,0,0,0-5.03,16.42c-1.22,5.46-2.22,11.31-4.13,16.57-.29.81-.61,1.61-.95,2.38h-44.46c.15-.79.31-1.59.47-2.38a160.3,160.3,0,0,1,10.54-33.7c.16-.36.32-.72.5-1.08a108.309,108.309,0,0,1,8.61-15.35.01.01,0,0,1,0-.007.01.01,0,0,1,.007,0,94.936,94.936,0,0,1,5.8-7.69,79.12,79.12,0,0,1,18.72-16.24c.04-.03.09-.05.13-.08,14.04-8.71,30.68-12.86,46.59-9.27h.01C281.252,684.683,281.652,684.773,282.062,684.873Z" transform="translate(-168.648 -127.607)" fill="#e6e6e6"/>
    <path id="Path_28" data-name="Path 28" d="M282.012,685.4c-.34.09-.68.19-1.01.29a98.59,98.59,0,0,0-20.17,8.27c-.32.17-.64.35-.96.53a98.255,98.255,0,0,0-23.79,18.59.035.035,0,0,0-.01.02c-.08.08-.17.17-.24.25-1.6,1.72-3.14,3.51-4.6,5.35a42.768,42.768,0,0,0-6.82,11.43,23.673,23.673,0,0,0-1.31,10.81c.03.37.08.73.13,1.1.04.29.08.58.13.88.66,4.01,1.8,8.03,1.48,12.12a14.909,14.909,0,0,1-6.01,10.63,23.8,23.8,0,0,1-3.68,2.34,36.85,36.85,0,0,1-5.77,2.38h-3.93l1.58-.45a48.217,48.217,0,0,0,5.53-1.93,26.907,26.907,0,0,0,3-1.48c4.02-2.31,7.37-5.85,8.07-10.58.61-4.14-.57-8.28-1.27-12.33-.12-.7-.23-1.39-.29-2.08a24.439,24.439,0,0,1,.85-10.46,39.062,39.062,0,0,1,6.36-11.66,83.34,83.34,0,0,1,5.48-6.55q.36-.4.75-.81a100.9,100.9,0,0,1,24.21-18.73h.01a99.287,99.287,0,0,1,21.1-8.74h.01c.33-.1.67-.2,1-.29C282.532,684.123,282.692,685.213,282.012,685.4Z" transform="translate(-168.648 -127.607)" fill="#fff"/>
    <path id="Path_29" data-name="Path 29" d="M235.116,713.252a14.807,14.807,0,0,1-1.036-19.146c.432-.564,1.329.081.9.646a13.711,13.711,0,0,0,1,17.808c.491.514-.372,1.2-.861.693Z" transform="translate(-168.648 -127.607)" fill="#fff"/>
    <path id="Path_30" data-name="Path 30" d="M222.755,740.937a28.54,28.54,0,0,0,19.629-6.876c.539-.464,1.231.4.692.861a29.685,29.685,0,0,1-20.441,7.113c-.712-.028-.589-1.126.119-1.1Z" transform="translate(-168.648 -127.607)" fill="#fff"/>
    <path id="Path_31" data-name="Path 31" d="M260.644,693.674a8.381,8.381,0,0,0,6.888,3.977c.712.019.588,1.117-.119,1.1a9.392,9.392,0,0,1-7.629-4.382.571.571,0,0,1,.084-.776A.555.555,0,0,1,260.644,693.674Z" transform="translate(-168.648 -127.607)" fill="#fff"/>
    <path id="Path_32" data-name="Path 32" d="M625.031,300.737a11.6,11.6,0,0,1-17.767.838l-37.8,16.44,3.682-21.1,35.331-12.377a11.662,11.662,0,0,1,16.554,16.2Z" transform="translate(-168.648 -127.607)" fill="#ffb8b8"/>
    <path id="Path_33" data-name="Path 33" d="M599.806,307.325l-87.8,39.108-.188-.067L411.753,310.707a32.96,32.96,0,0,1-14.782-42.756h0a32.924,32.924,0,0,1,46.987-14.637l74.469,44.859,72.211-9.359Z" transform="translate(-168.648 -127.607)" fill="#e6e6e6"/>
    <path id="Path_34" data-name="Path 34" d="M1031.35,771.2a1.186,1.186,0,0,1-1.19,1.19H169.87a1.19,1.19,0,0,1,0-2.38h860.29a1.186,1.186,0,0,1,1.19,1.19Z" transform="translate(-168.648 -127.607)" fill="#ccc"/>
    <path id="Path_35" data-name="Path 35" d="M481.992,424.4l-88.506-14.157a16.893,16.893,0,0,1-9.956-23.646l4.014-8.028-1.559-84.347a62.482,62.482,0,0,1,30.337-54.654l8.631-5.161,4.362-11.077,40.22.981.117,14.527,14.4,22.968v.1l-.9,125.014-3.97,12.9,6,15.006Z" transform="translate(-168.648 -127.607)" fill="#e6e6e6"/>
    <circle id="Ellipse_1" data-name="Ellipse 1" cx="36.544" cy="36.544" r="36.544" transform="translate(247.915 8.866)" fill="#ffb8b8"/>
    <path id="Path_36" data-name="Path 36" d="M415.054,180.984c-1.09-4.592-.59-11.053.026-15.677,1.615-12.121,8.346-23.645,18.573-30.471a13.379,13.379,0,0,1,6.665-2.648c2.419-.1,5.042,1.194,5.785,3.5a11.992,11.992,0,0,1,6.766-6.709,21.135,21.135,0,0,1,9.631-1.3,35.2,35.2,0,0,1,29.363,20.99c.976,2.319,3.7-6.246,4.939-4.055a9.741,9.741,0,0,0,5.524,4.853c2.423.676,3.408,10.66,4.361,8.332a11.1,11.1,0,0,1-10.611,15.475c-2.466-.092-4.825-1-7.262-1.39-8.715-1.4-17.96,4.923-19.823,13.551a23.986,23.986,0,0,0-3.156-7.021,8.119,8.119,0,0,0-6.513-3.579c-2.48.093-4.659,1.714-6.268,3.6s-2.817,4.093-4.438,5.972c-4.755,5.513-11.187,18.37-17.965,17.432C425.3,201.1,416.542,187.253,415.054,180.984Z" transform="translate(-168.648 -127.607)" fill="#2f2e41"/>
    <path id="Path_37" data-name="Path 37" d="M674.012,342.148a7.133,7.133,0,0,0-4.807-7.854l-98.413-32.777a7.132,7.132,0,0,0-2.933-.337l-24.667,2.333-14.154,1.343-26.119,2.468a7.155,7.155,0,0,0-6.384,5.99l-13.261,82.838a7.186,7.186,0,0,0,4.484,7.8l99.44,38.384a6.947,6.947,0,0,0,1.446.388,7.136,7.136,0,0,0,2.176.016l64.255-9.523a7.12,7.12,0,0,0,6.023-6Z" transform="translate(-168.648 -127.607)" fill="#fff"/>
    <path id="Path_38" data-name="Path 38" d="M490.013,398.11l99.44,38.382a.9.9,0,0,0,.457.054l64.247-9.522a.883.883,0,0,0,.755-.752l12.92-85.067a.9.9,0,0,0-.6-.982l-.662-.224-97.758-32.546a.677.677,0,0,0-.137-.033.886.886,0,0,0-.23-.012L508.281,313.1l-4.774.448a.9.9,0,0,0-.795.748l-13.259,82.834a.9.9,0,0,0,.56.978Z" transform="translate(-168.648 -127.607)" fill="#00ffc1"/>
    <path id="Path_39" data-name="Path 39" d="M508.282,313.1l60.164-5.693a.886.886,0,0,1,.23.012.678.678,0,0,1,.137.033L666.571,340l-25.787,2.73-9.65,1.017-27.46,2.9a1.94,1.94,0,0,1-.241,0c-.049-.015-.1-.029-.156-.045Z" transform="translate(-168.648 -127.607)" fill="#2f2e41"/>
    <path id="Path_40" data-name="Path 40" d="M487.758,403.952l99.44,38.382a6.724,6.724,0,0,0,1.451.38,7.223,7.223,0,0,0,2.177.027l64.247-9.522a7.135,7.135,0,0,0,6.028-6l12.91-85.068a7.19,7.19,0,0,0-.418-3.717c-.065-.157-.131-.314-.207-.462a6.99,6.99,0,0,0-2.264-2.7,7.137,7.137,0,0,0-1.916-.977l-.117-.041L570.8,301.516a8.954,8.954,0,0,0-1.227-.3,7.086,7.086,0,0,0-1.715-.033l-24.663,2.325-14.153,1.35-26.124,2.467a7.092,7.092,0,0,0-3.019,1,1.331,1.331,0,0,0-.2.121,1.191,1.191,0,0,0-.13.1,7.148,7.148,0,0,0-3.027,4.764l-13.27,82.844a7.194,7.194,0,0,0,4.489,7.8ZM498.3,313.6a5.3,5.3,0,0,1,1.27-2.671,4.651,4.651,0,0,1,.676-.659,5.317,5.317,0,0,1,2.324-1.084,4.055,4.055,0,0,1,.509-.072l43.985-4.155,20.965-1.995c.142-.017.273-.014.4-.022a5,5,0,0,1,.948.07,4.142,4.142,0,0,1,.845.2l98.408,32.779.223.082a5.358,5.358,0,0,1,3.394,5.8l-12.921,85.077a5.349,5.349,0,0,1-4.509,4.5l-64.257,9.521a5.414,5.414,0,0,1-2.723-.31L488.4,402.285a5.4,5.4,0,0,1-3.359-5.846Z" transform="translate(-168.648 -127.607)" fill="#3f3d56"/>
    <path id="Path_41" data-name="Path 41" d="M499.352,308.994a.877.877,0,0,1,.268-.386,1.048,1.048,0,0,1,.129-.088c.042-.016.084-.042.126-.058a.874.874,0,0,1,.624-.011l2.07.73L603.685,344.85l23.665-2.5,13.243-1.4,28.029-2.967,2.506-.263.487-.054a.9.9,0,0,1,.952.654.74.74,0,0,1,.026.143.893.893,0,0,1-.55.922.99.99,0,0,1-.247.067l-3.409.357-27.6,2.918-9.65,1.017-27.46,2.9a1.939,1.939,0,0,1-.241,0c-.049-.015-.1-.029-.156-.045L500.245,310.265l-.35-.124a.67.67,0,0,1-.219-.121A.91.91,0,0,1,499.352,308.994Z" transform="translate(-168.648 -127.607)" fill="#3f3d56"/>
    <path id="Path_42" data-name="Path 42" d="M588.919,442.975a.894.894,0,0,1-.743-1.016l14.517-96.334a.894.894,0,0,1,1.017-.751h.008a.894.894,0,0,1,.742,1.016l-14.517,96.334a.894.894,0,0,1-1.017.751Z" transform="translate(-168.648 -127.607)" fill="#3f3d56"/>
    <path id="Path_43" data-name="Path 43" d="M625.716,436.863l-9.655,1.019,11.293-95.535s12.895-2.335,13.24-1.4C640.806,341.508,625.808,436.251,625.716,436.863Z" transform="translate(-168.648 -127.607)" fill="#3f3d56"/>
    <path id="Path_44" data-name="Path 44" d="M331.25,182.533l-.26,43.567,77.126,29.388,27.7-37.2Z" fill="#3f3d56"/>
    <path id="Path_45" data-name="Path 45" d="M671.131,337.725a5.3,5.3,0,0,0-2.5-1.737l-98.406-32.778a5.108,5.108,0,0,0-.848-.207,5.007,5.007,0,0,0-.951-.071l.16-1,.985-.713L592.943,284.3l78.04,23.917.135,27.052Z" transform="translate(-168.648 -127.607)" fill="#3f3d56"/>
    <path id="Path_46" data-name="Path 46" d="M503.829,380.08a1.512,1.512,0,0,1,.326.068l30.194,9.917a1.5,1.5,0,1,1-.936,2.851L503.219,383a1.5,1.5,0,0,1,.61-2.919Z" transform="translate(-168.648 -127.607)" fill="#fff"/>
    <circle id="Ellipse_2" data-name="Ellipse 2" cx="12" cy="12" r="12" transform="translate(445.003 411.236)" fill="#f2f2f2"/>
    <circle id="Ellipse_3" data-name="Ellipse 3" cx="12" cy="12" r="12" transform="translate(139.003 455.236)" fill="#f2f2f2"/>
    <circle id="Ellipse_4" data-name="Ellipse 4" cx="12" cy="12" r="12" transform="translate(389.003 58.236)" fill="#f2f2f2"/>
    <path id="Path_47" data-name="Path 47" d="M589.34,397.729a11.6,11.6,0,0,1-15.907-7.958l-41.012-4.143,13.53-16.606,36.871,6.481a11.662,11.662,0,0,1,6.518,22.226Z" transform="translate(-168.648 -127.607)" fill="#ffb8b8"/>
    <path id="Path_48" data-name="Path 48" d="M564.115,391.141l-95.708-8.818-.131-.151-69.85-80.037a32.96,32.96,0,0,1,8.013-44.523h0a32.924,32.924,0,0,1,48.144,10.209L497.6,343.365l67.565,27.147Z" transform="translate(-168.648 -127.607)" fill="#e6e6e6"/>
    <path id="Path_49" data-name="Path 49" d="M804.339,237.224c-2.377-17.434-5.358-36.152-17.654-48.737a41.35,41.35,0,0,0-59.744.618c-8.951,9.549-12.9,22.957-13.265,36.04s2.552,26.021,5.784,38.7a119.29,119.29,0,0,0,49.786-9.8c3.926-1.7,7.789-3.631,11.937-4.686s7.1,1.6,10.963,3.453l2.118-4.055c1.734,3.227,7.1,2.27,9.05-.832S804.833,240.853,804.339,237.224Z" transform="translate(-168.648 -127.607)" fill="#2f2e41"/>
    <path id="Path_50" data-name="Path 50" d="M736.532,334.532l-69.876,1.494a11.055,11.055,0,1,0-4.94,15.574c9.268.527,81.772,10.817,86.1,4.185,4.39-6.731,27.824-30.486,27.824-30.486l-18.013-25.644Z" transform="translate(-168.648 -127.607)" fill="#9e616a"/>
    <circle id="Ellipse_5" data-name="Ellipse 5" cx="32.83" cy="32.83" r="32.83" transform="translate(552.081 61.205)" fill="#9e616a"/>
    <path id="Path_51" data-name="Path 51" d="M599.361,299.184" transform="translate(-168.648 -127.607)" fill="#6c63ff"/>
    <path id="Path_52" data-name="Path 52" d="M806.142,284.811c-3.869-7.7-5.749-17.212-14-19.708-5.57-1.686-28.1.84-33.173,3.686-8.444,4.733-.792,13.6-5.773,21.9-5.415,9.023-20.132,27.13-25.547,36.152-3.723,6.2,8.817,24.41,6.8,31.358s-2.11,14.747,1.32,21.117c3.069,5.7-1.371,10.745,1.715,16.437,3.21,5.92,7.148,28.053,4.161,34.088l-2,6C759.5,437.009,776.186,413.3,795.91,410.8c4.9-.62,9.986-1.431,14.023-4.274,5.946-4.189,8.3-11.789,9.766-18.913a159.326,159.326,0,0,0-13.557-102.8Z" transform="translate(-168.648 -127.607)" fill="#3f3d56"/>
    <path id="Path_53" data-name="Path 53" d="M835.9,366.112c-2.764-7.546-7.769-40.537-7.769-40.537l-31.324-.918,15.314,37.772-41.79,58.5s.077.129.218.358a11.052,11.052,0,1,0,9.27,11.745.763.763,0,0,0,.958-.164C785.425,427.035,838.662,373.658,835.9,366.112Z" transform="translate(-168.648 -127.607)" fill="#9e616a"/>
    <path id="Path_54" data-name="Path 54" d="M839.083,345.277c-2.875-12.135-5.772-24.336-10.619-35.826s-11.787-22.343-21.547-30.105c-3.12-2.482-6.609-4.672-10.521-5.444s-8.32.092-11.067,2.981c-4.4,4.624-3.073,12.045-1.461,18.218l14.262,54.6,41.188-4.366Z" transform="translate(-168.648 -127.607)" fill="#3f3d56"/>
    <path id="Path_55" data-name="Path 55" d="M793.787,226.2c-1.209-7.942-2.472-15.95-5.312-23.429s-7.419-14.482-13.987-18.719c-10.4-6.707-23.862-5.414-35.521-1.555-9.016,2.984-17.818,7.519-24.176,14.809s-9.93,17.694-7.564,27.227l37.309-8.815-1.361.962a30.038,30.038,0,0,1,16.031,20.893,31.122,31.122,0,0,1-6.566,25.848l25.445-9.026c5.235-1.857,10.838-4,13.943-8.76C795.627,240.107,794.791,232.787,793.787,226.2Z" transform="translate(-168.648 -127.607)" fill="#2f2e41"/>
  </g>
</svg>
