<svg xmlns="http://www.w3.org/2000/svg" width="746.858" height="509.99" viewBox="0 0 746.858 509.99">
  <g id="Group_20" data-name="Group 20" transform="translate(0)">
    <circle id="Ellipse_15" data-name="Ellipse 15" cx="40.824" cy="40.824" r="40.824" transform="translate(180.138)" fill="#ff6584"/>
    <path id="Path_83" data-name="Path 83" d="M481.358,142.731c-19.785-2.674-42.373,8.02-47.5,27.315a17.287,17.287,0,0,0-32.894,1.688l2.265,1.622a298,298,0,0,0,128.6-.581C518.068,158.311,501.143,145.405,481.358,142.731Z" transform="translate(-186.724 -133.229)" fill="#f0f0f0"/>
    <path id="Path_84" data-name="Path 84" d="M375.358,210.731c-19.785-2.674-42.373,8.02-47.5,27.315a17.287,17.287,0,0,0-32.894,1.688l2.265,1.622a298,298,0,0,0,128.6-.581C412.068,226.311,395.143,213.405,375.358,210.731Z" transform="translate(-165.574 -146.797)" fill="#f0f0f0"/>
    <path id="Path_85" data-name="Path 85" d="M539.975,340.33c-6.7-11.076-14.632-22.9-27.06-26.518-14.392-4.188-29.176,4.132-41.716,12.342a1215.591,1215.591,0,0,0-108.182,79.707l.038.43,80.727-5.567c19.442-1.341,39.551-2.866,56.732-12.064,6.52-3.49,12.875-8.152,20.263-8.477,9.179-.4,17.182,6.007,23.471,12.7,37.2,39.617,47.97,100.2,89.709,135.008A1324.623,1324.623,0,0,0,539.975,340.33Z" transform="translate(-179.153 -167.222)" fill="#f2f2f2"/>
    <path id="Path_86" data-name="Path 86" d="M746.393,669.913c-4.114-5.2-5.8-6.412-9.854-11.655q-49.566-64.106-93.175-132.543-29.621-46.479-56.305-94.744-12.7-22.946-24.711-46.251-9.317-18.071-18.219-36.358c-1.7-3.482-3.346-6.98-4.987-10.486-3.866-8.245-7.661-16.53-11.735-24.663-4.643-9.27-10.294-18.987-18.819-25.215a25.676,25.676,0,0,0-13.376-5.147c-6.94-.448-13.344,2.417-19.363,5.547a623.329,623.329,0,0,0-122.569,84.522A638.1,638.1,0,0,0,253.7,483.458c-.88,1.257-2.962.056-2.073-1.209q5.247-7.42,10.7-14.681A641.63,641.63,0,0,1,426.14,314.774q15.934-10.326,32.467-19.684c5.555-3.146,11.135-6.252,16.81-9.165,5.563-2.858,11.471-5.427,17.827-5.523,21.629-.336,32.828,24.158,40.52,40.64q3.626,7.781,7.34,15.513,14.036,29.357,29.153,58.178,9.329,17.795,19.068,35.381,30.306,54.765,64.422,107.312c30.13,46.4,60.02,87.4,94.344,130.79C749.036,669.417,747.347,671.13,746.393,669.913Z" transform="translate(-156.885 -160.778)" fill="#e4e4e4"/>
    <path id="Path_87" data-name="Path 87" d="M327.581,370.991c-1.257-1.4-2.505-2.8-3.77-4.2-9.974-11.031-20.676-21.933-34.372-28.257a49.866,49.866,0,0,0-20.892-4.843c-7.476.024-14.785,1.985-21.693,4.731-3.266,1.3-6.46,2.786-9.606,4.363-3.594,1.809-7.125,3.738-10.638,5.683q-9.894,5.475-19.531,11.431-19.176,11.851-37.15,25.511-9.318,7.084-18.251,14.633-8.309,7.012-16.282,14.4c-1.137,1.049-2.834-.648-1.7-1.7,1.4-1.3,2.818-2.6,4.234-3.882q6-5.427,12.2-10.646,11.3-9.534,23.182-18.331,18.479-13.688,38.23-25.519,9.87-5.908,20.012-11.319c2.041-1.089,4.107-2.153,6.2-3.162a98.768,98.768,0,0,1,14.729-6,52.4,52.4,0,0,1,22.245-2.185,57.916,57.916,0,0,1,20.524,7.1c13.448,7.516,23.878,19.139,34.028,30.482C330.3,370.439,328.614,372.144,327.581,370.991Z" transform="translate(-133.323 -170.944)" fill="#e4e4e4"/>
    <path id="Path_88" data-name="Path 88" d="M719.863,517.069l32.225-11.786,16-5.852c5.211-1.906,10.409-4.076,15.8-5.44a24.92,24.92,0,0,1,14.3.182,32.951,32.951,0,0,1,11.151,6.913,90.513,90.513,0,0,1,9.146,9.768c3.483,4.186,6.915,8.416,10.363,12.632q21.341,26.1,42.4,52.427t41.843,52.877q20.831,26.615,41.376,53.452,2.517,3.288,5.029,6.579c.925,1.212,3.012.017,2.073-1.212q-20.7-27.107-41.681-53.993-21.036-26.95-42.364-53.671t-42.942-53.21q-5.385-6.6-10.788-13.184c-3.038-3.7-6.042-7.446-9.375-10.892-6.117-6.326-13.759-11.917-22.907-12.069-5.379-.089-10.584,1.618-15.581,3.425-5.387,1.949-10.762,3.934-16.142,5.9l-32.45,11.869-8.113,2.967c-1.44.527-.818,2.848.638,2.316Z" transform="translate(-250.062 -202.716)" fill="#e4e4e4"/>
    <path id="Path_89" data-name="Path 89" d="M309.995,356.324c-16.376-8.416-37.347-6.768-52.4,3.747a747.323,747.323,0,0,1,85.022,19.844C331.023,373.118,321.951,362.469,309.995,356.324Z" transform="translate(-158.119 -174.856)" fill="#f2f2f2"/>
    <path id="Path_90" data-name="Path 90" d="M256.612,362.307l-3.153,2.562c1.066-.9,2.175-1.738,3.314-2.534Z" transform="translate(-157.293 -177.121)" fill="#f2f2f2"/>
    <path id="Path_91" data-name="Path 91" d="M826.547,521.456c-3.172-3.861-6.6-7.9-11.346-9.473l-4.43.175a502.457,502.457,0,0,0,133.831,153Z" transform="translate(-268.491 -206.986)" fill="#f2f2f2"/>
    <path id="Path_92" data-name="Path 92" d="M418.268,703.865c1.806-14.523,10.807-28.833,24.657-33.559a67.429,67.429,0,0,0,0,46.295c2.128,5.757,5.095,11.939,3.093,17.741-1.246,3.61-4.293,6.372-7.7,8.1A44.766,44.766,0,0,1,427.4,745.8l-.735.608C420.742,733.024,416.461,718.388,418.268,703.865Z" transform="translate(-190.093 -238.575)" fill="#f0f0f0"/>
    <path id="Path_93" data-name="Path 93" d="M445.178,670.5a57.634,57.634,0,0,0-14.328,32.436,24.82,24.82,0,0,0,.282,7.771,14.234,14.234,0,0,0,3.54,6.6c1.6,1.753,3.431,3.362,4.573,5.472a8.716,8.716,0,0,1,.426,7.115,22.646,22.646,0,0,1-5.018,7.485c-2.246,2.484-4.619,5.028-5.573,8.321-.116.4-.728.2-.613-.2,1.661-5.729,7.223-8.983,9.875-14.143a8.827,8.827,0,0,0,.6-7.745c-1.015-2.223-2.906-3.883-4.537-5.644a15.189,15.189,0,0,1-3.7-6.327,22.944,22.944,0,0,1-.58-7.732,55.912,55.912,0,0,1,4.084-16.992,58.654,58.654,0,0,1,10.547-16.9c.276-.309.7.177.427.484Z" transform="translate(-192.209 -238.498)" fill="#fff"/>
    <path id="Path_94" data-name="Path 94" d="M430.018,703.963a8.647,8.647,0,0,1-6.582-9.058.323.323,0,0,1,.644.032,8.007,8.007,0,0,0,6.14,8.413c.4.1.2.708-.2.612Z" transform="translate(-191.203 -243.424)" fill="#fff"/>
    <path id="Path_95" data-name="Path 95" d="M435.026,725.7a16.666,16.666,0,0,0,7.442-9.6c.117-.4.729-.2.612.2a17.335,17.335,0,0,1-7.765,9.972C434.958,726.491,434.67,725.914,435.026,725.7Z" transform="translate(-193.488 -247.67)" fill="#fff"/>
    <path id="Path_96" data-name="Path 96" d="M439.436,684.114a4.895,4.895,0,0,0,4.638-.235c.355-.217.643.361.29.576a5.485,5.485,0,0,1-5.131.272.333.333,0,0,1-.205-.408A.324.324,0,0,1,439.436,684.114Z" transform="translate(-194.316 -241.274)" fill="#fff"/>
    <path id="Path_97" data-name="Path 97" d="M487.262,702.327c-.218.142-.435.283-.653.43a64.452,64.452,0,0,0-8.242,6.435c-.2.18-.4.365-.6.55a67.954,67.954,0,0,0-14.758,20.2A65.986,65.986,0,0,0,459.4,739.3c-1.334,4.426-2.428,9.331-5.068,12.951a11.327,11.327,0,0,1-.882,1.089h-23.86c-.054-.027-.109-.049-.163-.076l-.953.044c.038-.169.082-.343.12-.512.022-.1.049-.2.071-.294.016-.065.033-.131.044-.19.005-.022.011-.044.016-.06.011-.06.027-.114.038-.169q.359-1.462.74-2.923c0-.005,0-.005.005-.011a97.029,97.029,0,0,1,8.166-21.438c.109-.2.218-.408.338-.61a62.968,62.968,0,0,1,5.656-8.58,55.674,55.674,0,0,1,3.707-4.241,46.3,46.3,0,0,1,11.584-8.677c8.558-4.518,18.465-6.249,27.611-3.49C486.8,702.18,487.029,702.251,487.262,702.327Z" transform="translate(-192.212 -244.656)" fill="#f0f0f0"/>
    <path id="Path_98" data-name="Path 98" d="M487.236,702.928A57.634,57.634,0,0,0,456.268,720.2a24.817,24.817,0,0,0-4.453,6.375,14.234,14.234,0,0,0-1.148,7.4c.219,2.361.715,4.75.356,7.123a8.716,8.716,0,0,1-3.944,5.938,22.647,22.647,0,0,1-8.513,2.955c-3.289.631-6.715,1.234-9.46,3.288-.333.249-.7-.282-.367-.53,4.776-3.574,11.176-2.824,16.4-5.347a8.827,8.827,0,0,0,5.139-5.824c.528-2.386.018-4.85-.224-7.238a15.19,15.19,0,0,1,.853-7.281,22.942,22.942,0,0,1,4.192-6.522,55.917,55.917,0,0,1,13.491-11.109,58.655,58.655,0,0,1,18.6-7.145C487.593,702.2,487.64,702.848,487.236,702.928Z" transform="translate(-192.24 -244.954)" fill="#fff"/>
    <path id="Path_99" data-name="Path 99" d="M465.784,718.087a8.647,8.647,0,0,1,.2-11.2c.275-.311.771.1.5.414a8.007,8.007,0,0,0-.163,10.414C466.579,718.04,466.047,718.405,465.784,718.087Z" transform="translate(-199.266 -245.853)" fill="#fff"/>
    <path id="Path_100" data-name="Path 100" d="M455.736,739.594a16.666,16.666,0,0,0,11.721-3.183c.333-.248.7.283.367.53a17.336,17.336,0,0,1-12.2,3.287C455.208,740.182,455.325,739.548,455.736,739.594Z" transform="translate(-197.578 -251.752)" fill="#fff"/>
    <path id="Path_101" data-name="Path 101" d="M485.726,707.96a4.895,4.895,0,0,0,3.845,2.6c.414.041.3.675-.115.635a5.485,5.485,0,0,1-4.26-2.872.333.333,0,0,1,.081-.449A.324.324,0,0,1,485.726,707.96Z" transform="translate(-203.52 -246.06)" fill="#fff"/>
    <path id="Path_102" data-name="Path 102" d="M633.119,593.57c-11.7-25.887-11.272-58.7,6.891-80.544a130.894,130.894,0,0,0,46.849,76.69c9.351,7.384,20.521,14.622,23.075,26.26,1.59,7.241-.663,14.9-4.559,21.208s-9.325,11.5-14.693,16.611l-.6,1.75C666.723,639.372,644.822,619.456,633.119,593.57Z" transform="translate(-231.464 -207.193)" fill="#f0f0f0"/>
    <path id="Path_103" data-name="Path 103" d="M643.576,513.218a111.88,111.88,0,0,0,9.085,68.232,48.184,48.184,0,0,0,8.331,12.588,27.634,27.634,0,0,0,12.546,7.355c4.418,1.29,9.086,2.1,13.113,4.439a16.92,16.92,0,0,1,7.905,11.357c1.256,5.81.349,11.724-.739,17.477-1.208,6.388-2.564,13-.813,19.424.212.778-1.008,1.062-1.219.285-3.045-11.172,2.875-22.19,2.048-33.423-.386-5.241-2.354-10.4-6.848-13.434-3.93-2.655-8.743-3.492-13.227-4.76a29.488,29.488,0,0,1-12.535-6.735,44.537,44.537,0,0,1-8.784-12.222,108.541,108.541,0,0,1-10.428-32.282,113.862,113.862,0,0,1,.37-38.673c.145-.791,1.34-.416,1.2.37Z" transform="translate(-234.525 -207.071)" fill="#fff"/>
    <path id="Path_104" data-name="Path 104" d="M646.088,588.051a16.785,16.785,0,0,1-20.069-8.345c-.364-.719.735-1.318,1.1-.6a15.543,15.543,0,0,0,18.685,7.725c.766-.25,1.046.971.285,1.219Z" transform="translate(-231.614 -220.313)" fill="#fff"/>
    <path id="Path_105" data-name="Path 105" d="M678.839,617.1a32.353,32.353,0,0,0,2.617-23.432c-.209-.779,1.01-1.063,1.219-.285A33.651,33.651,0,0,1,679.9,617.76C679.525,618.473,678.463,617.808,678.839,617.1Z" transform="translate(-242.152 -223.135)" fill="#fff"/>
    <path id="Path_106" data-name="Path 106" d="M641.666,544.421a9.5,9.5,0,0,0,7.446-5.083c.369-.718,1.43-.052,1.063.661a10.647,10.647,0,0,1-8.225,5.642.647.647,0,0,1-.752-.467.629.629,0,0,1,.467-.752Z" transform="translate(-234.654 -212.382)" fill="#fff"/>
    <path id="Path_107" data-name="Path 107" d="M749.741,513.341c-.217.455-.435.91-.647,1.374a125.133,125.133,0,0,0-7.143,19c-.152.5-.3,1.012-.436,1.517a131.911,131.911,0,0,0-4.007,48.4,128.1,128.1,0,0,0,3.475,19.151c2.268,8.682,5.419,17.914,4.708,26.583a21.978,21.978,0,0,1-.359,2.7L705.8,656.205c-.117.01-.23.029-.348.039l-1.534,1.036c-.107-.318-.212-.651-.319-.969-.063-.184-.117-.374-.18-.559-.039-.125-.078-.25-.121-.36-.013-.041-.026-.083-.034-.116-.042-.11-.07-.217-.107-.318q-.884-2.785-1.732-5.592c-.006-.009-.006-.009,0-.023-4.27-14.27-7.386-29.021-8.164-43.777-.023-.444-.052-.9-.058-1.352a122.235,122.235,0,0,1,.689-19.936,108.029,108.029,0,0,1,1.851-10.777,89.864,89.864,0,0,1,10.41-26.1c9.605-16.145,24.267-29.037,42.211-33.719C748.826,513.566,749.277,513.451,749.741,513.341Z" transform="translate(-245.007 -207.256)" fill="#f0f0f0"/>
    <path id="Path_108" data-name="Path 108" d="M752.537,513.744a111.88,111.88,0,0,0-33.826,59.95,48.176,48.176,0,0,0-.927,15.067,27.633,27.633,0,0,0,5.589,13.426c2.751,3.69,5.991,7.145,7.8,11.439a16.919,16.919,0,0,1-.526,13.827c-2.5,5.395-6.78,9.571-11.113,13.51-4.81,4.373-9.876,8.839-12.344,15.02-.3.749-1.444.241-1.145-.507,4.295-10.753,15.656-15.987,21.758-25.453,2.847-4.417,4.38-9.719,2.621-14.849-1.539-4.486-4.878-8.052-7.7-11.764a29.488,29.488,0,0,1-5.954-12.924,44.543,44.543,0,0,1,.344-15.047,108.542,108.542,0,0,1,11.109-32.054,113.863,113.863,0,0,1,23.579-30.655c.591-.544,1.32.475.733,1.016Z" transform="translate(-247.585 -207.103)" fill="#fff"/>
    <path id="Path_109" data-name="Path 109" d="M720.419,574.749a16.785,16.785,0,0,1-11-18.747c.142-.793,1.381-.61,1.239.184A15.543,15.543,0,0,0,720.926,573.6c.762.262.251,1.406-.507,1.145Z" transform="translate(-248.218 -215.667)" fill="#fff"/>
    <path id="Path_110" data-name="Path 110" d="M725.562,618.055a32.352,32.352,0,0,0,16.2-17.133c.3-.748,1.446-.24,1.145.507a33.652,33.652,0,0,1-16.891,17.795c-.731.342-1.178-.828-.451-1.168Z" transform="translate(-251.416 -224.658)" fill="#fff"/>
    <path id="Path_111" data-name="Path 111" d="M742.412,538.315a9.5,9.5,0,0,0,9.006.424c.727-.351,1.173.819.451,1.168a10.648,10.648,0,0,1-9.964-.447.647.647,0,0,1-.319-.826A.629.629,0,0,1,742.412,538.315Z" transform="translate(-254.678 -212.229)" fill="#fff"/>
    <path id="Path_112" data-name="Path 112" d="M723.944,511.717l44.461-33.756,21.671,21.672L717.646,549.2Z" transform="translate(-143.189 -95.365)" fill="#3f3d56"/>
    <path id="Path_113" data-name="Path 113" d="M769.123,699.55H617.031l5.334-17.284h0c33.061-11.968,14.491-37.693,45.939-53.418,76.921-38.461,106.7-153.232,95.437-198.6l50.408-2.131S883.764,625.81,769.123,699.55Z" transform="translate(-229.835 -190.252)" fill="#3f3d56"/>
    <path id="Path_114" data-name="Path 114" d="M950.745,641.2a25.564,25.564,0,0,1-33.034.618l-.1-.081,0-.127a24.489,24.489,0,0,0-.982-6.251,17.494,17.494,0,0,1-.635,4.327l-.127.475-.342-.353c-.295-.3-.581-.613-.849-.918a25.779,25.779,0,0,1-3.927-5.946A75.152,75.152,0,0,0,889.9,606.952a36.465,36.465,0,0,1-4.375-4.209A36.064,36.064,0,0,1,930.808,547.8l.225.132-.117.233A18.787,18.787,0,0,1,927.565,553a24.5,24.5,0,0,0,5.162-3.729l.164-.154.186.128a36.215,36.215,0,0,1,6.6,5.871l.21.241a16.1,16.1,0,0,0,11.922,5.5A25.556,25.556,0,0,1,976.55,590.8l-.029.169-.164.05a21.931,21.931,0,0,1-8.932,1.114,24.91,24.91,0,0,0,7.956,1.993l.354.028-.113.337a25.541,25.541,0,0,1-7.371,11.113l-.1.085-.1.09a25.1,25.1,0,0,0-8.67,17.419A25.751,25.751,0,0,1,950.745,641.2Z" transform="translate(-281.615 -213.148)" fill="#6c63ff"/>
    <path id="Path_115" data-name="Path 115" d="M974.98,652.422a25.442,25.442,0,0,1-.288,2.748,25.835,25.835,0,0,0,4.154-12.8c.034-.7.107-1.393.205-2.085A24.246,24.246,0,0,0,974.98,652.422Z" transform="translate(-301.198 -232.585)" opacity="0.15"/>
    <path id="Path_116" data-name="Path 116" d="M985.1,616.377a24.876,24.876,0,0,0,6.357,1.8,25.6,25.6,0,0,0,2.329-2.842A21.675,21.675,0,0,1,985.1,616.377Z" transform="translate(-303.274 -227.606)" opacity="0.15"/>
    <path id="Path_117" data-name="Path 117" d="M996.76,606.152a25.714,25.714,0,0,1-.182,6.632,25.424,25.424,0,0,0,2.877-5.932l.112-.337-.354-.028a24.731,24.731,0,0,1-2.453-.334Z" transform="translate(-305.564 -225.775)" opacity="0.15"/>
    <path id="Path_118" data-name="Path 118" d="M970.632,569.2a25.616,25.616,0,0,0-18.76-8.674,16.1,16.1,0,0,1-11.922-5.5l-.21-.241a36.217,36.217,0,0,0-6.6-5.87l-.186-.128-.164.154a24.5,24.5,0,0,1-5.162,3.73,18.789,18.789,0,0,0,3.352-4.835l.117-.233-.225-.132a36.037,36.037,0,0,0-53.392,23.33,36.044,36.044,0,0,1,49.526-13.278l.225.132-.117.233a18.791,18.791,0,0,1-3.352,4.835,24.5,24.5,0,0,0,5.162-3.729l.164-.154.186.128a36.215,36.215,0,0,1,6.595,5.871l.21.241a16.1,16.1,0,0,0,11.922,5.5,25.561,25.561,0,0,1,24.72,21.007,30.981,30.981,0,0,0,3.7-.9l.164-.05.029-.169a25.458,25.458,0,0,0-5.987-21.267Z" transform="translate(-281.802 -213.081)" opacity="0.15"/>
    <path id="Path_119" data-name="Path 119" d="M974.387,394.441a82.312,82.312,0,0,1-68.747,81.181l-.414.068-.315-.262a78.871,78.871,0,0,0-17.2-10.92,56.348,56.348,0,0,1,9.114,10.738l.876,1.317-1.579.076c-1.363.066-2.718.1-4.025.1a83.007,83.007,0,0,1-22.725-3.151c-33.582-9.554-69.644-11.188-107.183-4.856a117.479,117.479,0,0,1-19.479,1.625A116.123,116.123,0,0,1,706.174,244.02l.8-.264.315.779a60.489,60.489,0,0,1,4.562,18.386,78.884,78.884,0,0,0,1.961-20.412l-.025-.724.7-.176a116.617,116.617,0,0,1,28.218-3.461l1.03,0a51.839,51.839,0,0,0,38.653-17.125,82.288,82.288,0,0,1,125.014,3.84l.347.429-.229.5c-4.808,10.6-10.047,18.318-16.3,23.964a80.222,80.222,0,0,0,21.736-15l.822-.8.577.99a82.233,82.233,0,0,1,11.195,41.454v.415c0,.147,0,.294,0,.441,0,22.281,8.616,43.4,23.679,58A82.917,82.917,0,0,1,974.387,394.441Z" transform="translate(-231.749 -143.563)" fill="#6c63ff"/>
    <g id="Group_18" data-name="Group 18" transform="translate(406.022 56.395)" opacity="0.15">
      <path id="Path_120" data-name="Path 120" d="M932.8,201.414a58.134,58.134,0,0,1-10.368,12.72,80.015,80.015,0,0,0,16.2-10.126Q935.768,202.6,932.8,201.414Z" transform="translate(-696.792 -201.414)"/>
      <path id="Path_121" data-name="Path 121" d="M989.045,308.122a82.62,82.62,0,0,1,11.833,14.416,84.117,84.117,0,0,1-7.7-35.338c0-.147,0-.294,0-.441v-.415a82.234,82.234,0,0,0-11.195-41.454l-.577-.99-.822.8a80.409,80.409,0,0,1-15.01,11.429C966.979,276.163,975.344,294.837,989.045,308.122Z" transform="translate(-705.401 -209.891)"/>
      <path id="Path_122" data-name="Path 122" d="M964.014,243.4v.415c0,.147,0,.294,0,.441,0,.808.015,1.614.037,2.418a85.707,85.707,0,0,0,9.748-16.8l.229-.5-.346-.429a82.964,82.964,0,0,0-14.888-14.4A82.425,82.425,0,0,1,964.014,243.4Z" transform="translate(-704.047 -204.033)"/>
      <path id="Path_123" data-name="Path 123" d="M952.006,367.276a74.406,74.406,0,0,1-10.489-12.761A82.213,82.213,0,0,1,880.6,470.543l-.407.066-.315-.262a78.87,78.87,0,0,0-17.2-10.92,56.34,56.34,0,0,1,9.11,10.738l.876,1.317-1.579.076c-1.363.066-2.718.1-4.025.1a83.009,83.009,0,0,1-22.725-3.151c-33.582-9.554-69.644-11.188-107.183-4.856a117.485,117.485,0,0,1-19.48,1.625,115.592,115.592,0,0,1-77.123-29.41,116.227,116.227,0,0,0,104.936,66.494,117.5,117.5,0,0,0,19.486-1.626c37.533-6.331,73.6-4.7,107.177,4.857a83.009,83.009,0,0,0,22.725,3.151c1.307,0,2.662-.033,4.025-.1l1.579-.076-.876-1.317a56.344,56.344,0,0,0-9.11-10.738,78.868,78.868,0,0,1,17.2,10.92l.314.262.407-.066a82.253,82.253,0,0,0,43.592-140.35Z" transform="translate(-640.549 -231.962)"/>
    </g>
    <path id="Path_124" data-name="Path 124" d="M544.472,413.869c-4.43-4.773-6.727-11.935-4.372-18.006a30,30,0,0,0,15.77,13.253c2.57.923,5.525,1.682,6.928,4.025a6.707,6.707,0,0,1,.555,4.941,19.916,19.916,0,0,1-1.983,4.681l0,.424C555.112,421.374,548.9,418.641,544.472,413.869Z" transform="translate(-214.298 -183.816)" fill="#6c63ff"/>
    <path id="Path_125" data-name="Path 125" d="M819.343,586.822c-4.43-4.773-6.727-11.935-4.372-18.006a30,30,0,0,0,15.77,13.252c2.57.923,5.525,1.682,6.928,4.025a6.706,6.706,0,0,1,.555,4.941,19.919,19.919,0,0,1-1.983,4.681l0,.424C829.984,594.327,823.773,591.594,819.343,586.822Z" transform="translate(-269.142 -218.325)" fill="#6c63ff"/>
    <path id="Path_126" data-name="Path 126" d="M949.669,698.318c-3.094-5.73-3.527-13.239.273-18.527a30,30,0,0,0,11.952,16.777c2.257,1.537,4.928,3.011,5.7,5.631a6.707,6.707,0,0,1-.7,4.923,19.92,19.92,0,0,1-3.091,4.035l-.109.41C958.094,708.247,952.764,704.048,949.669,698.318Z" transform="translate(-295.716 -240.467)" fill="#6c63ff"/>
    <path id="Path_127" data-name="Path 127" d="M1043.1,560.11c-3.094-5.73-3.526-13.239.273-18.527a30,30,0,0,0,11.952,16.777c2.258,1.537,4.928,3.011,5.7,5.631a6.707,6.707,0,0,1-.7,4.923,19.917,19.917,0,0,1-3.091,4.035l-.109.41C1051.521,570.039,1046.189,565.84,1043.1,560.11Z" transform="translate(-314.358 -212.891)" fill="#6c63ff"/>
    <path id="Path_128" data-name="Path 128" d="M432.355,613.386c-3.095-5.73-3.526-13.239.273-18.527a30,30,0,0,0,11.952,16.777c2.257,1.537,4.928,3.011,5.7,5.631a6.706,6.706,0,0,1-.7,4.923,19.915,19.915,0,0,1-3.091,4.035l-.11.41C440.779,623.315,435.449,619.116,432.355,613.386Z" transform="translate(-192.499 -223.521)" fill="#e6e6e6"/>
    <path id="Path_129" data-name="Path 129" d="M781.9,674.1c2.688-21.611,16.081-42.9,36.69-49.936a100.335,100.335,0,0,0,.005,68.887c3.167,8.566,7.581,17.765,4.6,26.4-1.853,5.372-6.388,9.482-11.456,12.052s-10.694,3.795-16.249,5l-1.093.9C785.576,717.492,779.208,695.713,781.9,674.1Z" transform="translate(-262.606 -229.369)" fill="#e6e6e6"/>
    <path id="Path_130" data-name="Path 130" d="M821.938,624.462a85.758,85.758,0,0,0-21.32,48.265,36.932,36.932,0,0,0,.42,11.564,21.181,21.181,0,0,0,5.268,9.824c2.375,2.609,5.105,5,6.8,8.143a12.969,12.969,0,0,1,.634,10.588c-1.5,4.3-4.456,7.809-7.467,11.138-3.342,3.7-6.872,7.482-8.293,12.382-.172.594-1.083.292-.911-.3,2.472-8.525,10.747-13.367,14.694-21.046,1.842-3.583,2.615-7.742.888-11.524-1.51-3.307-4.324-5.778-6.751-8.4a22.6,22.6,0,0,1-5.509-9.414,34.14,34.14,0,0,1-.863-11.5,83.2,83.2,0,0,1,6.077-25.284,87.279,87.279,0,0,1,15.694-25.15c.41-.46,1.043.263.635.72Z" transform="translate(-265.754 -229.255)" fill="#fff"/>
    <path id="Path_131" data-name="Path 131" d="M799.379,674.248a12.866,12.866,0,0,1-9.794-13.478.48.48,0,0,1,.959.048,11.914,11.914,0,0,0,9.136,12.519c.6.143.3,1.053-.3.911Z" transform="translate(-264.257 -236.585)" fill="#fff"/>
    <path id="Path_132" data-name="Path 132" d="M806.832,706.6a24.8,24.8,0,0,0,11.074-14.283c.174-.593,1.086-.291.911.3a25.8,25.8,0,0,1-11.554,14.839c-.532.316-.961-.543-.432-.857Z" transform="translate(-267.657 -242.902)" fill="#fff"/>
    <path id="Path_133" data-name="Path 133" d="M813.394,644.714a7.284,7.284,0,0,0,6.9-.35c.528-.322.956.537.432.857a8.161,8.161,0,0,1-7.635.4.5.5,0,0,1-.305-.606A.482.482,0,0,1,813.394,644.714Z" transform="translate(-268.889 -233.385)" fill="#fff"/>
    <path id="Path_134" data-name="Path 134" d="M884.56,671.814c-.324.211-.648.421-.972.64a95.932,95.932,0,0,0-12.264,9.575c-.3.267-.6.543-.891.818a101.116,101.116,0,0,0-21.96,30.061,98.217,98.217,0,0,0-5.379,13.917c-1.985,6.586-3.613,13.884-7.542,19.271a16.811,16.811,0,0,1-1.312,1.62h-35.5c-.081-.04-.162-.073-.243-.113l-1.418.065c.057-.251.121-.51.178-.762.032-.146.073-.292.105-.437.024-.1.049-.194.065-.284.008-.032.016-.065.024-.089.016-.089.041-.17.057-.251q.535-2.175,1.1-4.35c0-.008,0-.008.008-.016a144.385,144.385,0,0,1,12.151-31.9c.162-.3.324-.607.5-.907a93.7,93.7,0,0,1,8.417-12.766,82.8,82.8,0,0,1,5.516-6.31,68.884,68.884,0,0,1,17.238-12.912c12.734-6.723,27.477-9.3,41.086-5.192C883.871,671.6,884.211,671.7,884.56,671.814Z" transform="translate(-265.758 -238.417)" fill="#e6e6e6"/>
    <path id="Path_135" data-name="Path 135" d="M884.521,672.709a85.759,85.759,0,0,0-46.081,25.7,36.931,36.931,0,0,0-6.627,9.486,21.181,21.181,0,0,0-1.709,11.016c.325,3.513,1.065,7.068.53,10.6a12.969,12.969,0,0,1-5.869,8.835c-3.788,2.532-8.26,3.552-12.667,4.4-4.894.939-9.992,1.836-14.076,4.893-.495.37-1.041-.419-.547-.789,7.106-5.318,16.629-4.2,24.4-7.957,3.628-1.752,6.749-4.608,7.648-8.667.786-3.55.027-7.216-.333-10.77a22.6,22.6,0,0,1,1.27-10.834,34.145,34.145,0,0,1,6.238-9.705,83.2,83.2,0,0,1,20.074-16.529,87.283,87.283,0,0,1,27.673-10.632C885.051,671.632,885.121,672.59,884.521,672.709Z" transform="translate(-265.799 -238.861)" fill="#fff"/>
    <path id="Path_136" data-name="Path 136" d="M852.6,695.265a12.867,12.867,0,0,1,.295-16.658c.41-.462,1.147.153.737.616a11.914,11.914,0,0,0-.243,15.5c.394.476-.4,1.02-.789.547Z" transform="translate(-276.255 -240.198)" fill="#fff"/>
    <path id="Path_137" data-name="Path 137" d="M837.649,727.268a24.8,24.8,0,0,0,17.442-4.736c.5-.369,1.042.421.546.789a25.8,25.8,0,0,1-18.159,4.892c-.615-.068-.44-1.012.171-.944Z" transform="translate(-273.743 -248.976)" fill="#fff"/>
    <path id="Path_138" data-name="Path 138" d="M882.274,680.2A7.284,7.284,0,0,0,888,684.071c.616.061.44,1-.172.944a8.162,8.162,0,0,1-6.339-4.274.5.5,0,0,1,.121-.668A.482.482,0,0,1,882.274,680.2Z" transform="translate(-282.584 -240.507)" fill="#fff"/>
    <path id="Path_139" data-name="Path 139" d="M412.667,553.713,383.2,531.34,368.836,545.7l48.005,32.851Z" transform="translate(-73.592 -106.016)" fill="#3f3d56"/>
    <path id="Path_140" data-name="Path 140" d="M580.351,722.366h100.8l-3.536-11.455h0c-21.912-7.932-9.6-24.982-30.447-35.4-50.981-25.49-70.718-101.556-63.252-131.625l-33.409-1.413S504.37,673.494,580.351,722.366Z" transform="translate(-213.793 -213.068)" fill="#3f3d56"/>
    <path id="Path_141" data-name="Path 141" d="M473.693,671.762a16.633,16.633,0,0,0-5.746-11.545l-.068-.06-.064-.056a16.928,16.928,0,0,1-4.885-7.366l-.075-.224.235-.019a16.517,16.517,0,0,0,5.273-1.321,14.535,14.535,0,0,1-5.92-.739l-.109-.033-.019-.112a16.938,16.938,0,0,1,16.4-19.844,10.67,10.67,0,0,0,7.9-3.646l.139-.16a24,24,0,0,1,4.371-3.891l.123-.085.109.1a16.238,16.238,0,0,0,3.421,2.472,12.45,12.45,0,0,1-2.221-3.2l-.078-.155.149-.088a23.9,23.9,0,0,1,30.015,36.415,24.189,24.189,0,0,1-2.9,2.79,49.809,49.809,0,0,0-13.82,17.226,17.085,17.085,0,0,1-2.6,3.941c-.178.2-.367.407-.563.609l-.226.234-.084-.315a11.6,11.6,0,0,1-.421-2.868,16.232,16.232,0,0,0-.651,4.143l0,.084-.066.054a16.93,16.93,0,0,1-27.618-12.342Z" transform="translate(-198.915 -228.243)" fill="#e6e6e6"/>
    <path id="Path_142" data-name="Path 142" d="M479.218,691.131a16.874,16.874,0,0,0,.191,1.821,17.124,17.124,0,0,1-2.753-8.483c-.022-.463-.071-.923-.136-1.382A16.07,16.07,0,0,1,479.218,691.131Z" transform="translate(-201.8 -241.125)" opacity="0.15"/>
    <path id="Path_143" data-name="Path 143" d="M471.8,667.242a16.484,16.484,0,0,1-4.213,1.191,16.946,16.946,0,0,1-1.544-1.884A14.367,14.367,0,0,0,471.8,667.242Z" transform="translate(-199.708 -237.826)" opacity="0.15"/>
    <path id="Path_144" data-name="Path 144" d="M465.01,660.465a17.045,17.045,0,0,0,.121,4.4,16.847,16.847,0,0,1-1.907-3.932l-.074-.223.235-.019a16.388,16.388,0,0,0,1.625-.221Z" transform="translate(-199.132 -236.611)" opacity="0.15"/>
    <path id="Path_145" data-name="Path 145" d="M466.379,635.975a16.977,16.977,0,0,1,12.433-5.749,10.67,10.67,0,0,0,7.9-3.646l.139-.16a24.007,24.007,0,0,1,4.371-3.891l.123-.085.109.1a16.236,16.236,0,0,0,3.421,2.472,12.45,12.45,0,0,1-2.221-3.2l-.078-.155.149-.087a23.884,23.884,0,0,1,35.387,15.463,23.889,23.889,0,0,0-32.824-8.8l-.149.087.078.155a12.451,12.451,0,0,0,2.222,3.2,16.236,16.236,0,0,1-3.421-2.472l-.108-.1-.123.085a24,24,0,0,0-4.371,3.891l-.139.16a10.67,10.67,0,0,1-7.9,3.646,16.94,16.94,0,0,0-16.384,13.923,20.528,20.528,0,0,1-2.452-.6l-.109-.033-.019-.112A16.873,16.873,0,0,1,466.379,635.975Z" transform="translate(-198.933 -228.199)" opacity="0.15"/>
    <path id="Path_146" data-name="Path 146" d="M439.556,480.936c9.983-9.68,15.693-23.676,15.693-38.444,0-.1,0-.2,0-.292v-.275a54.5,54.5,0,0,1,7.419-27.474l.382-.656.545.528A53.169,53.169,0,0,0,478,424.263c-4.144-3.742-7.616-8.859-10.8-15.883l-.152-.333.23-.284a54.538,54.538,0,0,1,82.855-2.545,34.357,34.357,0,0,0,25.618,11.349l.682,0a77.313,77.313,0,0,1,18.713,2.3l.455.114-.017.48a52.278,52.278,0,0,0,1.3,13.528A40.091,40.091,0,0,1,599.9,420.8l.209-.516.529.175a76.962,76.962,0,0,1-24.212,150.007,77.881,77.881,0,0,1-12.914-1.078c-24.876-4.2-48.776-3.113-71.033,3.219a55.013,55.013,0,0,1-15.061,2.088c-.867,0-1.764-.022-2.668-.066l-1.047-.05.581-.873a37.345,37.345,0,0,1,6.038-7.117,52.275,52.275,0,0,0-11.4,7.237l-.208.174-.269-.044a54.514,54.514,0,0,1-28.891-93.019Z" transform="translate(-191.096 -182.125)" fill="#e6e6e6"/>
    <g id="Group_19" data-name="Group 19" transform="translate(231.781 209.13)" opacity="0.15">
      <path id="Path_147" data-name="Path 147" d="M505.219,392.22a38.53,38.53,0,0,0,6.872,8.431,53.032,53.032,0,0,1-10.737-6.711Q503.251,393,505.219,392.22Z" transform="translate(-438.536 -392.22)"/>
      <path id="Path_148" data-name="Path 148" d="M464.786,462.942a54.757,54.757,0,0,0-7.843,9.554,55.751,55.751,0,0,0,5.1-23.42c0-.1,0-.2,0-.292v-.275a54.5,54.5,0,0,1,7.419-27.474l.382-.656.545.528a53.291,53.291,0,0,0,9.948,7.575A53.13,53.13,0,0,1,464.786,462.942Z" transform="translate(-429.675 -397.838)"/>
      <path id="Path_149" data-name="Path 149" d="M484.69,420.048v.275c0,.1,0,.2,0,.292,0,.535-.01,1.069-.025,1.6a56.808,56.808,0,0,1-6.461-11.137l-.152-.333.23-.284a54.985,54.985,0,0,1,9.867-9.543A54.624,54.624,0,0,0,484.69,420.048Z" transform="translate(-433.887 -393.956)"/>
      <path id="Path_150" data-name="Path 150" d="M439.556,502.147a49.313,49.313,0,0,0,6.952-8.458,54.488,54.488,0,0,0,40.373,76.9l.27.044.208-.174a52.273,52.273,0,0,1,11.4-7.237,37.341,37.341,0,0,0-6.038,7.117l-.581.873,1.047.05c.9.044,1.8.066,2.668.066a55.016,55.016,0,0,0,15.061-2.088c22.257-6.332,46.157-7.415,71.037-3.219a77.864,77.864,0,0,0,12.91,1.077,76.611,76.611,0,0,0,51.115-19.492,77.031,77.031,0,0,1-69.548,44.07,77.88,77.88,0,0,1-12.914-1.078c-24.876-4.2-48.776-3.113-71.033,3.219a55.021,55.021,0,0,1-15.061,2.088c-.866,0-1.764-.022-2.668-.066l-1.047-.05.581-.873a37.342,37.342,0,0,1,6.038-7.117,52.277,52.277,0,0,0-11.4,7.237l-.208.174-.269-.044a54.514,54.514,0,0,1-28.891-93.019Z" transform="translate(-422.878 -412.466)"/>
    </g>
    <path id="Path_151" data-name="Path 151" d="M172.5,654.344a37.248,37.248,0,0,1-36.736-31.11l-.031-.188.119-.142a35.69,35.69,0,0,0,4.941-7.785,25.491,25.491,0,0,1-4.859,4.123l-.6.4-.034-.715c-.03-.617-.045-1.23-.045-1.821a37.563,37.563,0,0,1,1.426-10.284c4.324-15.2,5.063-31.516,2.2-48.5a53.166,53.166,0,0,1-.735-8.815A52.549,52.549,0,0,1,240.574,532.97l.12.361-.353.143a27.375,27.375,0,0,1-8.32,2.064,35.69,35.69,0,0,0,9.237.887l.328-.011.08.319a52.771,52.771,0,0,1,1.566,12.77l0,.466a23.458,23.458,0,0,0,7.749,17.492,37.237,37.237,0,0,1-1.738,56.572l-.194.157-.228-.1a31.953,31.953,0,0,1-10.844-7.376,36.3,36.3,0,0,0,6.787,9.836l.361.372-.448.261a37.213,37.213,0,0,1-18.759,5.066h-.387a36.567,36.567,0,0,0-26.249,10.715A37.522,37.522,0,0,1,172.5,654.344Z" transform="translate(-133.71 -203.989)" fill="#e4e4e4"/>
    <path id="Path_152" data-name="Path 152" d="M164.817,732.544a.672.672,0,0,1-.665-.577,225.04,225.04,0,0,1-.314-47.183c2.32-24.76,9.77-60.422,32.088-89.712a.672.672,0,1,1,1.069.815c-22.125,29.036-29.515,64.437-31.818,89.022a223.517,223.517,0,0,0,.306,46.868.673.673,0,0,1-.666.767Z" transform="translate(-139.203 -223.511)" fill="#3f3d56"/>
    <path id="Path_153" data-name="Path 153" d="M179.092,639.349a.672.672,0,0,1-.4-1.216,92.637,92.637,0,0,1,20.451-10.41c11.283-4.131,28.441-7.876,46.1-2.254a.672.672,0,1,1-.408,1.281c-17.3-5.506-34.149-1.823-45.235,2.236a91.116,91.116,0,0,0-20.123,10.236A.669.669,0,0,1,179.092,639.349Z" transform="translate(-142.321 -229.06)" fill="#3f3d56"/>
    <path id="Path_154" data-name="Path 154" d="M267.511,596.7a5.5,5.5,0,0,0,3.526-7.666L282.9,550.367l-8.723-1.729-10.846,37.9a5.533,5.533,0,0,0,4.184,10.16Z" transform="translate(-158.696 -214.299)" fill="#ffb6b6"/>
    <path id="Path_155" data-name="Path 155" d="M285.762,536.575a6.355,6.355,0,0,0-3.954-.24v.008a5.672,5.672,0,0,0-1.273.472,5.952,5.952,0,0,0-1.233.808,6.231,6.231,0,0,0-1.825,2.53l-5.779,10.07a2.272,2.272,0,0,0-.176,1.905,2.3,2.3,0,0,0,1.329,1.385L274.1,554l5.932,2.329,2.185.865,1.473.576a2.3,2.3,0,0,0,3.082-1.625l2.61-11.279A6.407,6.407,0,0,0,285.762,536.575Z" transform="translate(-160.871 -211.803)" fill="#3f3d56"/>
    <path id="Path_156" data-name="Path 156" d="M177.492,617.26h6.039l2.874-23.291h-8.912Z" transform="translate(-35.414 -118.512)" fill="#ffb6b6"/>
    <path id="Path_157" data-name="Path 157" d="M306.834,763.315h4.33l.773-4.088,1.98,4.088H325.4a2.582,2.582,0,0,0,1.467-4.706l-9.172-6.334v-4.133l-9.647.576Z" transform="translate(-167.943 -254.105)" fill="#2f2e41"/>
    <path id="Path_158" data-name="Path 158" d="M104.13,603.1l5.193,3.08,14.353-18.567-7.665-4.546Z" transform="translate(-20.777 -116.338)" fill="#ffb6b6"/>
    <path id="Path_159" data-name="Path 159" d="M227.362,745.3l3.725,2.209,2.75-3.122-.383,4.526,9.879,5.858a2.582,2.582,0,0,0,3.662-3.3l-4.658-10.127,2.108-3.555-8.591-4.426Z" transform="translate(-152.086 -251.156)" fill="#2f2e41"/>
    <path id="Path_160" data-name="Path 160" d="M174.642,437.027l2.935,18.706L149.7,456.1l3.669-17.973Z" transform="translate(-29.869 -87.198)" fill="#ffb6b6"/>
    <path id="Path_161" data-name="Path 161" d="M303.386,590.084l7.962,19.31.58,51.638-6.794,49.3h-7.519l-3.081-48.5-7.577-33.186-7.473,34.709-23.237,33.973H244.828l20.992-37.437,2.43-40.781s-1.514-17.3,6.235-27.509l1.886-5.45Z" transform="translate(-155.571 -221.784)" fill="#2f2e41"/>
    <path id="Path_162" data-name="Path 162" d="M310.785,543.061c-.016-.168-.04-.344-.072-.512a15.43,15.43,0,0,0-17.474-12.992,15.754,15.754,0,0,0-9.718,5.435V535c-.128.152-.248.312-.368.472-.216.272-.416.56-.608.849a15.442,15.442,0,0,0-2.562,8.853v.008a15.258,15.258,0,0,0,.5,3.586,57.433,57.433,0,0,1,1.257,6.22c.208,1.329.368,2.634.488,3.906.072.64.128,1.273.176,1.889v.008c.24,3.05.32,5.787.392,7.909.032,1.153.064,2.113.12,2.85a.879.879,0,0,0,.016.144,2.428,2.428,0,0,0,.608,1.329,1.148,1.148,0,0,0,.136.144,2.866,2.866,0,0,0,1.249.656,2.46,2.46,0,0,0,.488.048h.048l4.667-2.177,3.682-1.713,12.5-5.827a2.515,2.515,0,0,0,2.321-1.681v-.008c.016-.064.04-.128.056-.2.672-2.65,1.865-5.491,2.289-10.062.056-.656.1-1.337.128-2.065v-.008a47.2,47.2,0,0,0-.32-7.068Z" transform="translate(-162.585 -210.46)" fill="#3f3d56"/>
    <circle id="Ellipse_16" data-name="Ellipse 16" cx="11.787" cy="11.787" r="11.787" transform="translate(119.06 292.993)" fill="#ffb6b6"/>
    <path id="Path_163" data-name="Path 163" d="M278.73,534.6a9.378,9.378,0,0,0-9.366,9.365v19.411a9.354,9.354,0,0,0,7.629,9.2H277a9.448,9.448,0,0,0,1.729.16H291.7V534.6Z" transform="translate(-160.467 -211.498)" fill="#6c63ff"/>
    <path id="Path_164" data-name="Path 164" d="M281.274,536.987v14.16a1.633,1.633,0,1,0,3.266,0v-14.16Z" transform="translate(-162.843 -211.974)" fill="#3f3d56"/>
    <path id="Path_165" data-name="Path 165" d="M287.385,566.247h-9.494a2.058,2.058,0,0,0-2.057,2.065v5.675a2.063,2.063,0,0,0,2.057,2.065h9.494a2.07,2.07,0,0,0,2.065-2.065v-5.675a2.065,2.065,0,0,0-2.065-2.065Z" transform="translate(-161.758 -217.813)" fill="#3f3d56"/>
    <path id="Path_166" data-name="Path 166" d="M308.223,557.323a18.042,18.042,0,0,0,3.866-11.552c0-8.41-5.01-15.253-11.167-15.253-3.306,0-6.42,1.976-8.545,5.42l.927.572c1.922-3.116,4.7-4.9,7.618-4.9,5.557,0,10.078,6.354,10.078,14.163a16.941,16.941,0,0,1-3.608,10.848Z" transform="translate(-165.058 -210.684)" fill="#6c63ff"/>
    <path id="Path_167" data-name="Path 167" d="M336.394,589.053a5.5,5.5,0,0,0-3.4-7.722l-21.078-34.514-7.078,5.383,21.176,33.248a5.533,5.533,0,0,0,10.38,3.6Z" transform="translate(-167.545 -213.936)" fill="#ffb6b6"/>
    <path id="Path_168" data-name="Path 168" d="M318.135,548.858l-3.562-5-1.905-2.674-1.241-1.745A6.4,6.4,0,0,0,300,545.216l3.7,11.007a2.31,2.31,0,0,0,3.234,1.313l1.193-.608,1.881-.961,1.689-.857h.008l3.13-1.6,1.065-.536,1.409-.721a2.314,2.314,0,0,0,.824-3.394Z" transform="translate(-166.444 -211.766)" fill="#3f3d56"/>
    <path id="Path_169" data-name="Path 169" d="M842.392,767.705H136a.736.736,0,1,1,0-1.472h706.4a.736.736,0,0,1,0,1.472Z" transform="translate(-133.71 -257.715)" fill="#ccc"/>
    <path id="Path_170" data-name="Path 170" d="M602.355,686.386c-3.095-5.73-3.527-13.239.273-18.527a30,30,0,0,0,11.952,16.777c2.258,1.537,4.928,3.011,5.7,5.631a6.707,6.707,0,0,1-.7,4.923,19.917,19.917,0,0,1-3.091,4.036l-.109.41C610.779,696.315,605.449,692.116,602.355,686.386Z" transform="translate(-226.418 -238.087)" fill="#e6e6e6"/>
    <path id="Path_171" data-name="Path 171" d="M365.355,505.386c-3.095-5.73-3.526-13.239.273-18.527a30,30,0,0,0,11.952,16.777c2.257,1.537,4.928,3.011,5.7,5.631a6.707,6.707,0,0,1-.7,4.923,19.919,19.919,0,0,1-3.091,4.036l-.109.41C373.779,515.315,368.449,511.116,365.355,505.386Z" transform="translate(-179.131 -201.972)" fill="#e6e6e6"/>
    <path id="Path_172" data-name="Path 172" d="M284.811,498.2v.008a5.924,5.924,0,0,1-.195,1.519c-.021.087-.046.178-.075.265v0a6.011,6.011,0,0,1-3.706,3.859c-.128.05-.261.091-.393.128a5.365,5.365,0,0,1-.853.174,5.44,5.44,0,0,1-.783.054,5.936,5.936,0,0,1-.613-.029,5.8,5.8,0,0,1-1.4-.319,1.78,1.78,0,0,1-.207-.075,1,1,0,0,1-.1-.041,6.01,6.01,0,0,1-3.1-8.136l0,0a5.89,5.89,0,0,1,1.18-1.656,5.982,5.982,0,0,1,4.231-1.747,2.273,2.273,0,0,1,.236.008,6.027,6.027,0,0,1,4.645,2.505,5.935,5.935,0,0,1,.969,2.136A6.014,6.014,0,0,1,284.811,498.2Z" transform="translate(-161.153 -203.04)" fill="#2f2e41"/>
    <path id="Path_173" data-name="Path 173" d="M270.718,493.331a9.8,9.8,0,0,0-18.566-1.151c-1.29,3.2-.817,6.829-1.589,10.191A14.4,14.4,0,0,1,236.9,513.208l11.685,4.708a7.654,7.654,0,0,0,4.044.819c2.033-.345,3.448-2.286,4.021-4.267s.526-4.085.889-6.115a15.61,15.61,0,0,1,9.066-11.4c1.316-.562,2.778-.986,3.708-2.073s.878-3.137-.47-3.616" transform="translate(-153.989 -201.81)" fill="#2f2e41"/>
    <path id="Path_174" data-name="Path 174" d="M297.859,494.537c-1.585-3.463-5.767-2.759-9.549-2.3a11.752,11.752,0,0,0-8.805,6.534,16.06,16.06,0,0,0-.871,11.148,12.214,12.214,0,0,0,3.856,6.5c2,1.606,11.385,5.4,12.166,2.134-.977,4.267.988,3.6,3.9,6.869,1.507-4.527,2.213-13.056,3.72-17.582l.68-2.044c.478-1.436.957-2.875,1.3-4.349.434-1.851.6-3.974-.549-5.489s-4.047-1.573-4.628.237" transform="translate(-162.194 -202.968)" fill="#2f2e41"/>
    <path id="Path_175" data-name="Path 175" d="M300.307,509.621l-.5-3.207c.342-3.989-.217-10.334,2.4-11.207l1.6,1.6C302.794,497.146,300.867,503.111,300.307,509.621Z" transform="translate(-166.54 -203.638)" fill="#ff6584"/>
  </g>
</svg>
