<svg xmlns="http://www.w3.org/2000/svg" width="983.675" height="502.498" viewBox="0 0 983.675 502.498">
  <g id="Group_1" data-name="Group 1" transform="translate(0 0)">
    <path d="M788.725,641.231l-11.451,18,6.67-23.438c-14.083-14.7-33.58-25.445-33.58-25.445s-24.007,39.456-17.546,63.727,23.146,28.9,40.945,24.166,29.971-17.054,23.509-41.325C795.834,651.517,792.71,646.213,788.725,641.231Z" transform="translate(-108.162 -198.751)" fill="#f2f2f2"/>
    <path id="Path_2" data-name="Path 2" d="M773.574,661.029l.318,1.2c3.631,13.925,4.174,25.4,1.607,34.265-.035.13-.078.255-.113.385l-.6-.177-.574-.177c2.909-9.609,1.611-21.752-1.553-33.9-.1-.392-.2-.791-.309-1.186-1.385-5.13-3.081-10.24-4.928-15.153-.14-.381-.287-.767-.434-1.153-2.471-6.471-5.171-12.563-7.673-17.815-.175-.372-.356-.742-.536-1.107-4.271-8.871-7.891-15.156-8.7-16.544-.1-.171-.153-.264-.165-.286l.52-.31,0-.008.526-.311c.012.022.2.333.536.917,1.258,2.177,4.6,8.1,8.452,16.073.172.36.353.731.528,1.1,2.035,4.259,4.192,9.051,6.243,14.136q.776,1.915,1.485,3.791c.153.384.3.77.44,1.151Q771.641,653.886,773.574,661.029Z" transform="translate(-108.162 -198.751)" fill="#fff"/>
    <path id="Path_3" data-name="Path 3" d="M759.949,625.741c-.383.159-.771.32-1.169.47a33.8,33.8,0,0,1-3.295,1.061,32.889,32.889,0,0,1-14.566.555c-.165.38-.33.76-.5,1.148a34.108,34.108,0,0,0,15.382-.518,34.978,34.978,0,0,0,3.515-1.139c.392-.149.78-.309,1.161-.474a33.821,33.821,0,0,0,8.685-5.375q-.512-.387-1-.761a32.772,32.772,0,0,1-8.211,5.034Z" transform="translate(-108.162 -198.751)" fill="#fff"/>
    <path id="Path_4" data-name="Path 4" d="M768.205,644.77q-.6.2-1.216.362c-.123.039-.253.074-.377.107a33.064,33.064,0,0,1-29.872-6.717c-.144.412-.288.825-.424,1.242a34.292,34.292,0,0,0,30.611,6.66c.166-.044.332-.088.5-.138.413-.116.818-.237,1.222-.363a34.111,34.111,0,0,0,15.92-10.834c-.283-.3-.565-.6-.854-.9a32.836,32.836,0,0,1-15.507,10.578Z" transform="translate(-108.162 -198.751)" fill="#fff"/>
    <path id="Path_5" data-name="Path 5" d="M773.574,661.029c-.405.146-.813.28-1.223.408-.439.136-.88.266-1.325.384a33.153,33.153,0,0,1-36.851-14.873c-.139.551-.279,1.1-.406,1.643a34.367,34.367,0,0,0,37.572,14.415c.444-.118.887-.242,1.319-.383.417-.124.826-.258,1.232-.4a34.267,34.267,0,0,0,19.014-16.485c-.241-.405-.5-.8-.757-1.2A33.046,33.046,0,0,1,773.574,661.029Z" transform="translate(-108.162 -198.751)" fill="#fff"/>
    <path id="Path_6" data-name="Path 6" d="M729.725,231.231l-11.451,18,6.67-23.438c-14.083-14.7-33.58-25.445-33.58-25.445s-24.007,39.456-17.546,63.727,23.146,28.9,40.945,24.165,29.971-17.054,23.509-41.325C736.834,241.517,733.71,236.213,729.725,231.231Z" transform="translate(-108.162 -198.751)" fill="#f2f2f2"/>
    <path id="Path_7" data-name="Path 7" d="M714.574,251.029l.318,1.2c3.631,13.925,4.174,25.4,1.607,34.265-.035.13-.078.255-.113.385l-.6-.177-.574-.177c2.909-9.609,1.611-21.751-1.553-33.9-.1-.392-.2-.791-.309-1.186-1.385-5.13-3.081-10.24-4.928-15.152-.14-.381-.287-.767-.434-1.153-2.471-6.471-5.171-12.564-7.673-17.815-.175-.372-.356-.742-.536-1.107-4.271-8.871-7.891-15.156-8.7-16.544-.1-.171-.153-.264-.165-.286l.52-.31,0-.008.526-.311c.012.022.2.333.536.917,1.258,2.177,4.6,8.1,8.452,16.073.172.36.353.731.528,1.1,2.035,4.259,4.192,9.051,6.243,14.136q.776,1.915,1.485,3.791c.153.384.3.77.44,1.151Q712.641,243.886,714.574,251.029Z" transform="translate(-108.162 -198.751)" fill="#fff"/>
    <path id="Path_8" data-name="Path 8" d="M700.949,215.741c-.383.159-.771.319-1.169.47a33.815,33.815,0,0,1-3.295,1.061,32.889,32.889,0,0,1-14.566.555c-.165.38-.33.76-.5,1.148a34.107,34.107,0,0,0,15.382-.518,34.973,34.973,0,0,0,3.515-1.139c.392-.149.78-.309,1.161-.474a33.821,33.821,0,0,0,8.685-5.375q-.512-.387-1-.761A32.775,32.775,0,0,1,700.949,215.741Z" transform="translate(-108.162 -198.751)" fill="#fff"/>
    <path id="Path_9" data-name="Path 9" d="M709.205,234.77q-.6.2-1.216.362c-.123.039-.253.074-.377.107a33.064,33.064,0,0,1-29.872-6.717c-.144.412-.288.825-.424,1.242a34.292,34.292,0,0,0,30.611,6.66c.166-.044.332-.088.5-.138.413-.116.818-.237,1.222-.363a34.11,34.11,0,0,0,15.92-10.834c-.283-.3-.565-.6-.854-.9A32.837,32.837,0,0,1,709.205,234.77Z" transform="translate(-108.162 -198.751)" fill="#fff"/>
    <path id="Path_10" data-name="Path 10" d="M714.574,251.029c-.405.146-.813.28-1.223.408-.439.136-.88.266-1.325.384a33.153,33.153,0,0,1-36.851-14.874c-.139.551-.279,1.1-.406,1.643a34.367,34.367,0,0,0,37.572,14.415c.444-.118.887-.242,1.319-.383.417-.124.826-.258,1.232-.4a34.267,34.267,0,0,0,19.014-16.484c-.241-.405-.5-.8-.757-1.2a33.046,33.046,0,0,1-18.576,16.488Z" transform="translate(-108.162 -198.751)" fill="#fff"/>
    <path id="Path_11" data-name="Path 11" d="M414.82,671.452l-21.337.1,23.324-7.056c4.751-19.792,3.258-42.006,3.258-42.006s-46.172,1.128-63.1,19.683-11.807,35.1,1.8,47.51,30.548,16,47.475-2.557C410.008,682.992,412.782,677.5,414.82,671.452Z" transform="translate(-108.162 -198.751)" fill="#f2f2f2"/>
    <path id="Path_12" data-name="Path 12" d="M389.973,669.406l-.834.915c-9.753,10.582-19.113,17.241-27.96,19.872-.128.041-.257.073-.385.113l-.175-.6-.161-.578c9.657-2.747,19.171-10.4,27.68-19.629.277-.295.558-.594.831-.9,3.568-3.938,6.95-8.128,10.085-12.336.245-.324.491-.656.736-.988,4.108-5.577,7.775-11.142,10.841-16.085.218-.348.432-.7.642-1.049,5.155-8.388,8.486-14.831,9.214-16.266.092-.173.139-.271.151-.293l.542.27h.009l.546.274c-.012.022-.17.351-.482.946-1.151,2.235-4.333,8.251-8.954,15.8-.21.339-.424.692-.642,1.04-2.484,4.014-5.349,8.419-8.519,12.894q-1.192,1.688-2.387,3.3c-.241.336-.486.669-.731.992Q394.938,663.918,389.973,669.406Z" transform="translate(-108.162 -198.751)" fill="#fff"/>
    <path id="Path_13" data-name="Path 13" d="M412.3,638.868c-.341-.236-.686-.476-1.027-.729a33.824,33.824,0,0,1-2.673-2.2,32.888,32.888,0,0,1-8.34-11.955l-1.236.2a34.107,34.107,0,0,0,8.75,12.661,34.974,34.974,0,0,0,2.858,2.342c.337.249.682.489,1.027.721a33.82,33.82,0,0,0,9.217,4.4q.049-.64.1-1.254A32.778,32.778,0,0,1,412.3,638.868Z" transform="translate(-108.162 -198.751)" fill="#fff"/>
    <path id="Path_14" data-name="Path 14" d="M400.751,656.1q-.493-.4-.962-.828c-.1-.082-.2-.173-.294-.26A33.064,33.064,0,0,1,389,626.249c-.425.1-.85.2-1.274.314a34.291,34.291,0,0,0,10.943,29.354c.127.116.254.231.384.342.321.285.642.561.967.832a34.11,34.11,0,0,0,17.721,7.538c.1-.4.2-.8.292-1.2A32.837,32.837,0,0,1,400.751,656.1Z" transform="translate(-108.162 -198.751)" fill="#fff"/>
    <path id="Path_15" data-name="Path 15" d="M389.973,669.406c-.342-.262-.675-.533-1-.809-.352-.3-.7-.6-1.039-.907a33.153,33.153,0,0,1-7.4-39.043c-.538.181-1.073.357-1.6.546a34.367,34.367,0,0,0,8.18,39.4c.34.31.683.615,1.035.9.33.284.663.555,1,.822a34.267,34.267,0,0,0,24.147,7.087c.211-.422.4-.851.6-1.286A33.046,33.046,0,0,1,389.973,669.406Z" transform="translate(-108.162 -198.751)" fill="#fff"/>
    <path id="Path_16" data-name="Path 16" d="M235.821,489.442h12.26l5.832-47.288H235.819Z" fill="#ffb6b6"/>
    <path id="Path_17" data-name="Path 17" d="M340.856,684.191H365a15.387,15.387,0,0,1,15.387,15.385v.5H340.857Z" transform="translate(-108.162 -198.751)" fill="#2f2e41"/>
    <path id="Path_18" data-name="Path 18" d="M138.821,489.442h12.26l5.832-47.288H138.819Z" fill="#ffb6b6"/>
    <path id="Path_19" data-name="Path 19" d="M243.856,684.191H268a15.387,15.387,0,0,1,15.386,15.385v.5H243.857Z" transform="translate(-108.162 -198.751)" fill="#2f2e41"/>
    <path id="Path_20" data-name="Path 20" d="M159.613,295.2l-8.263,7.6-9.313,91.876-6.269,73.157,18.945,2.555,45.952-125L234.288,469.8l22.668.593L241.911,308Z" fill="#2f2e41"/>
    <circle id="Ellipse_1" data-name="Ellipse 1" cx="23.536" cy="23.536" r="23.536" transform="translate(176.008 112.273)" fill="#ffb9b9"/>
    <path id="Path_21" data-name="Path 21" d="M295.661,323.632s-2.806,6.073,8.418,3.644c0,0,4.209,2.429,4.209-1.215,0,0,5.612,6.073,7.015,2.429s4.209,1.215,4.209,1.215l2.806-6.073,2.806,3.644h9.821s2.806-24.29-30.866-21.861-17.107,40.915-17.107,40.915.271-6.908,3.077-3.265S295.661,323.632,295.661,323.632Z" transform="translate(-108.162 -198.751)" fill="#2f2e41"/>
    <path id="Path_22" data-name="Path 22" d="M325.639,365.779,292.451,363.7l-29.576,7.845,4.483,76.213-7.846,53.8s43.044,26.312,91.9,5.6l-4.641-12.209s-.16-18.685-4.08-22.342-3.608-33.816-3.608-33.816l14.57-56.039Z" transform="translate(-108.162 -198.751)" fill="#3f3d56"/>
    <path id="Path_23" data-name="Path 23" d="M270.776,373.952l-7.9-2.405s-12.3.411-18.7,14.408-10.4,34-10.4,34l40.634,1.469Z" transform="translate(-108.162 -198.751)" fill="#3f3d56"/>
    <path id="Path_24" data-name="Path 24" d="M365.091,507.557l-1.315-82.606-17.555,2.634,3.877,78.263a10.51,10.51,0,1,0,14.993,1.709Z" transform="translate(-108.162 -198.751)" fill="#ffb9b9"/>
    <path id="Path_25" data-name="Path 25" d="M343.776,389.952l9.882-7.2s18.989,14.851,19.053,47.524L346.221,436.7l-14.978-21.543Z" transform="translate(-108.162 -198.751)" fill="#3f3d56"/>
    <path id="Path_26" data-name="Path 26" d="M768.569,489.395h12.26l5.832-47.288H768.567Z" fill="#9e616a"/>
    <path id="Path_27" data-name="Path 27" d="M873.6,684.143h24.145a15.387,15.387,0,0,1,15.386,15.385v.5H873.6Z" transform="translate(-108.162 -198.751)" fill="#2f2e41"/>
    <path id="Path_28" data-name="Path 28" d="M696.005,478.969l11.689,3.7,19.823-43.327-17.251-5.457Z" fill="#9e616a"/>
    <path id="Path_29" data-name="Path 29" d="M802.393,672.961l23.02,7.281h0a15.387,15.387,0,0,1,10.029,19.31l-.151.477L797.6,688.108Z" transform="translate(-108.162 -198.751)" fill="#2f2e41"/>
    <path id="Path_30" data-name="Path 30" d="M831.772,472.176l-6.8,19.188-.193,103.588-19.294,70.922,23.683,6.61,26.161-66.873,8.391-58.738,11.058,59.08-1.522,70.221H898.1l1.876-108.211a237.256,237.256,0,0,0-15.663-88.982h0Z" transform="translate(-108.162 -198.751)" fill="#2f2e41"/>
    <path id="Path_31" data-name="Path 31" d="M715.507,195.7h40.165l16.782,16.783,5.014,69.371-60.662,9.761L697.32,225.426l10.612-28.131Z" fill="#6c63ff"/>
    <path id="Path_32" data-name="Path 32" d="M701.063,226.088l-61.84-23.267-1.61-9.618,39-33,12.981,9.736L666.066,195.7l41.866,1.6Z" fill="#6c63ff"/>
    <circle id="Ellipse_2" data-name="Ellipse 2" cx="10" cy="10" r="10" transform="translate(674.113 153.7)" fill="#9e616a"/>
    <path id="Path_33" data-name="Path 33" d="M815.467,375.05l4.519-20.376a27.967,27.967,0,1,1,54.608,12.11l-4.519,20.376a3.761,3.761,0,0,1-4.481,2.854l-47.272-10.483a3.761,3.761,0,0,1-2.855-4.481Z" transform="translate(-108.162 -198.751)" fill="#2f2e41"/>
    <circle id="Ellipse_3" data-name="Ellipse 3" cx="20.505" cy="20.505" r="20.505" transform="translate(712.225 143.779)" fill="#9e616a"/>
    <path id="Path_34" data-name="Path 34" d="M813.165,354.871a22.149,22.149,0,0,1,26.389-16.809l4.075.9a22.148,22.148,0,0,1,16.809,26.388l-.091.408-8.612-1.91-1.113-8.877-2.411,8.1-4.451-.987L843.2,357.6l-1.216,4.084-28.906-6.41Z" transform="translate(-108.162 -198.751)" fill="#2f2e41"/>
    <path id="Path_35" data-name="Path 35" d="M833.869,385.382a3.7,3.7,0,0,1,.564-3.9c6.14-7.256,15.553-21.093,9.6-32.233l-.428-.8,23.3,5.167L859.15,388.6l-21.994-.959a3.839,3.839,0,0,1-.662-.087,3.742,3.742,0,0,1-2.625-2.169Z" transform="translate(-108.162 -198.751)" fill="#2f2e41"/>
    <path id="Path_36" data-name="Path 36" d="M1090.65,701.249h-981.3a1.191,1.191,0,0,1,0-2.381h981.294a1.191,1.191,0,0,1,0,2.381Z" transform="translate(-108.162 -198.751)" fill="#cacaca"/>
    <path id="Path_37" data-name="Path 37" d="M604.121,406.472H286.806a18.343,18.343,0,0,0-18.342,18.342v76.315a18.343,18.343,0,0,0,18.343,18.343h4.657V533.26a4.23,4.23,0,0,0,7.221,2.991l16.779-16.779H604.121a18.343,18.343,0,0,0,18.343-18.342V424.815a18.343,18.343,0,0,0-18.343-18.343Z" transform="translate(-108.162 -198.751)" fill="#e6e6e6"/>
    <path id="Path_38" data-name="Path 38" d="M527.807,509.972h-241a8.853,8.853,0,0,1-8.843-8.843V424.814a8.853,8.853,0,0,1,8.842-8.842H604.121a8.853,8.853,0,0,1,8.843,8.843,85.253,85.253,0,0,1-85.157,85.158Z" transform="translate(-108.162 -198.751)" fill="#fff"/>
    <rect id="Rectangle_1" data-name="Rectangle 1" width="146" height="12" rx="6" transform="translate(264.635 233.721)" fill="#6c63ff"/>
    <rect id="Rectangle_2" data-name="Rectangle 2" width="203" height="12" rx="6" transform="translate(236.135 257.721)" fill="#e6e6e6"/>
    <rect id="Rectangle_3" data-name="Rectangle 3" width="203" height="12" rx="6" transform="translate(236.135 281.721)" fill="#e6e6e6"/>
    <path id="Path_39" data-name="Path 39" d="M1056.2,459.608H826.729a13.265,13.265,0,0,0-13.265,13.265v55.188a13.265,13.265,0,0,0,13.265,13.265H830.1V551.3a3.059,3.059,0,0,0,5.222,2.163l12.134-12.134H1056.2a13.265,13.265,0,0,0,13.265-13.265V472.873a13.265,13.265,0,0,0-13.265-13.265Z" transform="translate(-108.162 -198.751)" fill="#e6e6e6"/>
    <path id="Path_40" data-name="Path 40" d="M1056.2,534.595H826.729a6.541,6.541,0,0,1-6.533-6.533V472.873a6.54,6.54,0,0,1,6.533-6.533h174.283a61.791,61.791,0,0,1,61.721,61.722,6.541,6.541,0,0,1-6.533,6.534Z" transform="translate(-108.162 -198.751)" fill="#fff"/>
    <rect id="Rectangle_4" data-name="Rectangle 4" width="105.582" height="8.678" rx="4.339" transform="translate(780.752 279.659)" fill="#6c63ff"/>
    <rect id="Rectangle_5" data-name="Rectangle 5" width="146.802" height="8.678" rx="4.339" transform="translate(760.142 297.015)" fill="#e6e6e6"/>
    <rect id="Rectangle_6" data-name="Rectangle 6" width="146.802" height="8.678" rx="4.339" transform="translate(760.142 314.371)" fill="#e6e6e6"/>
    <path id="Path_41" data-name="Path 41" d="M566.729,265.608H796.2a13.265,13.265,0,0,1,13.265,13.265v55.188A13.265,13.265,0,0,1,796.2,347.326h-3.368V357.3a3.059,3.059,0,0,1-5.222,2.163l-12.134-12.134H566.729a13.265,13.265,0,0,1-13.265-13.265V278.873a13.265,13.265,0,0,1,13.265-13.265Z" transform="translate(-108.162 -198.751)" fill="#e6e6e6"/>
    <path id="Path_42" data-name="Path 42" d="M796.2,340.594H621.917A61.791,61.791,0,0,1,560.2,278.873a6.541,6.541,0,0,1,6.533-6.534H796.2a6.54,6.54,0,0,1,6.533,6.533v55.188A6.54,6.54,0,0,1,796.2,340.594Z" transform="translate(-108.162 -198.751)" fill="#fff"/>
    <rect id="Rectangle_7" data-name="Rectangle 7" width="105.582" height="8.678" rx="4.339" transform="translate(625.851 94.337) rotate(180)" fill="#6c63ff"/>
    <rect id="Rectangle_8" data-name="Rectangle 8" width="146.802" height="8.678" rx="4.339" transform="translate(646.461 111.693) rotate(180)" fill="#e6e6e6"/>
    <rect id="Rectangle_9" data-name="Rectangle 9" width="146.802" height="8.678" rx="4.339" transform="translate(646.461 129.049) rotate(180)" fill="#e6e6e6"/>
    <path id="Path_43" data-name="Path 43" d="M302.276,404.952a10.5,10.5,0,0,0-21,0c0,.1.012.2.015.3l-18.416,18.415,1.4-3.219-21-1-3.063,22.172a9.969,9.969,0,0,0,16.782,8.494l36.3-34.788A10.493,10.493,0,0,0,302.276,404.952Z" transform="translate(-108.162 -198.751)" fill="#ffb9b9"/>
    <path id="Path_44" data-name="Path 44" d="M754.074,196.12l65.414,9.3,3.657,9.04-30.914,40.673-14.783-6.689,17.38-30.251-41.215,7.524Z" fill="#6c63ff"/>
    <circle id="Ellipse_4" data-name="Ellipse 4" cx="10" cy="10" r="10" transform="translate(773.113 246.7)" fill="#9e616a"/>
  </g>
</svg>
