<svg xmlns="http://www.w3.org/2000/svg" xmlns:xlink="http://www.w3.org/1999/xlink" width="742.835" height="655.891" viewBox="0 0 742.835 655.891">
  <defs>
    <linearGradient id="linear-gradient" x1="0.5" y1="1" x2="0.5" gradientUnits="objectBoundingBox">
      <stop offset="0" stop-color="gray" stop-opacity="0.251"/>
      <stop offset="0.54" stop-color="gray" stop-opacity="0.122"/>
      <stop offset="1" stop-color="gray" stop-opacity="0.102"/>
    </linearGradient>
    <linearGradient id="linear-gradient-2" x1="0.786" y1="0.736" x2="0.786" y2="-0.071" xlink:href="#linear-gradient"/>
    <linearGradient id="linear-gradient-3" x1="2.677" y1="-0.283" x2="2.677" y2="-1.243" xlink:href="#linear-gradient"/>
  </defs>
  <g id="Group_25" data-name="Group 25" transform="translate(-0.038 -0.008)">
    <path id="Path_176" data-name="Path 176" d="M96.881,350.225c2.213,24.9,16.332,47.447,24.948,71.163a168.692,168.692,0,0,1,3.283,104.75c-2.051,7.067-4.581,14.156-4.581,21.392,0,24.948,28.423,41.509,54.248,52.522a988.932,988.932,0,0,0,204.2,61.7c22.919,4.33,51.548,6.2,66.051-10.084,6.964-7.819,8.645-18.029,13.758-26.8,13.035-22.359,44.755-31.056,73.221-36.028A894.458,894.458,0,0,1,635.781,576.9c35.025-1.97,74.793-3.688,98.007-26.682,14.753-14.621,19.047-34.8,19.637-53.85,1.925-62.51-27.943-130.155,10.394-184.293,16.074-22.706,42.32-39.288,58.276-62.06,23.1-33,21.1-74.9,5.466-110.068s-43.338-65.063-70.64-94.363c-9.073-9.693-18.708-19.77-32.281-24.262C710.53,16.642,694.529,18.789,679.4,21,610.59,31.049,539.146,41.989,481.43,76.5c-28.666,17.136-52.611,39.362-78.193,59.8-55.222,44.172-119.23,84.965-192.171,102.4C151.8,252.867,91.519,291.079,96.881,350.225Z" transform="translate(-96.51 -8.865)" fill="#6c63ff" opacity="0.1"/>
    <path id="Path_177" data-name="Path 177" d="M480.623,418.969a11.391,11.391,0,0,1,1.077-.487s-30.414-17.136-38.883-21.894a71.4,71.4,0,0,1-8.734-6.145c10.578-3.836,25.376-10.689,33.2-20.979,0,0-2.213-1.844-5.053-4.522l3.054-3.57s15.948-12.85,4.987-19.511c-8.911-5.415-14.532,8.963-16.325,14.547l-.627-.738s-17.158,26.21-40.3,13.175a31.721,31.721,0,0,1-3.57-6.514,29.455,29.455,0,0,0-8.114-11.375l-2.353-9.1-4.2-3.46a156.851,156.851,0,0,1,.738-16.229q.052-.5.111-1a21.46,21.46,0,0,0,13.839-19.784,20.522,20.522,0,0,0-2.095-9.044c3.283-3.755,5.665-8.852,4.957-13.278-.553-3.43-3.482-5.665-6.993-7.244a56.851,56.851,0,0,0-10.6-3.556c-5.687-1.542-11.9-2.272-17.431-.273-9.147,3.3-14.8,7.1-21.909,13.507-5.621,5.068-11.8,13.89-18.442,17.7s-13.138,8.756-15.712,15.683c-3.629,9.8,1.343,20.323,3.585,30.488a58.586,58.586,0,0,1-2.818,34.25c-4.352,10.881-12.135,21.511-10.224,33.011,1.475,8.734,8.387,15.491,16.893,19.393a42.636,42.636,0,0,0,11.958,3.836c7.163,1.173,14.812.8,21.429-1.911a79.471,79.471,0,0,1-11.958,22.13c-4.905,6.241-4.426,9.634-.089,9.959q-.229.878-.428,1.866c-1.409,6.912-1.859,18.221.516,36.721,5.983,46.643-6.978,60.917-6.978,60.917s1.387.487,3.895,1.21q-.155.421-.31.863c-2.744,7.79-5.341,21.51-.088,39.834,5.658,19.7,7.318,28.769,7.8,32.664v.229a8.339,8.339,0,0,0-4.153,4.264,12.113,12.113,0,0,0,1.815,13.278v18.073h2.493V660.734a43.028,43.028,0,0,1,5.584,8.491,19.26,19.26,0,0,0,14.857,10.519c6.418.87,13.5,1.188,16.45-.93,0,0,2.213-4.168-8.373-9.221l-.089-.133c-3.482-5.075-8.852-13.883-9.664-20.8a57.784,57.784,0,0,0-2.729-12.459h0a36.6,36.6,0,0,1-1.947-9.405c-.738-9.8-2.021-31.292-.118-36.035,1.284-3.194,2.043-11.213,2.471-18.221,0-.317.037-.634.059-.944a139.332,139.332,0,0,0,33.365.244v4.647s-4.485,14.281,4.485,34.744c0,0,12.164,18.582,14.916,29.559q.118.472.214.922c-1.63.192-8.815,1.881-6.152,17.107l-.5,19.991H419.9l.5-17.608s2.493-4.286,10.969,4.758q1.925,2.058,3.482,3.814a30.931,30.931,0,0,0,24.21,10.209c5.444-.192,10.645-.738,12.681-2.125,0,0,4.987-3.806-7.48-5.71l-5.739-1.7h-.214l-.819-.915c-4.352-4.928-10.674-13.278-12.29-21.761a39.1,39.1,0,0,0-2.7-8.5l-4.662-10.49-10.969-56.107s.575-2.464,1.136-5.481c.059-.332.125-.679.184-1.018l1.667-.642s9.973-7.141-4.987-50.449c0,0-5.813-24.122-8.756-43.338l7.259-1.394s-1.121-16.966-3.356-28.769c1.475-5.533,2.287-10.327,1.365-12.673a22.077,22.077,0,0,1-1.269-6.639A152.031,152.031,0,0,0,418.467,407l9.391,6.639L475.216,436.5c-1.815-3.733-2.1-6.794-1.579-9.265,3.452,4.935,12.614,15.949,20.522,6.882C502.23,424.952,486.812,420.378,480.623,418.969Z" transform="translate(-152.895 -73.987)" fill="url(#linear-gradient)"/>
    <path id="Path_178" data-name="Path 178" d="M529.626,473.3s24.41,4.227,15.019,15.491-20.655-8.918-20.655-8.918Z" transform="translate(-208.64 -128.163)" fill="#f8bdc5"/>
    <path id="Path_179" data-name="Path 179" d="M421.54,374.67s12.2,5.636,16.428,17.365,23.473,29.1,31.447,33.8,36.611,21.592,36.611,21.592-12.2,4.692-6.1,17.837l-44.592-22.529-20.175-15.019Z" transform="translate(-181.764 -102.289)" fill="#575988"/>
    <path id="Path_180" data-name="Path 180" d="M421.54,374.67s12.2,5.636,16.428,17.365,23.473,29.1,31.447,33.8,36.611,21.592,36.611,21.592-12.2,4.692-6.1,17.837l-44.592-22.529-20.175-15.019Z" transform="translate(-181.764 -102.289)" opacity="0.1"/>
    <path id="Path_181" data-name="Path 181" d="M605.258,7.254S551.5-12.383,494.326,77.488c0,0-24.033,50.162-77.736,49.963l-5.754-13.116L400,118.591,545.322,450.544l10.962-3.519L487.842,289.8c22.706-1.741,73.3-18.088,119.451-119.983,0,0,41.457-77.382,102.168-68.235Z" transform="translate(-176.114 -5.43)" fill="url(#linear-gradient-2)"/>
    <path id="Path_182" data-name="Path 182" d="M410.51,130.7,480.95,290s68.308,16.671,128.8-116.877c0,0,40.572-75.693,99.94-66.745L607.786,14.1s-52.6-19.18-108.512,68.707C499.267,82.807,471.988,139.792,410.51,130.7Z" transform="translate(-178.871 -7.238)" fill="#5d76b7"/>
    <path id="Path_183" data-name="Path 183" d="M434.495,142.047l3.423,9.545-6.588,6.543,7.679-.944,2.87,8.734,2.272-9.914,7.148-.575-6.337-5.142,1.468-9.354-5.6,6.255Z" transform="translate(-113.139 -36.97)" fill="#ffd037"/>
    <path id="Path_184" data-name="Path 184" d="M454.135,103.064l3.047,9.007-5.761,7.163,6.853-1.571,3.674,8.181.915-10.158,7.495-1.217-6.5-4.234,1.387-8.9-4.611,5.968Z" transform="translate(-118.41 -26.579)" fill="#ffd037"/>
    <path id="Path_185" data-name="Path 185" d="M483.691,78.755l3.3,7.642-5.658,7.886L488.087,92l3.3,7.642,2.191-9.457,7.768-1.4-7.229-4.138L496.578,75l-6.034,7.347Z" transform="translate(-126.256 -19.672)" fill="#ffd037"/>
    <path id="Path_186" data-name="Path 186" d="M516.156,78.191l3.3,7.642-6.86,6.735,7.849-1.859,3.032,7.827,2.464-9.641,7.952-1.129L527.412,84.7l2.272-9.914-6.669,7Z" transform="translate(-134.459 -19.617)" fill="#ffd037"/>
    <path id="Path_187" data-name="Path 187" d="M543.506,97.491l3.3,7.642-6.853,6.735,7.849-1.859,3.032,7.827,2.456-9.641,7.952-1.129L554.755,104l2.279-9.914-6.676,7Z" transform="translate(-141.633 -24.68)" fill="#ffd037"/>
    <path id="Path_188" data-name="Path 188" d="M558.136,127.2l3.3,7.642-6.853,6.735,7.841-1.859,3.039,7.827,2.456-9.641,7.952-1.129-6.484-3.061,2.279-9.914-6.676,7Z" transform="translate(-145.471 -32.474)" fill="#ffd037"/>
    <path id="Path_189" data-name="Path 189" d="M551.335,174.123l3.674,8.181-6.528,10.077,7.908-3.489,3.386,7.185,1.638-10.261,8.365-3.408-7.391-3.224,1.549-9.8-5.038,7.06Z" transform="translate(-143.871 -44.431)" fill="#ffd037"/>
    <path id="Path_190" data-name="Path 190" d="M535.275,218.477l2.87,8.734-5.724,9.516,7.642-3.3,3.216,8.1,1.534-10.991L552,227.16l-6.484-3.061,1.719-10.718-5.392,7.7Z" transform="translate(-139.658 -55.973)" fill="#ffd037"/>
    <path id="Path_191" data-name="Path 191" d="M504.164,246.1l2.965,9.457-6.919,8.365,6.853-1.571,3.039,7.834,2.272-9.914,7.1-2.929-5.592-4.072,1.534-10.984-5.208,7.967Z" transform="translate(-131.208 -63.557)" fill="#ffd037"/>
    <path id="Path_192" data-name="Path 192" d="M472.237,251.658l2.7,9.641-7.236,6.2,7.332-.31,2.124,7.664,2.833-9.11,8.033-1.586-5.879-5.06,1.387-8.9-5.245,5.621Z" transform="translate(-122.68 -65.629)" fill="#ffd037"/>
    <path id="Path_193" data-name="Path 193" d="M442.908,227.688l2.788,9.191-8.867,6.13,9.339.3,1.793,9.479,3.533-10.386,8.778-.516-6.6-4.957,2.788-11.463-7.849,7.023Z" transform="translate(-114.582 -59.142)" fill="#ffd037"/>
    <path id="Path_194" data-name="Path 194" d="M431.618,184.908l2.788,9.191-8.867,6.13,9.339.288L436.672,210l3.534-10.394,8.778-.509-6.61-4.957,2.8-11.463-7.849,7.015Z" transform="translate(-111.621 -47.92)" fill="#ffd037"/>
    <path id="Path_195" data-name="Path 195" d="M619,173.532l-16.229-18.051a2.825,2.825,0,0,0-3.991-.214l-1.306,1.2-6.787-7.561a7.192,7.192,0,0,0-10.158-.546l-8.852,7.945a7.192,7.192,0,0,0-.546,10.158l6.786,7.561-1.32,1.188a2.825,2.825,0,0,0-.214,3.991l16.229,18.051a2.825,2.825,0,0,0,3.991.214L618.8,177.545a2.825,2.825,0,0,0,.206-4.013Zm-44.71-7.48a7.192,7.192,0,0,1,.546-10.158l4.979-4.47a7.192,7.192,0,0,1,10.158.546l5.57,6.2-15.683,14.075Zm25.14,10.224,2.626,2.951a1.583,1.583,0,1,1-2.353,2.117l-2.774-3.091a3.836,3.836,0,1,1,2.5-1.955Z" transform="translate(-220.524 -42.438)" fill="url(#linear-gradient-3)"/>
    <path id="Path_196" data-name="Path 196" d="M581.516,149.827l-8.4,7.546a6.831,6.831,0,0,0-.516,9.649l7.119,7.93,1.837-1.652-5.96-6.639a6.831,6.831,0,0,1,.516-9.649l4.728-4.242a6.831,6.831,0,0,1,9.649.516l5.96,6.639,1.837-1.652-7.119-7.93A6.831,6.831,0,0,0,581.516,149.827Z" transform="translate(-220.931 -42.848)" fill="#f0f5fa"/>
    <path id="Path_197" data-name="Path 197" d="M601.008,159.121l-21.075,18.907a2.685,2.685,0,0,0-.207,3.792l15.4,17.144a2.685,2.685,0,0,0,3.792.207L620,180.24a2.685,2.685,0,0,0,.207-3.792l-15.373-17.121a2.685,2.685,0,0,0-3.821-.207Zm.6,19.954,2.493,2.781a1.494,1.494,0,0,1-2.213,2.007l-2.633-2.951a3.644,3.644,0,1,1,2.375-1.852Z" transform="translate(-223.081 -45.561)" fill="#f0f5fa"/>
    <path id="Path_198" data-name="Path 198" d="M309.21,155.468,450.851,478.974l10.718-3.445L319.832,151.3Z" transform="translate(-81.104 -39.688)" fill="#f0f5fa"/>
    <path id="Path_199" data-name="Path 199" d="M499.81,386.858s5.636-23,15.963-16.428-4.692,19.246-4.692,19.246l-4.227,5.164Z" transform="translate(-202.296 -100.867)" fill="#f8bdc5"/>
    <path id="Path_200" data-name="Path 200" d="M326.687,359.16l5.348,4.618,2.257,9.162-3.666-2.125v-7.037l-3.947-.472Z" transform="translate(-85.687 -94.215)" fill="#dedff7"/>
    <path id="Path_201" data-name="Path 201" d="M326.687,359.16l5.348,4.618,2.257,9.162-3.666-2.125v-7.037l-3.947-.472Z" transform="translate(-85.687 -94.215)" opacity="0.1"/>
    <path id="Path_202" data-name="Path 202" d="M444.77,489.589l3.12,40.373,9.332-1.881s-2.073-32.856-6.219-38.492S444.77,489.589,444.77,489.589Z" transform="translate(-187.858 -131.779)" fill="#575988"/>
    <path id="Path_203" data-name="Path 203" d="M444.77,489.589l3.12,40.373,9.332-1.881s-2.073-32.856-6.219-38.492S444.77,489.589,444.77,489.589Z" transform="translate(-187.858 -131.779)" opacity="0.1"/>
    <path id="Path_204" data-name="Path 204" d="M399.685,774.648l-15.019,2.346-8.446-6.573-6.1-19.246v-7.052a15.527,15.527,0,0,0-.17-2.523c-.45-3.814-2.014-12.784-7.377-32.214-4.95-18.051-2.5-31.58.081-39.259a34.752,34.752,0,0,1,3.2-7.207h20.183s-.111,5.6-.487,12.068c-.406,6.912-1.114,14.827-2.331,17.977-1.8,4.677-.568,25.87.111,35.541a37.621,37.621,0,0,0,1.837,9.265h0a59.307,59.307,0,0,1,2.574,12.29c.738,6.823,5.82,15.491,9.1,20.515C398.505,773.069,399.685,774.648,399.685,774.648Z" transform="translate(-165.545 -177.905)" fill="#f8bdc5"/>
    <path id="Path_205" data-name="Path 205" d="M491.066,773.716l-6.573,1.881-12.673-5.164L455.857,753.54v-9.383a17.917,17.917,0,0,0-.509-3.231c-2.589-10.829-14.016-29.153-14.016-29.153-8.446-20.183-4.227-34.265-4.227-34.265V662.947s22.064-7.51,23-4.692c.524,1.579-.133,6.278-.8,10.084-.531,2.951-1.07,5.4-1.07,5.4l10.327,55.392,4.389,10.327a39.832,39.832,0,0,1,2.538,8.38c1.527,8.343,7.48,16.6,11.574,21.459A57.783,57.783,0,0,0,491.066,773.716Z" transform="translate(-185.571 -176.516)" fill="#f8bdc5"/>
    <path id="Path_206" data-name="Path 206" d="M403.326,802.523l-15.019,2.346L379.86,798.3l-6.1-19.246V772a15.538,15.538,0,0,0-.17-2.523,3.514,3.514,0,0,1,.642-.3s1.881,7.045.937,10.327c-.738,2.619,5.658,12.4,8.291,16.229a11.117,11.117,0,0,0,5.407,4.293c5.127,1.815,10.047-.634,11.655-1.579C402.145,800.944,403.326,802.523,403.326,802.523Z" transform="translate(-169.186 -205.78)" opacity="0.1"/>
    <path id="Path_207" data-name="Path 207" d="M398.815,798.725s-5.946,4.146-12.208,1.925a11.11,11.11,0,0,1-5.407-4.264c-2.633-3.858-9.044-13.64-8.291-16.229.937-3.283-.937-10.327-.937-10.327s-2.383.738-4.057,4.264a12.4,12.4,0,0,0,1.711,13.116v17.822h2.346v-15a42.669,42.669,0,0,1,5.26,8.372,18.2,18.2,0,0,0,14.016,10.372c6.042.856,12.71,1.173,15.491-.915C406.7,807.857,408.766,803.748,398.815,798.725Z" transform="translate(-167.396 -205.951)" fill="#575988"/>
    <path id="Path_208" data-name="Path 208" d="M497.928,803.321l-6.573,1.881-12.673-5.164-15.963-16.893v-9.383a17.911,17.911,0,0,0-.509-3.231,3.466,3.466,0,0,1,.509-.052c0,2.442,4.16,8.255,7.082,12.024a73.7,73.7,0,0,1,4.256,6.16c6.078,9.8,16.605,10.327,19.843,10.268C496.209,801.669,497.928,803.321,497.928,803.321Z" transform="translate(-192.433 -206.121)" opacity="0.1"/>
    <path id="Path_209" data-name="Path 209" d="M460.535,771.74s-8.919,0-6.1,16.9l-.465,19.718h2.346l.472-17.365s2.346-4.227,10.327,4.692q1.815,2.029,3.283,3.762a28.512,28.512,0,0,0,22.8,10.069c5.119-.192,10.025-.738,11.943-2.095,0,0,4.692-3.755-7.045-5.636l-5.4-1.645s-13.566,1.475-20.817-10.217a72.952,72.952,0,0,0-4.264-6.189C464.7,779.995,460.535,774.182,460.535,771.74Z" transform="translate(-190.249 -206.452)" fill="#575988"/>
    <path id="Path_210" data-name="Path 210" d="M366.962,662.93h20.183s-.111,5.6-.487,12.068a142.545,142.545,0,0,1-22.868-4.861A34.754,34.754,0,0,1,366.962,662.93Z" transform="translate(-166.615 -177.908)" opacity="0.1"/>
    <path id="Path_211" data-name="Path 211" d="M459.637,668.339a93.436,93.436,0,0,1-22.2,5.518v-10.91s22.064-7.51,23-4.692C460.972,659.834,460.315,664.54,459.637,668.339Z" transform="translate(-185.935 -176.516)" opacity="0.1"/>
    <path id="Path_212" data-name="Path 212" d="M440.855,629.534c-38.492,15.963-81.675,0-81.675,0s12.2-14.082,6.573-60.083c-2.213-18.243-1.815-29.4-.487-36.22,2.014-10.379,6.115-10.718,6.115-10.718l55.392-6.573c-.494,1.881-.524,5.053-.251,9,1.32,18.693,9.634,54.839,9.634,54.839C450.246,622.5,440.855,629.534,440.855,629.534Z" transform="translate(-165.405 -139.348)" fill="#575988"/>
    <path id="Path_213" data-name="Path 213" d="M419.629,327.151c-1.431,2.147-2.294,6.528-2.81,11.574a219.614,219.614,0,0,0-.479,26.446s-28.636,15.491-22.064-4.692A50.428,50.428,0,0,0,391,322.932S424.328,320.114,419.629,327.151Z" transform="translate(-173.753 -88.571)" fill="#f8bdc5"/>
    <path id="Path_214" data-name="Path 214" d="M419.629,327.153c-1.431,2.147-2.294,6.528-2.811,11.574a21.127,21.127,0,0,1-21.392-3.246A48.02,48.02,0,0,0,391,322.941S424.328,320.115,419.629,327.153Z" transform="translate(-173.753 -88.572)" opacity="0.1"/>
    <circle id="Ellipse_17" data-name="Ellipse 17" cx="21.127" cy="21.127" r="21.127" transform="translate(213.95 208.535)" fill="#f8bdc5"/>
    <path id="Path_215" data-name="Path 215" d="M428.689,524.94c-2.574,7.067-4.913,12.592-4.913,12.592s-22.064-18.781-38.957-9.855c-7.974,4.2-14.06,6.012-17.38,5.555,2.014-10.379,6.115-10.718,6.115-10.718l55.392-6.573C428.446,517.821,428.416,520.986,428.689,524.94Z" transform="translate(-167.572 -139.348)" opacity="0.1"/>
    <path id="Path_216" data-name="Path 216" d="M422.769,493.416s-22.064-18.774-38.957-9.855-25.346,7.045-16.9-4.227,19.718-35.209,11.264-53.046-11.736-46-5.164-53.511,12.673-15.963,12.673-17.837c0,0,23.938,17.365,28.636,24.41,1.35,2.021,3.556,7.185,6,13.522,1.32,3.423,2.722,7.185,4.1,10.977a139.555,139.555,0,0,1,5.237,18.221,154.049,154.049,0,0,1,3.179,23.974,22.691,22.691,0,0,0,1.195,6.536C436.851,460.088,422.769,493.416,422.769,493.416Z" transform="translate(-166.565 -97.114)" fill="#575988"/>
    <path id="Path_217" data-name="Path 217" d="M420.612,366.981l-.553,9.8-27.1-20.655s-.516-4.146,6.528.074S420.612,366.981,420.612,366.981Z" transform="translate(-174.264 -96.946)" fill="#dedff7"/>
    <path id="Path_218" data-name="Path 218" d="M433.693,428.732C408.9,429.19,380.8,401.5,380.8,401.5c-9.855-26.283,23.473-20.655,23.473-20.655s2.744,7.067,20.087,18.685c1.32,3.423,2.722,7.185,4.1,10.977a139.56,139.56,0,0,1,5.23,18.221Z" transform="translate(-170.599 -103.778)" opacity="0.1"/>
    <path id="Path_219" data-name="Path 219" d="M380.8,397.054S412.721,428.5,438.54,423.81c0,0,30.51-7.509,42.719-24.41a125.832,125.832,0,0,1-13.145-13.61s-16.428,26.283-38.492,12.673S404.275,376.4,404.275,376.4,370.947,370.764,380.8,397.054Z" transform="translate(-170.599 -102.61)" fill="#575988"/>
    <path id="Path_220" data-name="Path 220" d="M398.423,272.611c-5.356-1.52-11.205-2.213-16.413-.273-8.616,3.253-13.935,7-20.655,13.322-5.3,4.994-11.124,13.7-17.357,17.446s-12.327,8.631-14.753,15.491c-3.415,9.664,1.261,20.043,3.379,30.068a60.35,60.35,0,0,1-2.656,33.778c-4.1,10.726-11.427,21.215-9.59,32.561,1.925,12.135,14.1,20.367,26.21,22.44,8.247,1.416,17.173.546,24.181-4.013a14.754,14.754,0,0,0,4.869-4.795c2.988-5.164,1.025-11.663-.819-17.343-3.777-11.633-6.757-23.51-9.745-35.371-1.741-6.927-3.467-14.355-1-21.061,2.4-6.543,8.4-11.124,14.672-14.178,2.456-1.2,5.075-2.272,6.919-4.278a11.9,11.9,0,0,0,2.309-3.917c3.157-8.417-.384-19.275,5.71-25.892,3.1-3.364,7.871-4.529,11.692-7.045,4.824-3.179,9.59-10.689,8.682-16.782C413.065,276.351,403.963,274.183,398.423,272.611Z" transform="translate(-155.15 -75.134)" opacity="0.1"/>
    <path id="Path_221" data-name="Path 221" d="M397.143,271.971c-5.356-1.52-11.205-2.213-16.413-.273-8.616,3.253-13.935,7-20.655,13.322-5.3,4.994-11.124,13.7-17.357,17.446s-12.327,8.631-14.753,15.491c-3.415,9.664,1.261,20.043,3.379,30.068a60.349,60.349,0,0,1-2.656,33.778c-4.1,10.726-11.427,21.215-9.59,32.561,1.925,12.135,14.1,20.367,26.21,22.44,8.247,1.416,17.173.546,24.181-4.013A14.753,14.753,0,0,0,374.356,428c2.988-5.164,1.025-11.663-.819-17.343-3.777-11.633-6.757-23.51-9.745-35.371-1.741-6.927-3.467-14.355-1-21.061,2.4-6.543,8.4-11.124,14.672-14.178,2.456-1.2,5.075-2.272,6.919-4.278a11.9,11.9,0,0,0,2.309-3.917c3.157-8.417-.384-19.275,5.71-25.892,3.1-3.364,7.871-4.529,11.692-7.045,4.824-3.179,9.59-10.689,8.682-16.782C411.793,275.719,402.69,273.543,397.143,271.971Z" transform="translate(-154.814 -74.966)" fill="#eb6475"/>
    <path id="Path_222" data-name="Path 222" d="M207.821,648.661s-9.782-33.2,1.837-57.642a52.442,52.442,0,0,0,4.242-32.9,88.2,88.2,0,0,0-4.655-15.44" transform="translate(-124.69 -146.363)" fill="none" stroke="#535461" stroke-miterlimit="10" stroke-width="2"/>
    <path id="Path_223" data-name="Path 223" d="M215.653,519.117c0,4.072-7.377,15.867-7.377,15.867s-7.377-11.8-7.377-15.867a7.377,7.377,0,1,1,14.753,0Z" transform="translate(-123.884 -138.247)" fill="#6c63ff"/>
    <path id="Path_224" data-name="Path 224" d="M232.143,548.342c-2.213,3.415-14.813,9.317-14.813,9.317s.229-13.912,2.442-17.328a7.377,7.377,0,0,1,12.371,8.011Z" transform="translate(-128.194 -144.936)" fill="#6c63ff"/>
    <path id="Path_225" data-name="Path 225" d="M230.47,599.6c-3.637,1.829-17.49.568-17.49.568s7.222-11.891,10.851-13.721a7.377,7.377,0,0,1,6.639,13.16Z" transform="translate(-127.053 -157.672)" fill="#6c63ff"/>
    <path id="Path_226" data-name="Path 226" d="M221.154,639.246c-3.275,2.419-17.144,3.511-17.144,3.511s5.1-12.939,8.38-15.358a7.377,7.377,0,0,1,8.764,11.847Z" transform="translate(-124.7 -168.261)" fill="#6c63ff"/>
    <path id="Path_227" data-name="Path 227" d="M195.471,561.4c2.951,2.833,16.517,5.776,16.517,5.776s-3.327-13.507-6.248-16.339A7.377,7.377,0,1,0,195.471,561.4Z" transform="translate(-121.797 -147.88)" fill="#6c63ff"/>
    <path id="Path_228" data-name="Path 228" d="M184.367,607.179c3.637,1.829,17.49.568,17.49.568s-7.222-11.891-10.851-13.721a7.377,7.377,0,1,0-6.639,13.16Z" transform="translate(-118.409 -159.586)" fill="#6c63ff"/>
    <path id="Path_229" data-name="Path 229" d="M180.937,653.836c3.275,2.42,17.143,3.511,17.143,3.511s-5.1-12.939-8.38-15.358a7.377,7.377,0,0,0-8.764,11.847Z" transform="translate(-117.937 -172.089)" fill="#6c63ff"/>
    <path id="Path_230" data-name="Path 230" d="M567.9,809.882a8.608,8.608,0,0,0,2.825-4.264,3.784,3.784,0,0,0-1.977-4.345c-1.815-.693-3.755.561-5.223,1.837s-3.157,2.722-5.083,2.449a7.731,7.731,0,0,0,2.39-7.237,3.023,3.023,0,0,0-.664-1.475c-1.011-1.077-2.833-.612-4.042.236-3.836,2.7-4.906,7.908-4.928,12.6-.384-1.689-.059-3.452-.074-5.164s-.487-3.688-1.947-4.588a5.9,5.9,0,0,0-2.951-.7c-1.726-.066-3.644.111-4.824,1.372-1.475,1.564-1.084,4.2.192,5.9s3.209,2.8,4.994,4a11.065,11.065,0,0,1,3.57,3.4,3.373,3.373,0,0,1,.266.6h10.807a30.117,30.117,0,0,0,6.669-4.625Z" transform="translate(-212.959 -212.873)" fill="#6c63ff"/>
    <path id="Path_231" data-name="Path 231" d="M758.979,433.87s-30.864,30.864-13.44,76.659S715.67,632.481,715.67,632.481s.509-.074,1.475-.236c63.388-11.19,94.88-83.682,59.633-137.539C763.648,474.678,752.893,451.191,758.979,433.87Z" transform="translate(-258.922 -117.819)" fill="#6c63ff"/>
    <path id="Path_232" data-name="Path 232" d="M758.979,434.56s-30.864,30.864-13.44,76.659S715.67,633.171,715.67,633.171s.509-.074,1.475-.236c63.359-11.19,94.85-83.711,59.6-137.561C763.648,475.376,752.893,451.851,758.979,434.56Z" transform="translate(-258.922 -118)" opacity="0.1"/>
    <path id="Path_233" data-name="Path 233" d="M758.979,433.87s-17.424,37.828,0,68.692,2.951,117.474-43.309,129.919" transform="translate(-258.922 -117.819)" fill="none" stroke="#535461" stroke-miterlimit="10" stroke-width="1"/>
    <path id="Path_234" data-name="Path 234" d="M811.144,602.943s-35.216-5.606-38.425,25.951S705,664.848,705,664.848l1.21.8c53.26,34.966,104.182,22.27,96.5-24.159C799.865,624.225,800.093,606.89,811.144,602.943Z" transform="translate(-256.123 -162.071)" fill="#6c63ff"/>
    <path id="Path_235" data-name="Path 235" d="M811.144,603.08s-27.338,6-25.081,30.857-40.6,54.654-81.063,31.049" transform="translate(-256.123 -162.208)" fill="none" stroke="#535461" stroke-miterlimit="10" stroke-width="1"/>
    <path id="Path_236" data-name="Path 236" d="M768.161,678.858s-27.737-5.562-35.135-12.939-40.683-20.338-44.378-11.065-49.926,40.646-18.516,46.193,73.966,7.377,83.209,3.688S768.161,678.858,768.161,678.858Z" transform="translate(-244.123 -174.945)" fill="#a8a8a8"/>
    <path id="Path_237" data-name="Path 237" d="M670.13,707.258c31.44,5.547,73.967,7.377,83.21,3.688,7.045-2.818,11.936-16.347,13.868-22.647l.922.192s-5.547,22.189-14.79,25.885-51.777,1.852-83.21-3.688c-9.073-1.6-11.67-5.363-10.689-10.121C660.237,703.651,663.4,706.041,670.13,707.258Z" transform="translate(-244.121 -184.563)" opacity="0.2"/>
    <path id="Path_238" data-name="Path 238" d="M179.36,680.623s16.531-.509,21.511-4.057,25.428-7.782,26.66-2.095,24.837,28.3,6.152,28.43-43.36-2.906-48.332-5.9S179.36,680.623,179.36,680.623Z" transform="translate(-118.234 -180.206)" fill="#a8a8a8"/>
    <path id="Path_239" data-name="Path 239" d="M234.034,704.121c-18.663.148-43.36-2.906-48.332-5.9-3.784-2.309-5.3-10.578-5.8-14.4h-.553s1.047,13.33,6.019,16.362,29.669,6.086,48.332,5.9c5.385-.044,7.244-1.962,7.148-4.795C240.1,703.014,238.047,704.084,234.034,704.121Z" transform="translate(-118.231 -183.388)" opacity="0.2"/>
  </g>
</svg>
