<svg xmlns="http://www.w3.org/2000/svg" width="742.911" height="551.832" viewBox="0 0 742.911 551.832">
  <g id="Group_17" data-name="Group 17" transform="translate(0 0)">
    <path id="Path_56" data-name="Path 56" d="M696.113,147.154C611.8,29.82,433.677-17.776,258.5,33.486c-92.61,27.1-181.9,81.4-226.154,186.542-79.1,187.952,86.985,247.979,195.589,267.111,52.515,9.251,101.976,24.791,147.173,45.948,81.314,38.064,225.246,71.792,333.777-86.76C787.553,331.407,752.283,225.309,696.113,147.154Z" transform="translate(-11.697 -13.011)" fill="#f2f2f2"/>
    <path id="Path_57" data-name="Path 57" d="M232.362,253.3a21.711,21.711,0,0,0-1.419-5.433,2.459,2.459,0,0,0-1.25-1.54,2.576,2.576,0,0,0-1.241-.014l-6.369.975a2.441,2.441,0,0,0-1.453.565c-.83.872-.013,2.277-.038,3.481a3.272,3.272,0,0,1-2.535,2.815,9.583,9.583,0,0,1-4.028-.05l-8.906-1.384a14.684,14.684,0,0,0,6.737-4.5c1.172-1.388,1.8-3.98.1-4.638a4.157,4.157,0,0,0-1.547-.124c-4.035.031-7.21-3.338-10.988-4.757a12.149,12.149,0,0,0-13.673,4.076l4.744.229a2.105,2.105,0,0,1,1.264.337c1.04.854-.253,2.5-.106,3.833.19,1.738,2.5,2.109,4.237,2.285s3.946,1.589,3.109,3.124c-8.743,3.011-17.64-5.887-26.821-4.791a54.492,54.492,0,0,0-6.787,1.764c-13.86,3.507-28.188-5.85-42.347-3.868a53.777,53.777,0,0,0-9.244,2.438,12.462,12.462,0,0,0-5.337,2.784c-1.4,1.467-1.933,3.977-.607,5.511a31.018,31.018,0,0,1-10.87-1.033,6.09,6.09,0,0,1,3.131,5.367A64.493,64.493,0,0,0,83.6,265.8a27.831,27.831,0,0,0,3.42,4.555l-7.227,4.643a4.124,4.124,0,0,1,2.284,6.024c2.532-1.126,4.1-4.04,6.808-4.63,1.773-.387,3.578.339,5.26,1.02s3.532,1.342,5.273.831,3.026-2.77,1.92-4.209a90.114,90.114,0,0,1,22.89-3.576,2.87,2.87,0,0,1,1.734.329c1.009.7.744,2.212.689,3.439s.9,2.84,2,2.287c-1.29,1.119-.187,3.225,1.051,4.4s2.73,2.8,1.972,4.33c-.2.4-.533.719-.724,1.122-.562,1.19.33,2.577,1.382,3.367s2.341,1.342,3.071,2.436.4,3.009-.908,3.162l-3.714-4.716a9.669,9.669,0,0,0-2.509,4.755,9.976,9.976,0,0,1,1.234,13.647c-1.685,1.98-4.081,3.182-6.173,4.727s-4.027,3.743-4.021,6.342c.009,4.491-.358,8.664,1.325,12.828a197.609,197.609,0,0,0,10.728,22.382c1.061,1.9,2.433,3.979,4.583,4.305q-4.076-9.922-7.338-20.153c1.417.006,3.053.118,3.884,1.266.688.95.54,2.242.754,3.4a10.519,10.519,0,0,0,1.341,3.153l12.975,23.112c1.076,1.916,2.309,3.973,4.365,4.748,1.314.5,2.835.4,4.045,1.117.948.56,1.587,1.554,2.554,2.081,2.733,1.491,6.534-1.369,9.088.412a25.578,25.578,0,0,1,1.868,1.9c2.359,2.043,6.229.676,8.952,2.2,1.755.982,2.665,2.947,3.6,4.727,2.345,4.459,6.139,8.828,11.165,9.183,1.579.111,3.191-.188,4.734.163s3.062,1.7,2.814,3.261c-.425,2.68.9,5.614.544,8.3-.648,4.9-7.6,7.052-8.194,11.958a27.753,27.753,0,0,1-.182,3.234c-.313,1.289-1.281,2.338-1.625,3.619-.652,2.427,1.087,4.843,3,6.476s4.189,3.041,5.234,5.327c1.1,2.416.562,5.233.921,7.865.784,5.746,5.747,10.006,10.854,12.752,1.556.837,3.227,1.647,4.234,3.1,1.315,1.895,1.184,4.393,1.623,6.657,1.075,5.545,5.743,10.113,5.875,15.76.094,4.013-2.137,7.654-3.469,11.441a26.681,26.681,0,0,0,2.179,22.128,35.441,35.441,0,0,1,2.894,5.1c1.258,3.256.85,6.958,2.01,10.251,1.534,4.353,5.749,7.949,5.346,12.547,1.914,3.974,6.14,5.927,10.389,7.11l7.616,2.12a9.787,9.787,0,0,0,4.467.521,3.352,3.352,0,0,0,2.864-3.04c-3.735-.842-7.589-1.738-10.668-4.014s-5.187-6.328-4.019-9.974c.542-1.691,1.694-3.643.6-5.04-.627-.8-1.774-1.009-2.482-1.739-1.1-1.138-.724-3.05.069-4.423s1.94-2.6,2.26-4.152a4.332,4.332,0,0,0-2.031-4.507,10.771,10.771,0,0,0,3.77-2.419,3.675,3.675,0,0,0,.669-4.164c2.316.294,5.05.438,6.57-1.334,1.214-1.415,1.131-3.529.651-5.331s-1.29-3.551-1.316-5.415a98.678,98.678,0,0,0,16.008-.543,10.38,10.38,0,0,0-4.867-6.1c2.406-.407,4.6-3.288,5.358-5.606a14.424,14.424,0,0,0,.1-7.239,3.884,3.884,0,0,1-.072-1.9,3.7,3.7,0,0,1,1.9-1.841l11.943-6.859a6.959,6.959,0,0,0,1.91-1.41c1.251-1.47,1.066-3.688.425-5.509s-1.667-3.533-1.914-5.447c-.738-5.725,5.391-9.833,7.459-15.223a22.938,22.938,0,0,0,1.134-6.674c.169-2.427.181-5.247-1.683-6.811-1.786-1.5-4.578-1.165-6.447-2.56-1.714-1.279-2.305-3.762-4.178-4.795-1.7-.938-3.832-.341-5.723-.783-3.33-.777-5.425-4.614-8.826-4.97-1.919-.2-4.09.738-5.663-.38-1.386-.985-1.441-2.964-1.705-4.643a12.966,12.966,0,0,0-10.465-10.5c-1.978-.317-4.132-.2-5.815-1.284-1.7-1.1-2.486-3.162-3.824-4.686-2.157-2.457-5.555-3.33-8.738-4.078L214.766,388c-2.3-.54-5.261-.827-6.494,1.186a9.3,9.3,0,0,0-.768,2.416,7.482,7.482,0,0,1-7.037,5.3,8.321,8.321,0,0,0-4.907-3.8,30.572,30.572,0,0,1-3.97-.945,5.577,5.577,0,0,1-2.42-7.736,6.942,6.942,0,0,0-1.186-8.35c-2.2-1.977-5.387-2.454-8.339-2.257-.773-1.687.52-3.591,1.913-4.817s3.085-2.432,3.388-4.263c.477-2.88-3.2-5.068-5.988-4.209s-4.571,3.569-5.748,6.24a18.375,18.375,0,0,1-2.315,4.439,4.549,4.549,0,0,1-4.4,1.8c-2.3-.587-3.185-3.317-3.693-5.633a36.636,36.636,0,0,1-1.225-9.437,12.34,12.34,0,0,1,3.558-8.594c3.819-3.506,9.678-3.163,14.832-2.6a3.767,3.767,0,0,1,.386-4.976,5.657,5.657,0,0,1,5.127-1.26,7.066,7.066,0,0,1,3.972,2.375c1.465,1.786,1.881,4.2,2.988,6.224s3.6,3.756,5.634,2.668c1.76-.939,2.039-3.38,1.6-5.326s-1.368-3.839-1.21-5.827c.3-3.794,4.236-6.078,7.707-7.641s7.446-3.665,8-7.431a6.775,6.775,0,0,1,.412-2.16,4.236,4.236,0,0,1,1.554-1.462c10.13-6.695,20.429-13.471,32.007-17.129.6-.19.673.021,1.287-.128.859-.5.29-1.87-.534-2.424s-1.925-.978-2.134-1.948c-.154-.713.267-1.413.376-2.135a2.665,2.665,0,0,0-3.5-2.7c-.93-1.232.91-2.663,2.4-3.073a65.127,65.127,0,0,1,13.683-2.235,2.465,2.465,0,0,1,1.557.265,1.862,1.862,0,0,1,.127,2.542,14.953,14.953,0,0,1-2.094,1.9,5.716,5.716,0,0,0-1.483,5.749c2.416,1.229,5.042,2.494,7.718,2.061s5.05-3.439,3.793-5.84c-1.171-2.236-4.689-2.74-5.294-5.19-.708-2.869,3.353-5.421,2.438-8.231-.4-1.231-1.627-1.955-2.569-2.844a7.717,7.717,0,0,1-1.689-8.557,9.735,9.735,0,0,1-8.538-2.672c-2.042-2.061-3.672-5.312-6.572-5.22-2.661.085-4.953,3.189-7.442,2.242-.612-.233-1.258-.707-1.851-.429a1.529,1.529,0,0,0-.69,1.146c-.632,3.023.456,6.468-1.192,9.081-1.793,2.843-5.941,3.237-8.115,5.8-1.18,1.392-1.637,3.267-2.722,4.734s-3.387,2.4-4.688,1.121a6.462,6.462,0,0,0-1.756-7.858,17.245,17.245,0,0,0-3.878-1.886,23,23,0,0,1-4.332-2.414,4.266,4.266,0,0,1-1.59-1.7,3.878,3.878,0,0,1,.109-2.691,11,11,0,0,1,8.756-7.257c1.733-.236,3.75-.153,4.9-1.473.607-.7.925-1.755,1.806-2.039a2.664,2.664,0,0,1,1.668.205l6.469,2.277a4.54,4.54,0,0,0,2.3.381,1.562,1.562,0,0,0,1.351-1.642c-.207-1.074-1.86-1.59-1.709-2.673a1.784,1.784,0,0,1,.541-.91,23.128,23.128,0,0,1,18.343-7.244c.816,1.341-.475,2.929-1.549,4.074s-1.938,3.19-.639,4.071a3.563,3.563,0,0,0,1.722.388,15.04,15.04,0,0,1,4.584,1.391q3.353,1.459,6.577,3.193a8.339,8.339,0,0,1,.166-4.236c.537-1.325,2.064-2.365,3.4-1.849,1.285.5,1.944,2.2,3.314,2.355,1.827.208,2.547-2.49,1.784-4.163s-2.273-3.073-2.4-4.907c-.085-1.237.386-2.772-.6-3.521a2.691,2.691,0,0,0-1.166-.409L243.9,242.739c-1.465-.27-3.583-.063-3.648,1.426-.036.831.706,1.653.377,2.417-.351.815-1.5.741-2.343,1.029a3.2,3.2,0,0,0-1.831,3.366A9.366,9.366,0,0,0,238,254.77C236.4,254.1,233.967,253.975,232.362,253.3Z" transform="translate(-36.797 -95.947)" fill="#3f3d56"/>
    <path id="Path_58" data-name="Path 58" d="M284.8,228.815a7.991,7.991,0,0,0-8.778,2.629,1.758,1.758,0,0,0-.407,1.852c.488.831,1.73.5,2.647.205a6.661,6.661,0,0,1,4.18-.1c.86.3,1.63.817,2.494,1.1a2.511,2.511,0,0,0,2.561-.374,3.334,3.334,0,0,0,.631-2.392,1.924,1.924,0,0,0-.49-1.581,2.514,2.514,0,0,0-1.134-.335,3.905,3.905,0,0,1-2.285-1.335" transform="translate(-108.925 -92.406)" fill="#3f3d56"/>
    <path id="Path_59" data-name="Path 59" d="M303.086,225.125a2.033,2.033,0,0,0-1.965,2.863,8.24,8.24,0,0,0,3.285.214,2.808,2.808,0,0,0,2.3-2.105,5.286,5.286,0,0,1-3.743-.715" transform="translate(-118.312 -91.195)" fill="#3f3d56"/>
    <path id="Path_60" data-name="Path 60" d="M346.7,217a37.79,37.79,0,0,0-8.424,2.862,6.329,6.329,0,0,1,4.042,6.357,3.31,3.31,0,0,0,.038,1.572c.309.75,1.206,1.031,1.994,1.224a13.147,13.147,0,0,0,4.374.558,4.455,4.455,0,0,0,3.62-2.212,15.779,15.779,0,0,1,.753-1.78c1.889-2.877,7.5.6,9.53-2.179.715-.98.649-2.454,1.581-3.231a3.551,3.551,0,0,1,1.625-.62,114.111,114.111,0,0,1,12.343-1.758c1.963-.171,4.522-.876,4.538-2.846a34.189,34.189,0,0,0-21.809,2.934c-2.431,1.218-5.647,3.779-7.988,2.165-.877-.6-.833-2.232-2.04-2.912C349.645,216.441,348.012,216.723,346.7,217Z" transform="translate(-132.074 -87.208)" fill="#3f3d56"/>
    <path id="Path_61" data-name="Path 61" d="M389.2,221.308l3.471.667a4.5,4.5,0,0,0-4.681,4.874c3.251,1.086,6.794.029,10.218.174s7.408,2.59,6.823,5.967c-.177,1.021-.767,2.041-.46,3.031a11.279,11.279,0,0,0,1.172,1.825c.72,1.331.144,3.016-.764,4.226s-2.13,2.176-2.928,3.462c-1.984,3.2-.857,7.335.325,10.909a9.617,9.617,0,0,0,1.849,3.693c1.751,1.862,4.6,2.023,7.159,2.061,1.86.027,3.99-.065,5.166-1.506,1.535-1.881.462-4.816,1.473-7.024.918-2.005,3.257-2.865,5.377-3.476a80.45,80.45,0,0,0,11.51-3.756c4.558-2.1,8.818-5.364,13.827-5.633a18.98,18.98,0,0,0,4.2-.295c1.354-.385,2.64-1.556,2.537-2.959-.088-1.2-1.1-2.08-1.9-2.984s-1.416-2.294-.687-3.251l13.131-2.453c-.931-2.537-1.656-5.877.483-7.529.772-.6,1.8-.834,2.462-1.554,1.12-1.227.557-3.342-.736-4.386a8.434,8.434,0,0,0-4.7-1.424,126.012,126.012,0,0,0-17.317.154l-33.83,1.854c-2.27.124-4.891-.066-6.973.709-1.763.656-3.016,1.859-5.032,2.282C396.667,219.747,392.571,219.218,389.2,221.308Z" transform="translate(-150.393 -86.992)" fill="#3f3d56"/>
    <path id="Path_62" data-name="Path 62" d="M487.576,267.709a1.4,1.4,0,0,0-1.01.229,1.275,1.275,0,0,0-.329.779,5.145,5.145,0,0,0,.747,3.683,3.606,3.606,0,0,0,3.3,1.583c1.563-.2,2.715-1.533,4.152-2.183,2.215-1,11.62-2.564,5.114-6.079-2.242-1.211-3.691-.142-5.458.656A12.419,12.419,0,0,1,487.576,267.709Z" transform="translate(-186.583 -105.958)" fill="#3f3d56"/>
    <path id="Path_63" data-name="Path 63" d="M577.491,221.292a3.715,3.715,0,0,0-1.807,1.573,1.587,1.587,0,0,0,.6,2.106,2.367,2.367,0,0,0,.886.141l3.089.092c1.312.039,2.951.319,3.3,1.583.262.939-.324,2.146.383,2.817a1.992,1.992,0,0,0,1.051.41,7.16,7.16,0,0,0,3.112.1c2.248-.6,1.067-1.975,1.775-3.2,1.083-1.869.9-.738,2.8-1.809,1.409-.791,3.23-2.226,2.054-4.242C592.691,217.362,580.51,219.786,577.491,221.292Z" transform="translate(-219.514 -88.962)" fill="#3f3d56"/>
    <path id="Path_64" data-name="Path 64" d="M667.155,219.6l-1.794.239a72.253,72.253,0,0,0-12.008,2.3,19.987,19.987,0,0,0,5.259,1.29,16.154,16.154,0,0,1,2.946.419c1.721.512,3.454,1.835,5.117,1.157,1.031-.42,1.367-1.493,2.221-2.062.59-.393,2.826-1.028,3.076-1.425C673.992,218.316,668.708,219.4,667.155,219.6Z" transform="translate(-248.21 -89.034)" fill="#3f3d56"/>
    <path id="Path_65" data-name="Path 65" d="M682.869,231.742a33.643,33.643,0,0,0-6.619,4.847,4.007,4.007,0,0,0-1.627,2.932c.1,1.534,1.736,2.424,3.151,3.023l5.734,2.428c.7-.98.059-2.334-.66-3.3s-1.573-2.078-1.256-3.238c.363-1.323,1.976-1.774,3.328-2,2.2-.371,8.15-.342,7.435-3.894C691.514,228.356,685.082,230.5,682.869,231.742Z" transform="translate(-256.048 -93.021)" fill="#3f3d56"/>
    <path id="Path_66" data-name="Path 66" d="M685.632,593.844a5.472,5.472,0,0,0,.347,4.822,4.885,4.885,0,0,0,5.015,1.733,9.032,9.032,0,0,0,4.656-2.993,16.035,16.035,0,0,0,2.678-4.107,32.058,32.058,0,0,0,1.985-7.263l1.78-9.347c.4-2.089.382-8.494-3.457-6.407-1.049.57-3.478,5.071-4.577,6.347-1.981,2.3-2.243,4.532-3.286,7.319C689.465,587.438,686.84,590.348,685.632,593.844Z" transform="translate(-259.964 -218.268)" fill="#3f3d56"/>
    <path id="Path_67" data-name="Path 67" d="M1003.83,682.583a28,28,0,0,1-3.649-1.737,30.751,30.751,0,0,0-1.85,10.08l8.6-4.865c1.293-.732,2.759-1.749,2.731-3.234a1.023,1.023,0,0,0-.475-.93,1.16,1.16,0,0,0-.6-.071,14.554,14.554,0,0,0-3.64,1.17,4.443,4.443,0,0,1-3.712.019" transform="translate(-375.369 -259.174)" fill="#3f3d56"/>
    <path id="Path_68" data-name="Path 68" d="M1070.74,686.417a18.62,18.62,0,0,0-2.757.989c-1.973,1-3.315,2.91-5.09,4.233a20.2,20.2,0,0,1-5.752,2.635,1.379,1.379,0,0,0,.322,2.032,3.987,3.987,0,0,0,2.271.51c2.086.046,4.283.066,6.11-.941a19.284,19.284,0,0,0,2.876-2.283,30.463,30.463,0,0,1,7.241-4.095,8.313,8.313,0,0,0,2.524-1.509c1.6-1.572,1.708-4-.593-4.532C1076.031,683.024,1072.508,685.845,1070.74,686.417Z" transform="translate(-396.925 -260.119)" fill="#3f3d56"/>
    <path id="Path_69" data-name="Path 69" d="M1106.162,664.011a7.172,7.172,0,0,0-2.194-5.876c-.024,2.164-.089,4.47-1.307,6.259-.867,1.275-2.227,2.137-3.177,3.351s-1.372,3.14-.257,4.206a4.176,4.176,0,0,0,2.475.852c2.219.261,4.787.407,6.343-1.2.849-.875,1.262-2.171,2.3-2.814a2.8,2.8,0,0,0,1.008-.722c.427-.68-.252-1.576-1.017-1.821s-1.608-.13-2.377-.362-1.474-1.1-1.08-1.8" transform="translate(-412.313 -250.802)" fill="#3f3d56"/>
    <path id="Path_70" data-name="Path 70" d="M1033.891,537.412a9.968,9.968,0,0,1-3.558.21c-1.975-.363-3.512-1.852-5.107-3.072a22.527,22.527,0,0,0-13.162-4.6c-4.333-.082-8.707,1.092-12.962.273a5.113,5.113,0,0,0,3.013,3.4c1.412.69,2.97,1.036,4.389,1.712a10.48,10.48,0,0,1,5.076,5.281,14.893,14.893,0,0,0,1.437,3.159c1.415,1.9,4.1,2.322,6.463,2.166,3.085-.2,6.308-1.09,9.179.059,2.2.879,3.768,2.8,5.6,4.3s4.416,2.6,6.521,1.525a10.781,10.781,0,0,1-7.46-10.374c2.065.19,8.013.116,7.692-3.392C1040.741,535.077,1035.665,537.091,1033.891,537.412Z" transform="translate(-375.652 -203.552)" fill="#3f3d56"/>
    <path id="Path_71" data-name="Path 71" d="M975.418,574.147c.367-2.011,2.372-3.787,1.747-5.733-.432-1.346-1.993-2.01-3.406-2.044s-2.8.388-4.215.427a20.556,20.556,0,0,0-2.76.039c-2.8.461-4.534,3.4-7.177,4.447-1.607.636-3.413.514-5.085.954-3.795,1-6.2,4.583-8.848,7.474a31.578,31.578,0,0,1-16.028,9.347c-2.157.5-4.477.819-6.192,2.22-2.271,1.856-2.83,5.037-3.335,7.926a130.9,130.9,0,0,1-6.373,23.394l9.01,1.15a12.246,12.246,0,0,0,5.139-.075,14.917,14.917,0,0,0,3.38-1.8,33.742,33.742,0,0,1,13.183-4.759,14,14,0,0,1,7.048.494,6.553,6.553,0,0,1,4.3,5.24,5.536,5.536,0,0,1,5.532,1.345,9.616,9.616,0,0,1,2.641,5.273c.238,1.233.475,2.71,1.619,3.227.933.422,2-.032,3.025-.114,3.464-.277,6.339,3.762,9.744,3.067,3.652-.746,4.548-6.215,8.111-7.311,2.046-.629,4.916.136,5.9-1.767.864-1.678-.859-3.613-.682-5.492.219-2.313,2.947-3.295,5.05-4.281,7.251-3.4,10.692-13.161,7.178-20.359-2.082-4.265-6.178-7.622-6.935-12.307-.582-3.6.839-7.808-1.459-10.645-1.169-1.443-3.149-2.24-3.844-3.962-.438-1.084-.262-2.314-.5-3.459s-1.235-2.343-2.366-2.046c-3.283.862-4.33,11-6.088,13.466C980.059,581.228,974.572,578.761,975.418,574.147Z" transform="translate(-344.191 -216.094)" fill="#3f3d56"/>
    <path id="Path_72" data-name="Path 72" d="M912.6,547.6a5.285,5.285,0,0,0-3.422-.175c-1.075.45-1.7,2.028-.84,2.811,6.749-.263,13.539-.524,20.23.393,7.71,1.056,15.339,3.672,23.083,2.9a117.465,117.465,0,0,0-13.465-3.125l-7.581-1.448a58.647,58.647,0,0,0-6.156-.951C920.124,547.654,916.851,548.8,912.6,547.6Z" transform="translate(-342.047 -209.913)" fill="#3f3d56"/>
    <path id="Path_73" data-name="Path 73" d="M922.249,505.863c-.56-.047-1.254-.087-1.544.395-.277.46.04,1.068-.109,1.585-.2.705-1.127.885-1.854.789a3.553,3.553,0,0,0-2.159.025,1.83,1.83,0,0,0-.708,2.079,5.35,5.35,0,0,0,1.248,1.989,20.326,20.326,0,0,0,3.238,3.248c2.32,1.712,5.462,2.537,6.923,5.023a3.335,3.335,0,0,0,.925,1.244A2.569,2.569,0,0,0,930.58,522l2.647-1.209a3.007,3.007,0,0,0,1.237-.841c.6-.82.233-1.987-.274-2.871a4.935,4.935,0,0,1-1.048-2.812c.194-1.807,2.517-2.5,3.473-4.044s.336-3.566.447-5.395c.13-2.138,1.474-4.92-.688-6.518-1.837-1.358-3.593-.1-4.912,1.4C928.678,502.867,927.363,506.291,922.249,505.863Z" transform="translate(-344.942 -191.677)" fill="#3f3d56"/>
    <path id="Path_74" data-name="Path 74" d="M951.183,456.374c.9,1.73,2.787,2.763,3.773,4.448,1.068,1.826.946,4.186,2.105,5.956,1.189,1.816,3.581,2.781,4.248,4.846.728,2.255-.924,5,.393,6.967a2.925,2.925,0,0,0,4.29.394,3.147,3.147,0,0,0-.13-4.391c-.78-.711-1.9-1.018-2.549-1.848a3.876,3.876,0,0,1-.66-1.608,10.524,10.524,0,0,1,.166-5.044,2.244,2.244,0,0,0,.127-1.32c-.293-.852-1.446-.912-2.255-1.307-1.838-.9-1.793-3.491-1.472-5.511-.214,1.345-5-.943-5.506-1.7-1-1.513-.454-4.433-.651-6.1A4.753,4.753,0,0,0,951.183,456.374Z" transform="translate(-357.809 -174.139)" fill="#3f3d56"/>
    <path id="Path_75" data-name="Path 75" d="M872.488,501.235c-.884-.99-2.216-2.025-3.4-1.428a2.153,2.153,0,0,0-.8,2.655,5.845,5.845,0,0,0,1.929,2.3,67.312,67.312,0,0,1,7.286,6.245c3.857,4.238,5.9,9.957,10.094,13.862a5.663,5.663,0,0,0,3.179,1.72,2.47,2.47,0,0,0,2.735-1.888,3.6,3.6,0,0,0-1.269-2.647c-1.629-1.772-3.413-3.4-4.952-5.255a4.417,4.417,0,0,1-1.266-2.643c-.008-1,.9-2.041,1.868-1.794-1.175-.3-2.046-2.258-3.771-2.626-1.441-.307-1.79.585-3.5-.151C877.346,508.181,874.779,503.8,872.488,501.235Z" transform="translate(-327.378 -192.378)" fill="#3f3d56"/>
    <path id="Path_76" data-name="Path 76" d="M986.649,348.853a27.079,27.079,0,0,1-2.764-.987c-2.429-.729-5.642,1.056-5.318,3.571.215,1.671,1.77,2.8,2.629,4.247,1.274,2.15.934,4.876.265,7.283a5.7,5.7,0,0,1-.919,2.072,7.022,7.022,0,0,1-2.177,1.565,29.113,29.113,0,0,0-8.518,7.236,2.087,2.087,0,0,0-.514.97c-.116.849.738,1.468,1.22,2.176,1.072,1.573.3,3.69.4,5.591a1.581,1.581,0,0,0,.666,1.387c.646.328,1.412-.229,1.762-.864,1.162-2.106.287-5.485,2.467-6.5.412-.192.912-.273,1.188-.635.436-.575.015-1.426.237-2.113.332-1.031,1.743-1.078,2.825-1.032a16.036,16.036,0,0,0,5.509-.733,3.666,3.666,0,0,0,1.823-1.056,3.967,3.967,0,0,0,.464-3,40.717,40.717,0,0,0-4.811-14.68c1.915.245,4,.456,5.651-.542.925-.559,2.035-2.23,1.576-3.368C989.589,347.639,988.276,349.153,986.649,348.853Z" transform="translate(-364.676 -136.377)" fill="#3f3d56"/>
    <path id="Path_77" data-name="Path 77" d="M561.972,386.566a7.375,7.375,0,0,1,.052,3.707,2.536,2.536,0,0,1-2.867,1.81c-.929-.281-1.465-1.215-2.125-1.927-3.667-3.959-11.941-1.667-14.207-6.565-.925-2-.3-4.394-.927-6.5a5.789,5.789,0,0,0-5.863-3.983,12.043,12.043,0,0,0-3.374,1.007A85.069,85.069,0,0,1,510.31,379.7a18.367,18.367,0,0,0-4.295.781c-3.149,1.142-5.3,4.061-6.832,7.041s-2.662,6.2-4.715,8.852c-2.158,2.782-5.181,4.73-8,6.837a8.164,8.164,0,0,0-2.64,2.767,8.656,8.656,0,0,0-.53,4.111l.577,16.949a15.308,15.308,0,0,0,1.143,6.389c1.218,2.436,3.625,4.032,5.3,6.184a12.112,12.112,0,0,1,2.513,7.735c-.035,1.122-.147,2.449.727,3.154a3.2,3.2,0,0,0,1.787.514l22.927,1.876c4.033.33,8.5.873,11.136,3.946,1.243,1.45,2.241,3.536,4.144,3.691a15.384,15.384,0,0,0,2.428-.333c2.06-.163,3.87,1.4,5.013,3.123a13.856,13.856,0,0,1,2.225,8.89c-.187,1.965-.8,3.875-.928,5.844-.5,7.493,5.853,14,5.976,21.513.072,4.417-2.024,8.544-4.069,12.46,3.3,5,.6,11.654,1.911,17.5,1.246,5.544,5.868,9.883,7.02,15.447.527,2.547.558,5.682,2.8,6.993a6.392,6.392,0,0,0,3.173.635,41.826,41.826,0,0,0,19.046-4.336c2.777-1.378,5.656-3.436,6.141-6.5.391-2.47-.861-5.232.413-7.383,1.5-2.535,5.35-2.334,7.56-4.284,3.586-3.162.79-9.193,2.242-13.748,1.306-4.094,5.8-6.269,8.029-9.944a17.667,17.667,0,0,0,1.866-5.057,72.115,72.115,0,0,0,1.9-12.9,77.3,77.3,0,0,1,.584-7.9c2.4-14.925,17.157-24.919,21.948-39.257.458-1.369.672-3.193-.546-3.968a3.488,3.488,0,0,0-2.32-.243l-10.569,1.332a7.277,7.277,0,0,1-3.91-.225c-1.206-.545-2.07-2.07-1.43-3.229,1.8-3.252-1.9-7.36-3.538-10.693A157.785,157.785,0,0,0,590.8,398.79a2.589,2.589,0,0,1-.689-1.5l3,.1c-1.013-3.633-2.684-7.609-6.213-8.938-1.989-.749-4.192-.49-6.314-.374C574.505,388.414,567.988,387.5,561.972,386.566Z" transform="translate(-185.519 -145.736)" fill="#3f3d56"/>
    <path id="Path_78" data-name="Path 78" d="M591.956,250.388c1.591,1.689,3.373,3.48,5.674,3.775,4.065.52,6.988-3.683,8.849-7.335a3.584,3.584,0,0,0,3.74,3.316,7.383,7.383,0,0,0,2.813-1.1,55.415,55.415,0,0,1,26.253-6.787,2.835,2.835,0,0,1,2.165-3.117c1.866-.37,3.547,1.243,4.447,2.919s1.461,3.618,2.892,4.873,4.2,1.2,4.764-.617c.542-1.744-1.275-3.231-2.784-4.259s-3.1-2.931-2.084-4.449c7.712-1.707,15.471-3.42,23.362-3.76a9.783,9.783,0,0,0,3.932-.677,3.057,3.057,0,0,0,1.836-3.232,8.9,8.9,0,0,1-9.293-3.505c10.949-.9,22.595-1.674,32.3,3.478,1.165,2.5-4.77,4.579-3.182,6.834a2.874,2.874,0,0,0,2.4.82c6.743.125,13.525.248,20.192-.77a27.038,27.038,0,0,1,7.343-.6c4.074.5,7.559,3.221,11.567,4.107a6.189,6.189,0,0,0,4.836-.576c1.375-.949,1.966-3.11.839-4.343,3.774-3.7,10.038-2.782,15.016-1.011s9.7,4.627,14.965,5.021c3.779.283,7.61-.733,11.344-.087,2.346.406,4.53,1.45,6.823,2.091,4.337,1.213,8.925.957,13.429,1.015a94.094,94.094,0,0,1,33.531,6.663,9.97,9.97,0,0,1,3.728,2.2,3.655,3.655,0,0,1,.832,4.01l-11.032-1.612c1.039,2.046,3.729,2.395,5.912,3.1s4.448,3.118,3.136,5c-2.366-.753-4.51,1.612-5.706,3.789s-2.652,4.783-5.131,4.916c-2.221.119-4.906-1.772-6.353-.084a43.332,43.332,0,0,1,5.105,8.162c1.43,2.979,2.448,6.733.516,9.413a2.44,2.44,0,0,1-1.3,1.011c-1.578.4-2.6-1.531-3.736-2.7-1.426-1.475-3.583-1.893-5.515-2.584s-3.966-2.052-4.118-4.1a8.188,8.188,0,0,1,1.073-3.633,14,14,0,0,0,1.064-6.278,7.132,7.132,0,0,0-1.833-4.73,3.672,3.672,0,0,0-4.713-.484c-.621.516-1.119,1.341-1.926,1.371-1.426.055-2.52-2.431-3.667-1.582a3.9,3.9,0,0,1-.53,2.606c-3.423,2.977-8.681,1.717-13.093,2.769a24.572,24.572,0,0,0-5.974,2.609,3.844,3.844,0,0,0-1.707,1.433,2.643,2.643,0,0,0,1.027,3.153,8.155,8.155,0,0,0,3.387,1.156c5.379,1.019,10.837,2.6,15.084,6.051s7.032,9.167,5.688,14.474L799.53,288.383q.6,6.384.686,12.8a5.755,5.755,0,0,1-.336,2.463c-.756,1.67-2.806,2.232-4.6,2.6a3.6,3.6,0,0,0-2.767,4.618c.638,2.08,2.229,3.7,3.686,5.318s2.891,3.452,3.081,5.62-1.444,4.61-3.615,4.46c-1.645-.114-2.866-1.587-3.568-3.08s-1.119-3.155-2.174-4.423c-3.192-3.839-10.361-2.194-13.22-6.286a6.467,6.467,0,0,0-1.337,6.154c1.33-.833,3.151-.059,4.151,1.151a28.359,28.359,0,0,1,2.256,4.12c1.059,1.834,2.745,3.459,2.892,5.572a18.214,18.214,0,0,0,.04,2.4c.263,1.28,1.344,2.2,2.095,3.269,1.745,2.489,1.659,5.909.534,8.734a26.935,26.935,0,0,1-5.148,7.473,90.13,90.13,0,0,1-11.21,11.289,11.778,11.778,0,0,0-3.182,3.2,3.473,3.473,0,0,0,.358,4.19c-.81.041-2.263.439-3.073.48a71.444,71.444,0,0,1-.185-9.772c-3.2-1.535-6.638,2.576-6.226,6.1s2.96,6.348,4.773,9.4c1.326,2.228,2.312,4.826,1.869,7.381s-2.723,4.912-5.307,4.687c-4.109-.358-5.828-6.257-9.9-6.932a1.663,1.663,0,0,0-1.071.106c-.6.332-.709,1.14-.743,1.828-.167,3.377-.311,6.889,1.008,10,1.929,4.555,6.912,8.382,5.866,13.217-5.631-2.617-8.558-8.932-9.887-15s-1.551-12.433-3.934-18.167c-1.809,2.319-5.612.4-7.265-2.031-1.567-2.306-2.532-4.974-4.053-7.312s-3.85-4.431-6.635-4.559c-2.92-.135-5.453,1.869-7.681,3.763a17.9,17.9,0,0,0-4.783,5.328c-1.558,3.132-1.151,6.825-1.226,10.323-.081,3.781-.883,7.771-3.46,10.539s-7.334,3.732-10.177,1.237a11.468,11.468,0,0,1-2.843-5.116,250.528,250.528,0,0,1-7.7-27.473c-.478,2.122-2.341,4.857-4.121,3.607a3.688,3.688,0,0,1-.949-1.223c-3.32-5.627-9.469-9-15.681-11.026s-12.748-2.968-18.892-5.192a47.855,47.855,0,0,1-9.8-4.882,7.707,7.707,0,0,0-.471,7.884,6.28,6.28,0,0,0,7.086,2.966c1.364-.436,2.516-1.383,3.87-1.85s3.17-.238,3.762,1.066c.567,1.248-.29,2.758.135,4.061.647,1.985,3.641,2.138,4.688,3.944.779,1.344.138,3.129-.974,4.213a17.634,17.634,0,0,1-3.953,2.434c-4.4,2.449-7.537,6.631-11.387,9.884s-9.281,5.628-13.868,3.542c1.093-5.538-5.5-9.6-6.716-15.115-.4-1.814-.192-3.742-.763-5.51-.826-2.56-3.1-4.32-4.96-6.26a24.569,24.569,0,0,1-6.739-17.875c.1-2.278.519-4.594,0-6.814s-2.357-4.37-4.636-4.269c-5.2.23-11.759.617-14.489-3.819-.974-1.583-1.4-3.9.01-5.115.994-.856,2.461-.775,3.766-.647l11.724,1.153c2.742.27,5.706.492,8.059-.941s3.373-5.239,1.194-6.925c-1.592-1.232-4.444-1.165-4.907-3.125-.385-1.632,1.421-3.483.445-4.847-.7-.978-2.272-.707-3.225.026s-1.644,1.805-2.711,2.36c-1.871.974-4.106.047-6.119-.583s-4.711-.683-5.687,1.186c-1.092,2.091.969,4.83-.115,6.925-1.433,2.77-6.284,1.193-8.3,3.576-2.309,2.734,1.571,6.81.792,10.3a6.414,6.414,0,0,1-6.319-.355,6.138,6.138,0,0,1-2.652-5.714c.193-1.571,1.012-3.175.463-4.66a5.467,5.467,0,0,0-2.769-2.534l-11.393-6.3c-1.058,1.962.28,4.395,1.952,5.869s3.767,2.584,4.866,4.524a5.937,5.937,0,0,1-2.234,7.828,1.37,1.37,0,0,1-1.129.2,1.575,1.575,0,0,1-.732-.985c-2.01-5.144-5.028-10.216-9.854-12.9s-11.759-2.135-14.923,2.392c-.752,1.075-1.256,2.3-1.911,3.438-3.478,6.04-10.935,8.9-17.9,8.713a3.555,3.555,0,0,1-1.953-.459c-1.126-.778-1.075-2.428-.9-3.785l.731-5.761a4.576,4.576,0,0,1,1.275-3.158c1.291-1.018,3.153-.376,4.8-.4a6.078,6.078,0,0,0,5.517-4.258,6.85,6.85,0,0,0-1.907-6.812c-.753-.708-1.765-1.6-1.367-2.55a2.108,2.108,0,0,1,1.479-1c2.953-.857,6.072-1.082,8.975-2.094s5.719-3.081,6.406-6.078c.211-.918.307-2.031,1.132-2.486a3.393,3.393,0,0,1,1.307-.267,6.363,6.363,0,0,0,5.458-6.633c1.391-.972,3.341-.257,4.687.777s2.534,2.4,4.172,2.846c3.052.831,6-1.872,9.165-1.884,1.33-.005,2.707.465,3.959.014,1.269-.457,2.026-1.72,3-2.653s2.682-1.5,3.582-.5l-.766-5.671a11.149,11.149,0,0,0,9.074-1.64l-9.9-3.343a2.151,2.151,0,0,1-.925-.495c-.719-.775-.005-1.982.58-2.862,1.4-2.107,1.634-5.577-.667-6.626-1.571-.716-3.374.143-4.882.984l-7.222,4.027c-.229,1.373,1.449,2.151,2.49,3.076a4.174,4.174,0,0,1-2.722,7.294,5.2,5.2,0,0,1,.929,4.41l-4.859.349a2.1,2.1,0,0,1-1.576-.308c-.52-.462-.449-1.27-.57-1.955a4.243,4.243,0,0,0-3.56-3.107,12.521,12.521,0,0,0-4.976.459,2.97,2.97,0,0,1-2.139-.049,2.136,2.136,0,0,1-.846-1.068,5.487,5.487,0,0,1,1.1-5.268,29.229,29.229,0,0,1,4.143-3.81,24.147,24.147,0,0,0,7.18-11.136c2.675-1.121,5.445-2.644,8.12-3.765a24.846,24.846,0,0,1,13.355-2.588l9.06.173a21.721,21.721,0,0,1,7.917,1.139c2.48,1.023,4.66,3.234,4.831,5.911a1.815,1.815,0,0,1-.581,1.659,2.141,2.141,0,0,1-1.145.258C595.524,249.677,594.458,250.3,591.956,250.388Z" transform="translate(-196.887 -91.437)" fill="#3f3d56"/>
    <path id="Path_79" data-name="Path 79" d="M518.623,307.972a2.651,2.651,0,0,0,.723-2.666,4.959,4.959,0,0,0-5.135.97,8.656,8.656,0,0,0-1.375,1.819c-1.19,1.942-2.243,4.262-1.553,6.433a1.827,1.827,0,0,0,.836,1.144,2.2,2.2,0,0,0,.975.153,32.673,32.673,0,0,0,3.923-.241c.8-.1,1.728-.324,2.037-1.067.406-.978-.577-2.084-.29-3.1a3.39,3.39,0,0,1,.837-1.2,1.585,1.585,0,0,0,.494-1.331c-.116-.478-.848-.75-1.111-.334" transform="translate(-195.762 -120.628)" fill="#3f3d56"/>
    <path id="Path_80" data-name="Path 80" d="M530.927,295.6a10.977,10.977,0,0,0-3.555-.223,1.55,1.55,0,0,0-.758.172,1.263,1.263,0,0,0-.467.676,3.358,3.358,0,0,0,1.955,4.116,4.2,4.2,0,0,1,1.213.487c1.006.78.364,2.375.555,3.633.214,1.413,1.582,2.6,1.331,4.006-.2,1.108-1.381,1.986-1.191,3.1.2,1.162,1.674,1.511,2.85,1.6a3.584,3.584,0,0,0,2.019-.231,3.127,3.127,0,0,0,1.274-1.845,11.824,11.824,0,0,0,.6-4.453,4.224,4.224,0,0,0-.5-1.965,10.978,10.978,0,0,0-1.173-1.344C532.821,300.706,535.192,296.8,530.927,295.6Z" transform="translate(-201.266 -117.069)" fill="#3f3d56"/>
    <path id="Path_81" data-name="Path 81" d="M716.433,511.271s-172.5-99.018-246.765-80.257c0,0-157.386,16.937-175.627,54.2,0,0-50.03-156.345-68.27-161.556" transform="translate(-90.604 -127.515)" fill="none" stroke="#6c63ff" stroke-miterlimit="10" stroke-width="2" opacity="0.8"/>
    <path id="Path_82" data-name="Path 82" d="M294.04,484.6c28.924-77.13,289.5-162.6,289.5-162.6-37,9.381-113.871,108.4-113.871,108.4s-162.6-118.3-243.9-107.357c0,0,358.028,11.726,490.661,187.613" transform="translate(-90.604 -126.906)" fill="none" stroke="#6c63ff" stroke-miterlimit="10" stroke-width="2" opacity="0.8"/>
    <circle id="Ellipse_10" data-name="Ellipse 10" cx="7.557" cy="7.557" r="7.557" transform="translate(127.61 188.587)" fill="#6c63ff"/>
    <circle id="Ellipse_11" data-name="Ellipse 11" cx="7.557" cy="7.557" r="7.557" transform="translate(195.88 350.142)" fill="#6c63ff"/>
    <circle id="Ellipse_12" data-name="Ellipse 12" cx="7.557" cy="7.557" r="7.557" transform="translate(485.378 187.544)" fill="#6c63ff"/>
    <circle id="Ellipse_13" data-name="Ellipse 13" cx="7.557" cy="7.557" r="7.557" transform="translate(618.271 376.199)" fill="#6c63ff"/>
    <circle id="Ellipse_14" data-name="Ellipse 14" cx="7.557" cy="7.557" r="7.557" transform="translate(371.507 295.943)" fill="#6c63ff"/>
  </g>
</svg>
