<svg xmlns="http://www.w3.org/2000/svg" width="62.869" height="62.869" viewBox="0 0 62.869 62.869">
                        <g id="Group_75183" data-name="Group 75183" transform="translate(787.899 -178.855)">
                            <g id="Polygon_8" data-name="Polygon 8" transform="translate(-780.372 186.855)"
                                fill="#00ffc1">
                                <path
                                    d="M 30.13439559936523 42.02010345458984 C 29.20032691955566 42.02014541625977 28.31598663330078 41.69697570800781 27.57698631286621 41.08553314208984 L 27.21556663513184 40.78651428222656 C 26.31318664550781 40.0399055480957 25.17119598388672 39.62873458862305 23.99998664855957 39.62873458862305 C 22.82878684997559 39.62873458862305 21.68680572509766 40.0399055480957 20.78441619873047 40.78651428222656 L 20.42301559448242 41.08553314208984 C 19.68415641784668 41.69685363769531 18.79979705810547 42.02001571655273 17.86553573608398 42.02010345458984 C 16.0562858581543 42.0202751159668 14.02196598052979 40.72189331054688 13.81544589996338 38.31531524658203 L 13.79558658599854 38.08389282226562 C 13.58443641662598 35.6233024597168 11.64474582672119 33.69040298461914 9.183416366577148 33.48788452148438 L 8.946725845336914 33.46841430664062 C 7.39875602722168 33.3410530090332 6.123435974121094 32.40678405761719 5.535266399383545 30.9692440032959 C 4.94710636138916 29.53170394897461 5.201776027679443 27.97144508361816 6.216526031494141 26.7955436706543 C 7.83781623840332 24.91678428649902 7.83781623840332 22.08322334289551 6.216536045074463 20.20445442199707 C 5.201786041259766 19.02854347229004 4.94710636138916 17.46827507019043 5.535276412963867 16.03073501586914 C 6.123445987701416 14.59320449829102 7.39875602722168 13.65893459320068 8.946736335754395 13.53158473968506 L 9.183425903320312 13.51210403442383 C 11.64473628997803 13.30959415435791 13.58443641662598 11.37670421600342 13.79558658599854 8.916104316711426 L 13.81544589996338 8.684684753417969 C 14.02194595336914 6.278324127197266 16.05629539489746 4.979884147644043 17.86558532714844 4.979884147644043 C 18.79969596862793 4.979884147644043 19.68404579162598 5.303054332733154 20.42301559448242 5.914454460144043 L 20.78442573547363 6.213484287261963 C 21.68670654296875 6.959994316101074 22.82866668701172 7.371164321899414 23.99995613098145 7.371264457702637 C 24.00002861022949 7.371264457702637 24.00026893615723 7.371264457702637 24.00034141540527 7.371264457702637 C 25.17138481140137 7.371264457702637 26.3131217956543 6.960128784179688 27.215576171875 6.213474273681641 L 27.57698631286621 5.914454460144043 C 28.31595611572266 5.303054332733154 29.20029640197754 4.979884147644043 30.1344165802002 4.979884147644043 C 31.94369697570801 4.979884147644043 33.97804641723633 6.278314113616943 34.18454742431641 8.684664726257324 L 34.20441436767578 8.916133880615234 C 34.41557693481445 11.37670421600342 36.35527801513672 13.30959415435791 38.81659698486328 13.51210403442383 L 39.05325698852539 13.53157424926758 C 40.60123443603516 13.65893459320068 41.87654495239258 14.59320449829102 42.46471786499023 16.0307445526123 C 43.05288696289062 17.46828460693359 42.7982063293457 19.02855491638184 41.78345489501953 20.20445442199707 C 40.16216659545898 22.08322334289551 40.16216659545898 24.91677474975586 41.78345489501953 26.7955436706543 C 42.7982063293457 27.97144508361816 43.05288696289062 29.53170394897461 42.46472549438477 30.9692440032959 C 41.87655639648438 32.40679550170898 40.60124588012695 33.341064453125 39.05326461791992 33.46842575073242 L 38.81659698486328 33.48789596557617 C 36.35526657104492 33.69041442871094 34.41556549072266 35.6233024597168 34.20440673828125 38.08389282226562 L 34.18454742431641 38.31532287597656 C 33.97805786132812 40.72158432006836 31.94369697570801 42.02004241943359 30.13439559936523 42.02010345458984 Z"
                                    stroke="none" />
                                <path
                                    d="M 30.13440704345703 5.479873657226562 C 29.31806564331055 5.479873657226562 28.54393577575684 5.763355255126953 27.89572525024414 6.299674987792969 L 27.53430557250977 6.598705291748047 C 26.54247665405273 7.419322967529297 25.28730583190918 7.871253967285156 23.99999618530273 7.871253967285156 C 22.71269607543945 7.871253967285156 21.4575252532959 7.419322967529297 20.46570587158203 6.598712921142578 L 20.10427665710449 6.299694061279297 C 19.45600700378418 5.763336181640625 18.6818962097168 5.479854583740234 17.86562538146973 5.479885101318359 C 16.27878570556641 5.479946136474609 14.4946174621582 6.618144989013672 14.31361770629883 8.727436065673828 L 14.29375457763672 8.958854675292969 C 14.06167602539062 11.66334533691406 11.92970657348633 13.78784561157227 9.224395751953125 14.01042556762695 L 8.987735748291016 14.0298957824707 C 7.631137847900391 14.14151382446289 6.513484954833984 14.96027374267578 5.998035430908203 16.22008514404297 C 5.482574462890625 17.47989463806152 5.705764770507812 18.84726333618164 6.595066070556641 19.87779426574707 C 8.377056121826172 21.94278335571289 8.377056121826172 25.05721473693848 6.595066070556641 27.1222038269043 C 5.705776214599609 28.15272521972656 5.482585906982422 29.52009391784668 5.998035430908203 30.77990341186523 C 6.513484954833984 32.03971481323242 7.631126403808594 32.85848236083984 8.987705230712891 32.9701042175293 L 9.224414825439453 32.98957443237305 C 11.92971801757812 33.21216583251953 14.06167602539062 35.33665466308594 14.29375457763672 38.04113388061523 L 14.31361770629883 38.27255249023438 C 14.49462509155273 40.38191223144531 16.27877616882324 41.52010345458984 17.86558532714844 41.52010345458984 C 18.68192672729492 41.52010345458984 19.45605659484863 41.23662567138672 20.10427665710449 40.70029449462891 L 20.4656867980957 40.40128326416016 C 21.4575252532959 39.58066558837891 22.71269607543945 39.12872314453125 23.99999618530273 39.12872314453125 C 25.28729629516602 39.12872314453125 26.54246711730957 39.58066558837891 27.53430557250977 40.40127563476562 L 27.89571571350098 40.70029449462891 C 28.54393577575684 41.23662567138672 29.31806564331055 41.52010345458984 30.1344165802002 41.52010345458984 C 31.72122573852539 41.52010345458984 33.50536727905273 40.38192367553711 33.68637847900391 38.27257537841797 L 33.70623779296875 38.04114532470703 C 33.93832397460938 35.33665466308594 36.07029724121094 33.21216583251953 38.77559661865234 32.98958587646484 L 39.01225662231445 32.97011566162109 C 40.36885452270508 32.85849380493164 41.48649597167969 32.03973388671875 42.00195693969727 30.77991485595703 C 42.51740646362305 29.52009391784668 42.29421615600586 28.15273475646973 41.40491485595703 27.1222038269043 C 39.6229248046875 25.05721473693848 39.6229248046875 21.94278335571289 41.40491485595703 19.87779426574707 C 42.29421615600586 18.84726333618164 42.51740646362305 17.47989463806152 42.00194549560547 16.22008514404297 C 41.48649597167969 14.96027374267578 40.36885452270508 14.14151382446289 39.01226806640625 14.0298957824707 L 38.77559661865234 14.01042556762695 C 36.07030487060547 13.78784561157227 33.93833541870117 11.66335296630859 33.70624542236328 8.958904266357422 L 33.68637847900391 8.727413177490234 C 33.50536727905273 6.618053436279297 31.72121620178223 5.479873657226562 30.13440704345703 5.479873657226562 M 30.1344051361084 4.479877471923828 C 32.35223770141602 4.479877471923828 34.46610260009766 6.117744445800781 34.68271636962891 8.641914367675781 L 34.70258712768555 8.873363494873047 C 34.89214706420898 11.08228302001953 36.64801788330078 12.83199310302734 38.85759735107422 13.0137939453125 L 39.09425735473633 13.03326416015625 C 42.79796600341797 13.33798599243164 44.58989715576172 17.71764373779297 42.16199493408203 20.53111457824707 C 40.69012451171875 22.23673439025879 40.69012451171875 24.76326370239258 42.16199493408203 26.4688835144043 L 42.16200637817383 26.4688835144043 C 44.58989715576172 29.2823543548584 42.79796600341797 33.66201400756836 39.09425735473633 33.96674346923828 L 38.85758590698242 33.98621368408203 C 36.64800643920898 34.16801452636719 34.89213562011719 35.917724609375 34.70257568359375 38.12664413452148 L 34.68271636962891 38.35807418823242 C 34.36928558349609 42.01046371459961 30.08266639709473 43.80762481689453 27.25824546813965 41.47077560424805 L 26.89683532714844 41.1717529296875 C 25.21597671508789 39.78105545043945 22.78401565551758 39.78105545043945 21.10315704345703 41.1717529296875 L 20.74174690246582 41.47077560424805 C 17.91732215881348 43.80762481689453 13.63070678710938 42.01045227050781 13.31727600097656 38.35805511474609 L 13.29741668701172 38.12664413452148 C 13.10786437988281 35.9177131652832 11.35198593139648 34.16800308227539 9.142417907714844 33.9862060546875 L 8.905727386474609 33.96673583984375 C 5.2020263671875 33.66200256347656 3.410087585449219 29.2823543548584 5.837985992431641 26.4688835144043 L 5.837985992431641 26.46887397766113 C 7.309856414794922 24.76326370239258 7.309856414794922 22.23673439025879 5.837985992431641 20.53111457824707 C 3.410087585449219 17.7176342010498 5.2020263671875 13.33798599243164 8.905735015869141 13.03326416015625 L 9.142406463623047 13.0137939453125 C 11.35198593139648 12.83199310302734 13.10786437988281 11.082275390625 13.29741668701172 8.873355865478516 L 13.31727600097656 8.641933441162109 C 13.63071060180664 4.989540100097656 17.91731452941895 3.192367553710938 20.74174690246582 5.529212951660156 L 21.1031665802002 5.828235626220703 C 22.78402519226074 7.218929290771484 25.21597671508789 7.218929290771484 26.89683532714844 5.828235626220703 L 27.25824546813965 5.529205322265625 C 28.13070678710938 4.807357788085938 29.14311027526855 4.479877471923828 30.1344051361084 4.479877471923828 Z"
                                    stroke="none" fill="#00ffc1" />
                            </g>
                            <g id="Polygon_9" data-name="Polygon 9"
                                transform="matrix(0.914, 0.407, -0.407, 0.914, -768.531, 178.855)" fill="#fcec27">
                                <path
                                    d="M 29.77705955505371 42.4178466796875 C 28.80537986755371 42.41790771484375 27.88888931274414 42.07749938964844 27.12665939331055 41.43342971801758 C 26.20011901855469 40.65052795410156 25.02182006835938 40.21936798095703 23.80879974365234 40.21936798095703 C 22.59577941894531 40.21935653686523 21.4174690246582 40.65052795410156 20.49093055725098 41.43341827392578 C 19.72884941101074 42.07736968994141 18.81233978271484 42.41777801513672 17.84046936035156 42.4178466796875 C 15.98439979553223 42.41799926757812 13.89981937408447 41.08606719970703 13.69237995147705 38.61737823486328 C 13.48163986206055 36.10929870605469 11.50829982757568 34.13594818115234 9.000219345092773 33.92520904541016 C 7.426339626312256 33.7929573059082 6.125869750976562 32.84284973144531 5.521459579467773 31.38365745544434 C 4.91703987121582 29.92446708679199 5.164779663085938 28.33306694030762 6.184169769287109 27.12665748596191 C 7.808629512786865 25.20415878295898 7.808629512786865 22.41342735290527 6.184159755706787 20.49092864990234 C 5.164779663085938 19.28451728820801 4.91703987121582 17.69311714172363 5.521459579467773 16.23392868041992 C 6.125879764556885 14.77473831176758 7.426349639892578 13.82462787628174 9.000219345092773 13.69237804412842 C 11.5082893371582 13.48164749145508 13.48163986206055 11.50830745697021 13.69237995147705 9.000227928161621 C 13.89979934692383 6.531717777252197 15.98439979553223 5.199748039245605 17.84050941467285 5.199748039245605 C 18.81225967407227 5.199748039245605 19.728759765625 5.54014778137207 20.49093055725098 6.184167861938477 C 21.41745948791504 6.967067718505859 22.59576988220215 7.398227691650391 23.80879020690918 7.398227691650391 C 25.02181053161621 7.398227691650391 26.20011901855469 6.967067718505859 27.12665939331055 6.184157848358154 C 27.88883018493652 5.54014778137207 28.80533981323242 5.199738025665283 29.77709007263184 5.199738025665283 C 31.6331901550293 5.199738025665283 33.71778869628906 6.531717777252197 33.92520904541016 9.000217437744141 C 34.13594818115234 11.50830745697021 36.10929107666016 13.48164749145508 38.61737823486328 13.69237804412842 C 40.19124984741211 13.82462787628174 41.49172973632812 14.77474784851074 42.09614944458008 16.23393821716309 C 42.7005615234375 17.69312858581543 42.45281982421875 19.2845287322998 41.43342971801758 20.49092864990234 C 39.8089714050293 22.41343688964844 39.8089714050293 25.20416831970215 41.43344116210938 27.12666702270508 C 42.45281982421875 28.33306694030762 42.7005615234375 29.92446708679199 42.09613800048828 31.38365745544434 C 41.49172973632812 32.84284973144531 40.19126129150391 33.7929573059082 38.61737823486328 33.92520904541016 C 36.10929107666016 34.13595962524414 34.13594818115234 36.10930633544922 33.92522048950195 38.61737823486328 C 33.71780014038086 41.08573913574219 31.63318061828613 42.41774749755859 29.77705955505371 42.4178466796875 Z"
                                    stroke="none" />
                                <path
                                    d="M 29.77709007263184 5.699737548828125 C 28.92502975463867 5.699737548828125 28.12011909484863 5.999317169189453 27.44935989379883 6.566089630126953 C 26.43269920349121 7.425128936767578 25.13978958129883 7.898227691650391 23.80879020690918 7.898227691650391 C 22.47777938842773 7.898227691650391 21.18486022949219 7.425128936767578 20.16822052001953 6.566078186035156 C 19.49742889404297 5.999267578125 18.69253921508789 5.699699401855469 17.8405590057373 5.699748992919922 C 16.20730018615723 5.699836730957031 14.37303161621094 6.87127685546875 14.19062805175781 9.042087554931641 C 13.95938110351562 11.79410934448242 11.79410934448242 13.95937728881836 9.042079925537109 14.19062805175781 C 7.658260345458984 14.3068962097168 6.51483154296875 15.14227676391602 5.9833984375 16.42526817321777 C 5.451961517333984 17.7082576751709 5.669788360595703 19.10748863220215 6.566078186035156 20.1682186126709 C 8.348548889160156 22.27770805358887 8.348548889160156 25.33987808227539 6.566078186035156 27.44936752319336 C 5.669788360595703 28.51009750366211 5.451961517333984 29.90932846069336 5.9833984375 31.19231796264648 C 6.51483154296875 32.47530746459961 7.658260345458984 33.31068801879883 9.042079925537109 33.42695617675781 C 11.79410934448242 33.65820693969727 13.95938110351562 35.823486328125 14.19062805175781 38.57551574707031 C 14.37303924560547 40.74643707275391 16.20727920532227 41.9178466796875 17.84049987792969 41.9178466796875 C 18.69256973266602 41.9178466796875 19.49748039245605 41.61827850341797 20.16822052001953 41.05150604248047 C 21.18487930297852 40.19245910644531 22.4777889251709 39.71935653686523 23.80879020690918 39.71935653686523 C 25.13978958129883 39.71935653686523 26.43271064758301 40.19245910644531 27.44936943054199 41.05151748657227 C 28.1201000213623 41.61827850341797 28.92501068115234 41.9178466796875 29.77708053588867 41.9178466796875 C 31.41030883789062 41.9178466796875 33.24454879760742 40.74643707275391 33.42695999145508 38.57550811767578 C 33.65821075439453 35.82347869873047 35.82349014282227 33.65820693969727 38.57551956176758 33.42695617675781 C 39.9593391418457 33.31068801879883 41.10276794433594 32.47530746459961 41.63420104980469 31.19231796264648 C 42.16563034057617 29.90932846069336 41.94779968261719 28.51009750366211 41.05152130126953 27.44937705993652 C 39.26905059814453 25.33987808227539 39.26905059814453 22.27770805358887 41.05152130126953 20.1682186126709 C 41.94781112670898 19.10748863220215 42.16564178466797 17.7082576751709 41.63420104980469 16.42526817321777 C 41.10276794433594 15.14228820800781 39.9593391418457 14.3068962097168 38.57550811767578 14.19062805175781 C 35.82347869873047 13.95937728881836 33.65821075439453 11.79410934448242 33.42695999145508 9.042076110839844 C 33.24454879760742 6.871147155761719 31.41030883789062 5.699737548828125 29.77709007263184 5.699737548828125 M 29.77709007263184 4.699741363525391 C 32.04338836669922 4.699741363525391 34.20626068115234 6.373561859130859 34.4234504699707 8.958347320556641 L 34.4234504699707 8.958358764648438 C 34.61302947998047 11.21453857421875 36.40306091308594 13.00455856323242 38.65924072265625 13.19413757324219 L 38.65924835205078 13.19413757324219 C 42.41526794433594 13.50973892211914 44.24808883666992 17.93456840515137 41.81534957885742 20.81363868713379 L 41.81533813476562 20.81364822387695 C 40.35403060913086 22.54305839538574 40.35403823852539 25.07454872131348 41.81534957885742 26.80395698547363 C 44.24808120727539 29.68301773071289 42.41526031494141 34.10784912109375 38.65924835205078 34.42344665527344 L 38.65922927856445 34.42345809936523 C 36.40306091308594 34.61302947998047 34.61302947998047 36.40305709838867 34.4234504699707 38.65923690795898 L 34.4234504699707 38.65924835205078 C 34.10784912109375 42.41526031494141 29.68302536010742 44.24808883666992 26.8039493560791 41.81534576416016 L 26.8039493560791 41.81533813476562 C 25.07454109191895 40.35403823852539 22.54304885864258 40.35403442382812 20.81364059448242 41.81533813476562 L 20.81362915039062 41.81534576416016 C 17.9345703125 44.24808883666992 13.50973892211914 42.41525650024414 13.19414138793945 38.65924835205078 L 13.19414138793945 38.65923690795898 C 13.00455856323242 36.40305709838867 11.21453094482422 34.61302947998047 8.958351135253906 34.42344665527344 C 5.20233154296875 34.10784912109375 3.369510650634766 29.68301773071289 5.802249908447266 26.80394744873047 C 7.263561248779297 25.07453727722168 7.263561248779297 22.54304695129395 5.802249908447266 20.81363868713379 C 3.369510650634766 17.93456840515137 5.20233154296875 13.50973892211914 8.958351135253906 13.19413757324219 C 11.21453094482422 13.00455856323242 13.00455856323242 11.21452713012695 13.19414138793945 8.958358764648438 L 13.19414138793945 8.958347320556641 C 13.50973892211914 5.202339172363281 17.93457221984863 3.369518280029297 20.81364059448242 5.80224609375 L 20.81364059448242 5.802257537841797 C 22.54305076599121 7.263565063476562 25.07454299926758 7.263561248779297 26.8039493560791 5.802257537841797 L 26.80395889282227 5.80224609375 C 27.70173263549805 5.043651580810547 28.75017166137695 4.699741363525391 29.77709007263184 4.699741363525391 Z"
                                    stroke="none" fill="#fcec27" />
                            </g>
                            <text id="Pro" transform="translate(-757.372 214.855)" fill="#707070" font-size="12"
                                font-family="Gadugi-Bold, Gadugi" font-weight="700" letter-spacing="0.01em">
                                <tspan x="-9.861" y="0">Pro</tspan>
                            </text>
                        </g>
                    </svg>