<svg xmlns="http://www.w3.org/2000/svg" width="19" height="19" viewBox="0 0 141.688 161.929">
  <g id="Group_2" data-name="Group 2" transform="translate(-869 -801)">
    <path id="Path_1" data-name="Path 1" d="M30.362,0A30.37,30.37,0,0,0,0,30.362V131.567a30.37,30.37,0,0,0,30.362,30.362H131.567a10.121,10.121,0,1,0,0-20.241V121.447a10.11,10.11,0,0,0,10.121-10.121V10.121A10.11,10.11,0,0,0,131.567,0H30.362Zm0,121.447h80.964v20.241H30.362a10.121,10.121,0,0,1,0-20.241Z" transform="translate(869 801)"/>
    <path id="Path_3" data-name="Path 3" d="M63.081,52.171,50.321,33.3A3.093,3.093,0,0,0,47.88,32H16.362a2.9,2.9,0,0,0-2.331,1.3L1.38,52.165a2.942,2.942,0,0,0,.3,3.667L30.03,86.039a2.946,2.946,0,0,0,4.288,0L62.783,55.833A2.93,2.93,0,0,0,63.081,52.171ZM47.7,39.924l7.8,11.706H38.31Zm-15.52,10.1L22.557,37.889H41.783Zm-15.52-10.1,9.277,11.706H8.747Zm15.52,39.8L11.247,57.521H53.109Z" transform="translate(907.125 802)" fill="#fff"/>
  </g>
</svg>
