<svg xmlns="http://www.w3.org/2000/svg" width="16" height="16" viewBox="0 0 182.75 193.836">
                    <g id="Group_3" data-name="Group 3" transform="translate(-894.643 -742.906)">
                        <path id="Path_4" data-name="Path 4" d="M111.762,7.375,107.383,5.7,103,7.375l-79,30.5L16.69,40.69l-.457,7.843c-1.142,18.885,1.828,47.783,14.2,76.072,12.45,28.48,34.686,56.769,72.151,72.874l4.8,2.056,4.8-2.056c37.465-16.105,59.7-44.395,72.151-72.874,12.374-28.251,15.344-57.187,14.2-76.072l-.457-7.843-7.31-2.817-79-30.459Z" transform="translate(878.635 737.206)" fill="#1e1e1e"/>
                        <path id="Path_3" data-name="Path 3" d="M82.114,58.342,65.45,33.7A4.039,4.039,0,0,0,62.262,32H21.1a3.793,3.793,0,0,0-3.044,1.692L1.535,58.335a3.842,3.842,0,0,0,.386,4.789L38.95,102.573a3.848,3.848,0,0,0,5.6,0L81.725,63.125A3.827,3.827,0,0,0,82.114,58.342ZM62.022,42.349,72.212,57.637H49.764ZM41.753,55.538,29.191,39.691H54.3ZM21.484,42.349,33.6,57.637H11.156Zm20.269,51.98-27.332-29h54.67Z" transform="translate(944.194 771.933)" fill="white"/>
                    </g>
                </svg>